<mxfile host="65bd71144e" modified="2020-11-11T04:21:21.260Z" agent="5.0 (Macintosh; Intel Mac OS X 10_15_7) AppleWebKit/537.36 (KHTML, like Gecko) Code/1.51.0 Chrome/83.0.4103.122 Electron/9.3.3 Safari/537.36" etag="PMVwrPGUIjNUOykID1ds" version="13.6.5" pages="28">
    <diagram id="jSflmeTWKZC5N9udb8eS" name="Page-1">
        <mxGraphModel dx="1402" dy="860" grid="1" gridSize="10" guides="1" tooltips="1" connect="1" arrows="1" fold="1" page="1" pageScale="1" pageWidth="800" pageHeight="800" math="0" shadow="0">
            <root>
                <mxCell id="0"/>
                <mxCell id="1" parent="0"/>
                <mxCell id="6" value="100" style="whiteSpace=wrap;html=1;aspect=fixed;fontFamily=Fira Code;" parent="1" vertex="1">
                    <mxGeometry x="340" y="40" width="40" height="40" as="geometry"/>
                </mxCell>
                <mxCell id="3sSBsssJ497s5XPA8a3r-6" value="" style="whiteSpace=wrap;html=1;aspect=fixed;fontFamily=Fira Code;" parent="1" vertex="1">
                    <mxGeometry x="380" y="40" width="40" height="40" as="geometry"/>
                </mxCell>
                <mxCell id="3sSBsssJ497s5XPA8a3r-7" value="" style="whiteSpace=wrap;html=1;aspect=fixed;fontFamily=Fira Code;" parent="1" vertex="1">
                    <mxGeometry x="420" y="40" width="40" height="40" as="geometry"/>
                </mxCell>
            </root>
        </mxGraphModel>
    </diagram>
    <diagram name="Copy of Page-1" id="vW4O04oCvlxqWSpvt2fV">
        <mxGraphModel dx="1402" dy="860" grid="1" gridSize="10" guides="1" tooltips="1" connect="1" arrows="1" fold="1" page="1" pageScale="1" pageWidth="800" pageHeight="800" math="0" shadow="0">
            <root>
                <mxCell id="edkmVFXcTQLYBrRiFU7G-0"/>
                <mxCell id="edkmVFXcTQLYBrRiFU7G-1" parent="edkmVFXcTQLYBrRiFU7G-0"/>
                <mxCell id="edkmVFXcTQLYBrRiFU7G-2" value="90" style="whiteSpace=wrap;html=1;aspect=fixed;fontFamily=Fira Code;" parent="edkmVFXcTQLYBrRiFU7G-1" vertex="1">
                    <mxGeometry x="340" y="40" width="40" height="40" as="geometry"/>
                </mxCell>
                <mxCell id="edkmVFXcTQLYBrRiFU7G-3" value="100" style="whiteSpace=wrap;html=1;aspect=fixed;fontFamily=Fira Code;" parent="edkmVFXcTQLYBrRiFU7G-1" vertex="1">
                    <mxGeometry x="380" y="40" width="40" height="40" as="geometry"/>
                </mxCell>
                <mxCell id="gsvmyzwYFbpRsst4HRaz-0" value="" style="whiteSpace=wrap;html=1;aspect=fixed;fontFamily=Fira Code;" parent="edkmVFXcTQLYBrRiFU7G-1" vertex="1">
                    <mxGeometry x="420" y="40" width="40" height="40" as="geometry"/>
                </mxCell>
            </root>
        </mxGraphModel>
    </diagram>
    <diagram name="Copy of Copy of Page-1" id="3f-eCcMz_Pz4XnxtALBP">
        <mxGraphModel dx="1402" dy="860" grid="1" gridSize="10" guides="1" tooltips="1" connect="1" arrows="1" fold="1" page="1" pageScale="1" pageWidth="800" pageHeight="800" math="0" shadow="0">
            <root>
                <mxCell id="F4AiqEDkDBKOchriZzQ6-0"/>
                <mxCell id="F4AiqEDkDBKOchriZzQ6-1" parent="F4AiqEDkDBKOchriZzQ6-0"/>
                <mxCell id="F4AiqEDkDBKOchriZzQ6-2" value="80" style="whiteSpace=wrap;html=1;aspect=fixed;fontFamily=Fira Code;" parent="F4AiqEDkDBKOchriZzQ6-1" vertex="1">
                    <mxGeometry x="340" y="40" width="40" height="40" as="geometry"/>
                </mxCell>
                <mxCell id="F4AiqEDkDBKOchriZzQ6-3" value="90" style="whiteSpace=wrap;html=1;aspect=fixed;fontFamily=Fira Code;" parent="F4AiqEDkDBKOchriZzQ6-1" vertex="1">
                    <mxGeometry x="380" y="40" width="40" height="40" as="geometry"/>
                </mxCell>
                <mxCell id="F4AiqEDkDBKOchriZzQ6-4" value="100" style="whiteSpace=wrap;html=1;aspect=fixed;fontFamily=Fira Code;" parent="F4AiqEDkDBKOchriZzQ6-1" vertex="1">
                    <mxGeometry x="420" y="40" width="40" height="40" as="geometry"/>
                </mxCell>
            </root>
        </mxGraphModel>
    </diagram>
    <diagram name="Copy of Copy of Copy of Copy of Page-1" id="lpBtyJ_4vhKZe7iIDdcH">
        <mxGraphModel dx="1402" dy="860" grid="1" gridSize="10" guides="1" tooltips="1" connect="1" arrows="1" fold="1" page="1" pageScale="1" pageWidth="800" pageHeight="800" math="0" shadow="0">
            <root>
                <mxCell id="Ja6uFD7UK4U0nX0tvIoA-0"/>
                <mxCell id="Ja6uFD7UK4U0nX0tvIoA-1" parent="Ja6uFD7UK4U0nX0tvIoA-0"/>
                <mxCell id="Ja6uFD7UK4U0nX0tvIoA-2" value="80" style="whiteSpace=wrap;html=1;aspect=fixed;fontFamily=Fira Code;" parent="Ja6uFD7UK4U0nX0tvIoA-1" vertex="1">
                    <mxGeometry x="340" y="40" width="40" height="40" as="geometry"/>
                </mxCell>
                <mxCell id="Ja6uFD7UK4U0nX0tvIoA-3" style="edgeStyle=none;rounded=0;orthogonalLoop=1;jettySize=auto;html=1;exitX=0;exitY=1;exitDx=0;exitDy=0;entryX=0.5;entryY=0;entryDx=0;entryDy=0;endArrow=none;endFill=0;fontFamily=Fira Code;" parent="Ja6uFD7UK4U0nX0tvIoA-1" source="Ja6uFD7UK4U0nX0tvIoA-4" target="Ja6uFD7UK4U0nX0tvIoA-7" edge="1">
                    <mxGeometry relative="1" as="geometry"/>
                </mxCell>
                <mxCell id="Ja6uFD7UK4U0nX0tvIoA-4" value="90" style="whiteSpace=wrap;html=1;aspect=fixed;fontFamily=Fira Code;" parent="Ja6uFD7UK4U0nX0tvIoA-1" vertex="1">
                    <mxGeometry x="380" y="40" width="40" height="40" as="geometry"/>
                </mxCell>
                <mxCell id="Ja6uFD7UK4U0nX0tvIoA-5" value="100" style="whiteSpace=wrap;html=1;aspect=fixed;fontFamily=Fira Code;" parent="Ja6uFD7UK4U0nX0tvIoA-1" vertex="1">
                    <mxGeometry x="420" y="40" width="40" height="40" as="geometry"/>
                </mxCell>
                <mxCell id="Ja6uFD7UK4U0nX0tvIoA-6" value="" style="whiteSpace=wrap;html=1;aspect=fixed;fontFamily=Fira Code;" parent="Ja6uFD7UK4U0nX0tvIoA-1" vertex="1">
                    <mxGeometry x="260" y="120" width="40" height="40" as="geometry"/>
                </mxCell>
                <mxCell id="Ja6uFD7UK4U0nX0tvIoA-7" value="" style="whiteSpace=wrap;html=1;aspect=fixed;fontFamily=Fira Code;" parent="Ja6uFD7UK4U0nX0tvIoA-1" vertex="1">
                    <mxGeometry x="300" y="120" width="40" height="40" as="geometry"/>
                </mxCell>
                <mxCell id="Ja6uFD7UK4U0nX0tvIoA-8" value="" style="whiteSpace=wrap;html=1;aspect=fixed;fontFamily=Fira Code;" parent="Ja6uFD7UK4U0nX0tvIoA-1" vertex="1">
                    <mxGeometry x="340" y="120" width="40" height="40" as="geometry"/>
                </mxCell>
                <mxCell id="Ja6uFD7UK4U0nX0tvIoA-9" value="" style="whiteSpace=wrap;html=1;aspect=fixed;fontFamily=Fira Code;" parent="Ja6uFD7UK4U0nX0tvIoA-1" vertex="1">
                    <mxGeometry x="100" y="120" width="40" height="40" as="geometry"/>
                </mxCell>
                <mxCell id="Ja6uFD7UK4U0nX0tvIoA-10" value="" style="whiteSpace=wrap;html=1;aspect=fixed;fontFamily=Fira Code;" parent="Ja6uFD7UK4U0nX0tvIoA-1" vertex="1">
                    <mxGeometry x="140" y="120" width="40" height="40" as="geometry"/>
                </mxCell>
                <mxCell id="Ja6uFD7UK4U0nX0tvIoA-11" style="edgeStyle=none;rounded=0;orthogonalLoop=1;jettySize=auto;html=1;exitX=0.5;exitY=0;exitDx=0;exitDy=0;entryX=0;entryY=1;entryDx=0;entryDy=0;endArrow=none;endFill=0;fontFamily=Fira Code;" parent="Ja6uFD7UK4U0nX0tvIoA-1" source="Ja6uFD7UK4U0nX0tvIoA-10" target="Ja6uFD7UK4U0nX0tvIoA-2" edge="1">
                    <mxGeometry relative="1" as="geometry"/>
                </mxCell>
                <mxCell id="Ja6uFD7UK4U0nX0tvIoA-12" value="" style="whiteSpace=wrap;html=1;aspect=fixed;fontFamily=Fira Code;" parent="Ja6uFD7UK4U0nX0tvIoA-1" vertex="1">
                    <mxGeometry x="180" y="120" width="40" height="40" as="geometry"/>
                </mxCell>
            </root>
        </mxGraphModel>
    </diagram>
    <diagram name="Copy of Copy of Copy of Copy of Copy of Page-1" id="lNsPHtc8tXN2VJZBAXIe">
        <mxGraphModel dx="1402" dy="860" grid="1" gridSize="10" guides="1" tooltips="1" connect="1" arrows="1" fold="1" page="1" pageScale="1" pageWidth="800" pageHeight="800" math="0" shadow="0">
            <root>
                <mxCell id="J4rQiWH1Fn5GhnUWShdT-0"/>
                <mxCell id="J4rQiWH1Fn5GhnUWShdT-1" parent="J4rQiWH1Fn5GhnUWShdT-0"/>
                <mxCell id="J4rQiWH1Fn5GhnUWShdT-2" value="90" style="whiteSpace=wrap;html=1;aspect=fixed;fontFamily=Fira Code;" parent="J4rQiWH1Fn5GhnUWShdT-1" vertex="1">
                    <mxGeometry x="340" y="40" width="40" height="40" as="geometry"/>
                </mxCell>
                <mxCell id="J4rQiWH1Fn5GhnUWShdT-3" style="edgeStyle=none;rounded=0;orthogonalLoop=1;jettySize=auto;html=1;exitX=0;exitY=1;exitDx=0;exitDy=0;entryX=0.5;entryY=0;entryDx=0;entryDy=0;endArrow=none;endFill=0;fontFamily=Fira Code;" parent="J4rQiWH1Fn5GhnUWShdT-1" source="J4rQiWH1Fn5GhnUWShdT-4" target="J4rQiWH1Fn5GhnUWShdT-7" edge="1">
                    <mxGeometry relative="1" as="geometry"/>
                </mxCell>
                <mxCell id="J4rQiWH1Fn5GhnUWShdT-4" value="100" style="whiteSpace=wrap;html=1;aspect=fixed;fontFamily=Fira Code;" parent="J4rQiWH1Fn5GhnUWShdT-1" vertex="1">
                    <mxGeometry x="380" y="40" width="40" height="40" as="geometry"/>
                </mxCell>
                <mxCell id="J4rQiWH1Fn5GhnUWShdT-5" value="" style="whiteSpace=wrap;html=1;aspect=fixed;fontFamily=Fira Code;" parent="J4rQiWH1Fn5GhnUWShdT-1" vertex="1">
                    <mxGeometry x="420" y="40" width="40" height="40" as="geometry"/>
                </mxCell>
                <mxCell id="J4rQiWH1Fn5GhnUWShdT-6" value="" style="whiteSpace=wrap;html=1;aspect=fixed;fontFamily=Fira Code;" parent="J4rQiWH1Fn5GhnUWShdT-1" vertex="1">
                    <mxGeometry x="260" y="120" width="40" height="40" as="geometry"/>
                </mxCell>
                <mxCell id="J4rQiWH1Fn5GhnUWShdT-7" value="" style="whiteSpace=wrap;html=1;aspect=fixed;fontFamily=Fira Code;" parent="J4rQiWH1Fn5GhnUWShdT-1" vertex="1">
                    <mxGeometry x="300" y="120" width="40" height="40" as="geometry"/>
                </mxCell>
                <mxCell id="J4rQiWH1Fn5GhnUWShdT-8" value="" style="whiteSpace=wrap;html=1;aspect=fixed;fontFamily=Fira Code;" parent="J4rQiWH1Fn5GhnUWShdT-1" vertex="1">
                    <mxGeometry x="340" y="120" width="40" height="40" as="geometry"/>
                </mxCell>
                <mxCell id="J4rQiWH1Fn5GhnUWShdT-9" value="80" style="whiteSpace=wrap;html=1;aspect=fixed;fontFamily=Fira Code;" parent="J4rQiWH1Fn5GhnUWShdT-1" vertex="1">
                    <mxGeometry x="100" y="120" width="40" height="40" as="geometry"/>
                </mxCell>
                <mxCell id="J4rQiWH1Fn5GhnUWShdT-10" value="" style="whiteSpace=wrap;html=1;aspect=fixed;fontFamily=Fira Code;" parent="J4rQiWH1Fn5GhnUWShdT-1" vertex="1">
                    <mxGeometry x="140" y="120" width="40" height="40" as="geometry"/>
                </mxCell>
                <mxCell id="J4rQiWH1Fn5GhnUWShdT-11" style="edgeStyle=none;rounded=0;orthogonalLoop=1;jettySize=auto;html=1;exitX=0.5;exitY=0;exitDx=0;exitDy=0;entryX=0;entryY=1;entryDx=0;entryDy=0;endArrow=none;endFill=0;fontFamily=Fira Code;" parent="J4rQiWH1Fn5GhnUWShdT-1" source="J4rQiWH1Fn5GhnUWShdT-10" target="J4rQiWH1Fn5GhnUWShdT-2" edge="1">
                    <mxGeometry relative="1" as="geometry"/>
                </mxCell>
                <mxCell id="J4rQiWH1Fn5GhnUWShdT-12" value="" style="whiteSpace=wrap;html=1;aspect=fixed;fontFamily=Fira Code;" parent="J4rQiWH1Fn5GhnUWShdT-1" vertex="1">
                    <mxGeometry x="180" y="120" width="40" height="40" as="geometry"/>
                </mxCell>
            </root>
        </mxGraphModel>
    </diagram>
    <diagram name="Copy of Copy of Copy of Copy of Copy of Copy of Page-1" id="qHuE-9bT8Ld-VeZmZpi9">
        <mxGraphModel dx="1402" dy="860" grid="1" gridSize="10" guides="1" tooltips="1" connect="1" arrows="1" fold="1" page="1" pageScale="1" pageWidth="800" pageHeight="800" math="0" shadow="0">
            <root>
                <mxCell id="sfxO9cuk--gWEK-x6nM0-0"/>
                <mxCell id="sfxO9cuk--gWEK-x6nM0-1" parent="sfxO9cuk--gWEK-x6nM0-0"/>
                <mxCell id="sfxO9cuk--gWEK-x6nM0-2" value="90" style="whiteSpace=wrap;html=1;aspect=fixed;fontFamily=Fira Code;" parent="sfxO9cuk--gWEK-x6nM0-1" vertex="1">
                    <mxGeometry x="340" y="40" width="40" height="40" as="geometry"/>
                </mxCell>
                <mxCell id="sfxO9cuk--gWEK-x6nM0-3" style="edgeStyle=none;rounded=0;orthogonalLoop=1;jettySize=auto;html=1;exitX=0;exitY=1;exitDx=0;exitDy=0;entryX=0.5;entryY=0;entryDx=0;entryDy=0;endArrow=none;endFill=0;fontFamily=Fira Code;" parent="sfxO9cuk--gWEK-x6nM0-1" source="sfxO9cuk--gWEK-x6nM0-4" target="sfxO9cuk--gWEK-x6nM0-7" edge="1">
                    <mxGeometry relative="1" as="geometry"/>
                </mxCell>
                <mxCell id="sfxO9cuk--gWEK-x6nM0-4" value="" style="whiteSpace=wrap;html=1;aspect=fixed;fontFamily=Fira Code;" parent="sfxO9cuk--gWEK-x6nM0-1" vertex="1">
                    <mxGeometry x="380" y="40" width="40" height="40" as="geometry"/>
                </mxCell>
                <mxCell id="sfxO9cuk--gWEK-x6nM0-5" value="" style="whiteSpace=wrap;html=1;aspect=fixed;fontFamily=Fira Code;" parent="sfxO9cuk--gWEK-x6nM0-1" vertex="1">
                    <mxGeometry x="420" y="40" width="40" height="40" as="geometry"/>
                </mxCell>
                <mxCell id="sfxO9cuk--gWEK-x6nM0-6" value="100" style="whiteSpace=wrap;html=1;aspect=fixed;fontFamily=Fira Code;" parent="sfxO9cuk--gWEK-x6nM0-1" vertex="1">
                    <mxGeometry x="260" y="120" width="40" height="40" as="geometry"/>
                </mxCell>
                <mxCell id="sfxO9cuk--gWEK-x6nM0-7" value="" style="whiteSpace=wrap;html=1;aspect=fixed;fontFamily=Fira Code;" parent="sfxO9cuk--gWEK-x6nM0-1" vertex="1">
                    <mxGeometry x="300" y="120" width="40" height="40" as="geometry"/>
                </mxCell>
                <mxCell id="sfxO9cuk--gWEK-x6nM0-8" value="" style="whiteSpace=wrap;html=1;aspect=fixed;fontFamily=Fira Code;" parent="sfxO9cuk--gWEK-x6nM0-1" vertex="1">
                    <mxGeometry x="340" y="120" width="40" height="40" as="geometry"/>
                </mxCell>
                <mxCell id="sfxO9cuk--gWEK-x6nM0-9" value="80" style="whiteSpace=wrap;html=1;aspect=fixed;fontFamily=Fira Code;" parent="sfxO9cuk--gWEK-x6nM0-1" vertex="1">
                    <mxGeometry x="100" y="120" width="40" height="40" as="geometry"/>
                </mxCell>
                <mxCell id="sfxO9cuk--gWEK-x6nM0-10" value="" style="whiteSpace=wrap;html=1;aspect=fixed;fontFamily=Fira Code;" parent="sfxO9cuk--gWEK-x6nM0-1" vertex="1">
                    <mxGeometry x="140" y="120" width="40" height="40" as="geometry"/>
                </mxCell>
                <mxCell id="sfxO9cuk--gWEK-x6nM0-11" style="edgeStyle=none;rounded=0;orthogonalLoop=1;jettySize=auto;html=1;exitX=0.5;exitY=0;exitDx=0;exitDy=0;entryX=0;entryY=1;entryDx=0;entryDy=0;endArrow=none;endFill=0;fontFamily=Fira Code;" parent="sfxO9cuk--gWEK-x6nM0-1" source="sfxO9cuk--gWEK-x6nM0-10" target="sfxO9cuk--gWEK-x6nM0-2" edge="1">
                    <mxGeometry relative="1" as="geometry"/>
                </mxCell>
                <mxCell id="sfxO9cuk--gWEK-x6nM0-12" value="" style="whiteSpace=wrap;html=1;aspect=fixed;fontFamily=Fira Code;" parent="sfxO9cuk--gWEK-x6nM0-1" vertex="1">
                    <mxGeometry x="180" y="120" width="40" height="40" as="geometry"/>
                </mxCell>
            </root>
        </mxGraphModel>
    </diagram>
    <diagram name="Copy of Copy of Copy of Copy of Copy of Copy of Copy of Page-1" id="reuf1_t3wJHHbka0DshP">
        <mxGraphModel dx="1402" dy="860" grid="1" gridSize="10" guides="1" tooltips="1" connect="1" arrows="1" fold="1" page="1" pageScale="1" pageWidth="800" pageHeight="800" math="0" shadow="0">
            <root>
                <mxCell id="pqt3TSG40STBLUcrg_S9-0"/>
                <mxCell id="pqt3TSG40STBLUcrg_S9-1" parent="pqt3TSG40STBLUcrg_S9-0"/>
                <mxCell id="pqt3TSG40STBLUcrg_S9-2" value="90" style="whiteSpace=wrap;html=1;aspect=fixed;fontFamily=Fira Code;" parent="pqt3TSG40STBLUcrg_S9-1" vertex="1">
                    <mxGeometry x="340" y="40" width="40" height="40" as="geometry"/>
                </mxCell>
                <mxCell id="pqt3TSG40STBLUcrg_S9-3" style="edgeStyle=none;rounded=0;orthogonalLoop=1;jettySize=auto;html=1;exitX=0;exitY=1;exitDx=0;exitDy=0;entryX=0.5;entryY=0;entryDx=0;entryDy=0;endArrow=none;endFill=0;fontFamily=Fira Code;" parent="pqt3TSG40STBLUcrg_S9-1" source="pqt3TSG40STBLUcrg_S9-4" target="pqt3TSG40STBLUcrg_S9-7" edge="1">
                    <mxGeometry relative="1" as="geometry"/>
                </mxCell>
                <mxCell id="pqt3TSG40STBLUcrg_S9-4" value="" style="whiteSpace=wrap;html=1;aspect=fixed;fontFamily=Fira Code;" parent="pqt3TSG40STBLUcrg_S9-1" vertex="1">
                    <mxGeometry x="380" y="40" width="40" height="40" as="geometry"/>
                </mxCell>
                <mxCell id="pqt3TSG40STBLUcrg_S9-5" value="" style="whiteSpace=wrap;html=1;aspect=fixed;fontFamily=Fira Code;" parent="pqt3TSG40STBLUcrg_S9-1" vertex="1">
                    <mxGeometry x="420" y="40" width="40" height="40" as="geometry"/>
                </mxCell>
                <mxCell id="pqt3TSG40STBLUcrg_S9-6" value="100" style="whiteSpace=wrap;html=1;aspect=fixed;fontFamily=Fira Code;" parent="pqt3TSG40STBLUcrg_S9-1" vertex="1">
                    <mxGeometry x="260" y="120" width="40" height="40" as="geometry"/>
                </mxCell>
                <mxCell id="pqt3TSG40STBLUcrg_S9-7" value="" style="whiteSpace=wrap;html=1;aspect=fixed;fontFamily=Fira Code;" parent="pqt3TSG40STBLUcrg_S9-1" vertex="1">
                    <mxGeometry x="300" y="120" width="40" height="40" as="geometry"/>
                </mxCell>
                <mxCell id="pqt3TSG40STBLUcrg_S9-8" value="" style="whiteSpace=wrap;html=1;aspect=fixed;fontFamily=Fira Code;" parent="pqt3TSG40STBLUcrg_S9-1" vertex="1">
                    <mxGeometry x="340" y="120" width="40" height="40" as="geometry"/>
                </mxCell>
                <mxCell id="pqt3TSG40STBLUcrg_S9-9" value="70" style="whiteSpace=wrap;html=1;aspect=fixed;fontFamily=Fira Code;" parent="pqt3TSG40STBLUcrg_S9-1" vertex="1">
                    <mxGeometry x="100" y="120" width="40" height="40" as="geometry"/>
                </mxCell>
                <mxCell id="pqt3TSG40STBLUcrg_S9-10" value="80" style="whiteSpace=wrap;html=1;aspect=fixed;fontFamily=Fira Code;" parent="pqt3TSG40STBLUcrg_S9-1" vertex="1">
                    <mxGeometry x="140" y="120" width="40" height="40" as="geometry"/>
                </mxCell>
                <mxCell id="pqt3TSG40STBLUcrg_S9-11" style="edgeStyle=none;rounded=0;orthogonalLoop=1;jettySize=auto;html=1;exitX=0.5;exitY=0;exitDx=0;exitDy=0;entryX=0;entryY=1;entryDx=0;entryDy=0;endArrow=none;endFill=0;fontFamily=Fira Code;" parent="pqt3TSG40STBLUcrg_S9-1" source="pqt3TSG40STBLUcrg_S9-10" target="pqt3TSG40STBLUcrg_S9-2" edge="1">
                    <mxGeometry relative="1" as="geometry"/>
                </mxCell>
                <mxCell id="pqt3TSG40STBLUcrg_S9-12" value="" style="whiteSpace=wrap;html=1;aspect=fixed;fontFamily=Fira Code;" parent="pqt3TSG40STBLUcrg_S9-1" vertex="1">
                    <mxGeometry x="180" y="120" width="40" height="40" as="geometry"/>
                </mxCell>
            </root>
        </mxGraphModel>
    </diagram>
    <diagram name="Copy of Copy of Copy of Copy of Copy of Copy of Copy of Copy of Page-1" id="3EOTEwsqeQWUE71wXiee">
        <mxGraphModel dx="1402" dy="860" grid="1" gridSize="10" guides="1" tooltips="1" connect="1" arrows="1" fold="1" page="1" pageScale="1" pageWidth="800" pageHeight="800" math="0" shadow="0">
            <root>
                <mxCell id="wRC4KBA27ZY3poIhggW_-0"/>
                <mxCell id="wRC4KBA27ZY3poIhggW_-1" parent="wRC4KBA27ZY3poIhggW_-0"/>
                <mxCell id="wRC4KBA27ZY3poIhggW_-2" value="90" style="whiteSpace=wrap;html=1;aspect=fixed;fontFamily=Fira Code;" parent="wRC4KBA27ZY3poIhggW_-1" vertex="1">
                    <mxGeometry x="340" y="40" width="40" height="40" as="geometry"/>
                </mxCell>
                <mxCell id="wRC4KBA27ZY3poIhggW_-3" style="edgeStyle=none;rounded=0;orthogonalLoop=1;jettySize=auto;html=1;exitX=0;exitY=1;exitDx=0;exitDy=0;entryX=0.5;entryY=0;entryDx=0;entryDy=0;endArrow=none;endFill=0;fontFamily=Fira Code;" parent="wRC4KBA27ZY3poIhggW_-1" source="wRC4KBA27ZY3poIhggW_-4" target="wRC4KBA27ZY3poIhggW_-7" edge="1">
                    <mxGeometry relative="1" as="geometry"/>
                </mxCell>
                <mxCell id="wRC4KBA27ZY3poIhggW_-4" value="" style="whiteSpace=wrap;html=1;aspect=fixed;fontFamily=Fira Code;" parent="wRC4KBA27ZY3poIhggW_-1" vertex="1">
                    <mxGeometry x="380" y="40" width="40" height="40" as="geometry"/>
                </mxCell>
                <mxCell id="wRC4KBA27ZY3poIhggW_-5" value="" style="whiteSpace=wrap;html=1;aspect=fixed;fontFamily=Fira Code;" parent="wRC4KBA27ZY3poIhggW_-1" vertex="1">
                    <mxGeometry x="420" y="40" width="40" height="40" as="geometry"/>
                </mxCell>
                <mxCell id="wRC4KBA27ZY3poIhggW_-6" value="100" style="whiteSpace=wrap;html=1;aspect=fixed;fontFamily=Fira Code;" parent="wRC4KBA27ZY3poIhggW_-1" vertex="1">
                    <mxGeometry x="260" y="120" width="40" height="40" as="geometry"/>
                </mxCell>
                <mxCell id="wRC4KBA27ZY3poIhggW_-7" value="" style="whiteSpace=wrap;html=1;aspect=fixed;fontFamily=Fira Code;" parent="wRC4KBA27ZY3poIhggW_-1" vertex="1">
                    <mxGeometry x="300" y="120" width="40" height="40" as="geometry"/>
                </mxCell>
                <mxCell id="wRC4KBA27ZY3poIhggW_-8" value="" style="whiteSpace=wrap;html=1;aspect=fixed;fontFamily=Fira Code;" parent="wRC4KBA27ZY3poIhggW_-1" vertex="1">
                    <mxGeometry x="340" y="120" width="40" height="40" as="geometry"/>
                </mxCell>
                <mxCell id="wRC4KBA27ZY3poIhggW_-9" value="60" style="whiteSpace=wrap;html=1;aspect=fixed;fontFamily=Fira Code;" parent="wRC4KBA27ZY3poIhggW_-1" vertex="1">
                    <mxGeometry x="100" y="120" width="40" height="40" as="geometry"/>
                </mxCell>
                <mxCell id="wRC4KBA27ZY3poIhggW_-10" value="70" style="whiteSpace=wrap;html=1;aspect=fixed;fontFamily=Fira Code;" parent="wRC4KBA27ZY3poIhggW_-1" vertex="1">
                    <mxGeometry x="140" y="120" width="40" height="40" as="geometry"/>
                </mxCell>
                <mxCell id="wRC4KBA27ZY3poIhggW_-11" style="edgeStyle=none;rounded=0;orthogonalLoop=1;jettySize=auto;html=1;exitX=0.5;exitY=0;exitDx=0;exitDy=0;entryX=0;entryY=1;entryDx=0;entryDy=0;endArrow=none;endFill=0;fontFamily=Fira Code;" parent="wRC4KBA27ZY3poIhggW_-1" source="wRC4KBA27ZY3poIhggW_-10" target="wRC4KBA27ZY3poIhggW_-2" edge="1">
                    <mxGeometry relative="1" as="geometry"/>
                </mxCell>
                <mxCell id="wRC4KBA27ZY3poIhggW_-12" value="80" style="whiteSpace=wrap;html=1;aspect=fixed;fontFamily=Fira Code;" parent="wRC4KBA27ZY3poIhggW_-1" vertex="1">
                    <mxGeometry x="180" y="120" width="40" height="40" as="geometry"/>
                </mxCell>
            </root>
        </mxGraphModel>
    </diagram>
    <diagram name="Copy of Copy of Copy of Copy of Copy of Copy of Copy of Copy of Copy of Page-1" id="VdrzoGXt16q_OJIabiE0">
        <mxGraphModel dx="1402" dy="860" grid="1" gridSize="10" guides="1" tooltips="1" connect="1" arrows="1" fold="1" page="1" pageScale="1" pageWidth="800" pageHeight="800" math="0" shadow="0">
            <root>
                <mxCell id="t6dqmarWzVlhBgL8yrYM-0"/>
                <mxCell id="t6dqmarWzVlhBgL8yrYM-1" parent="t6dqmarWzVlhBgL8yrYM-0"/>
                <mxCell id="t6dqmarWzVlhBgL8yrYM-2" value="70" style="whiteSpace=wrap;html=1;aspect=fixed;fontFamily=Fira Code;" parent="t6dqmarWzVlhBgL8yrYM-1" vertex="1">
                    <mxGeometry x="340" y="40" width="40" height="40" as="geometry"/>
                </mxCell>
                <mxCell id="t6dqmarWzVlhBgL8yrYM-3" style="edgeStyle=none;rounded=0;orthogonalLoop=1;jettySize=auto;html=1;exitX=0;exitY=1;exitDx=0;exitDy=0;entryX=0.5;entryY=0;entryDx=0;entryDy=0;endArrow=none;endFill=0;fontFamily=Fira Code;" parent="t6dqmarWzVlhBgL8yrYM-1" source="t6dqmarWzVlhBgL8yrYM-4" target="t6dqmarWzVlhBgL8yrYM-7" edge="1">
                    <mxGeometry relative="1" as="geometry"/>
                </mxCell>
                <mxCell id="t6dqmarWzVlhBgL8yrYM-4" value="90" style="whiteSpace=wrap;html=1;aspect=fixed;fontFamily=Fira Code;" parent="t6dqmarWzVlhBgL8yrYM-1" vertex="1">
                    <mxGeometry x="380" y="40" width="40" height="40" as="geometry"/>
                </mxCell>
                <mxCell id="t6dqmarWzVlhBgL8yrYM-5" value="" style="whiteSpace=wrap;html=1;aspect=fixed;fontFamily=Fira Code;" parent="t6dqmarWzVlhBgL8yrYM-1" vertex="1">
                    <mxGeometry x="420" y="40" width="40" height="40" as="geometry"/>
                </mxCell>
                <mxCell id="t6dqmarWzVlhBgL8yrYM-6" value="100" style="whiteSpace=wrap;html=1;aspect=fixed;fontFamily=Fira Code;" parent="t6dqmarWzVlhBgL8yrYM-1" vertex="1">
                    <mxGeometry x="260" y="120" width="40" height="40" as="geometry"/>
                </mxCell>
                <mxCell id="t6dqmarWzVlhBgL8yrYM-7" value="" style="whiteSpace=wrap;html=1;aspect=fixed;fontFamily=Fira Code;" parent="t6dqmarWzVlhBgL8yrYM-1" vertex="1">
                    <mxGeometry x="300" y="120" width="40" height="40" as="geometry"/>
                </mxCell>
                <mxCell id="t6dqmarWzVlhBgL8yrYM-8" value="" style="whiteSpace=wrap;html=1;aspect=fixed;fontFamily=Fira Code;" parent="t6dqmarWzVlhBgL8yrYM-1" vertex="1">
                    <mxGeometry x="340" y="120" width="40" height="40" as="geometry"/>
                </mxCell>
                <mxCell id="t6dqmarWzVlhBgL8yrYM-9" value="60" style="whiteSpace=wrap;html=1;aspect=fixed;fontFamily=Fira Code;" parent="t6dqmarWzVlhBgL8yrYM-1" vertex="1">
                    <mxGeometry x="100" y="120" width="40" height="40" as="geometry"/>
                </mxCell>
                <mxCell id="t6dqmarWzVlhBgL8yrYM-10" value="80" style="whiteSpace=wrap;html=1;aspect=fixed;fontFamily=Fira Code;" parent="t6dqmarWzVlhBgL8yrYM-1" vertex="1">
                    <mxGeometry x="140" y="120" width="40" height="40" as="geometry"/>
                </mxCell>
                <mxCell id="t6dqmarWzVlhBgL8yrYM-11" style="edgeStyle=none;rounded=0;orthogonalLoop=1;jettySize=auto;html=1;exitX=0.5;exitY=0;exitDx=0;exitDy=0;entryX=0;entryY=1;entryDx=0;entryDy=0;endArrow=none;endFill=0;fontFamily=Fira Code;" parent="t6dqmarWzVlhBgL8yrYM-1" source="t6dqmarWzVlhBgL8yrYM-10" target="t6dqmarWzVlhBgL8yrYM-2" edge="1">
                    <mxGeometry relative="1" as="geometry"/>
                </mxCell>
                <mxCell id="t6dqmarWzVlhBgL8yrYM-12" value="" style="whiteSpace=wrap;html=1;aspect=fixed;fontFamily=Fira Code;" parent="t6dqmarWzVlhBgL8yrYM-1" vertex="1">
                    <mxGeometry x="180" y="120" width="40" height="40" as="geometry"/>
                </mxCell>
            </root>
        </mxGraphModel>
    </diagram>
    <diagram name="Copy of Copy of Copy of Copy of Copy of Copy of Copy of Copy of Copy of Page-1" id="Hm9ROhXuhnc7z289IFey">
        <mxGraphModel dx="1402" dy="860" grid="1" gridSize="10" guides="1" tooltips="1" connect="1" arrows="1" fold="1" page="1" pageScale="1" pageWidth="800" pageHeight="800" math="0" shadow="0">
            <root>
                <mxCell id="i5v70wCP1fQEl1rICfPP-0"/>
                <mxCell id="i5v70wCP1fQEl1rICfPP-1" parent="i5v70wCP1fQEl1rICfPP-0"/>
                <mxCell id="i5v70wCP1fQEl1rICfPP-2" value="70" style="whiteSpace=wrap;html=1;aspect=fixed;fontFamily=Fira Code;" parent="i5v70wCP1fQEl1rICfPP-1" vertex="1">
                    <mxGeometry x="340" y="40" width="40" height="40" as="geometry"/>
                </mxCell>
                <mxCell id="i5v70wCP1fQEl1rICfPP-3" style="edgeStyle=none;rounded=0;orthogonalLoop=1;jettySize=auto;html=1;exitX=0;exitY=1;exitDx=0;exitDy=0;entryX=0.5;entryY=0;entryDx=0;entryDy=0;endArrow=none;endFill=0;fontFamily=Fira Code;" parent="i5v70wCP1fQEl1rICfPP-1" source="i5v70wCP1fQEl1rICfPP-4" target="i5v70wCP1fQEl1rICfPP-7" edge="1">
                    <mxGeometry relative="1" as="geometry"/>
                </mxCell>
                <mxCell id="i5v70wCP1fQEl1rICfPP-4" value="90" style="whiteSpace=wrap;html=1;aspect=fixed;fontFamily=Fira Code;" parent="i5v70wCP1fQEl1rICfPP-1" vertex="1">
                    <mxGeometry x="380" y="40" width="40" height="40" as="geometry"/>
                </mxCell>
                <mxCell id="amsC_3B3GzqNzgJzStpI-3" style="edgeStyle=none;rounded=0;orthogonalLoop=1;jettySize=auto;html=1;exitX=0;exitY=1;exitDx=0;exitDy=0;entryX=0.5;entryY=0;entryDx=0;entryDy=0;endArrow=none;endFill=0;" parent="i5v70wCP1fQEl1rICfPP-1" source="i5v70wCP1fQEl1rICfPP-5" target="amsC_3B3GzqNzgJzStpI-1" edge="1">
                    <mxGeometry relative="1" as="geometry"/>
                </mxCell>
                <mxCell id="i5v70wCP1fQEl1rICfPP-5" value="" style="whiteSpace=wrap;html=1;aspect=fixed;fontFamily=Fira Code;" parent="i5v70wCP1fQEl1rICfPP-1" vertex="1">
                    <mxGeometry x="420" y="40" width="40" height="40" as="geometry"/>
                </mxCell>
                <mxCell id="i5v70wCP1fQEl1rICfPP-6" value="100" style="whiteSpace=wrap;html=1;aspect=fixed;fontFamily=Fira Code;" parent="i5v70wCP1fQEl1rICfPP-1" vertex="1">
                    <mxGeometry x="260" y="120" width="40" height="40" as="geometry"/>
                </mxCell>
                <mxCell id="i5v70wCP1fQEl1rICfPP-7" value="" style="whiteSpace=wrap;html=1;aspect=fixed;fontFamily=Fira Code;" parent="i5v70wCP1fQEl1rICfPP-1" vertex="1">
                    <mxGeometry x="300" y="120" width="40" height="40" as="geometry"/>
                </mxCell>
                <mxCell id="i5v70wCP1fQEl1rICfPP-8" value="" style="whiteSpace=wrap;html=1;aspect=fixed;fontFamily=Fira Code;" parent="i5v70wCP1fQEl1rICfPP-1" vertex="1">
                    <mxGeometry x="340" y="120" width="40" height="40" as="geometry"/>
                </mxCell>
                <mxCell id="i5v70wCP1fQEl1rICfPP-9" value="60" style="whiteSpace=wrap;html=1;aspect=fixed;fontFamily=Fira Code;" parent="i5v70wCP1fQEl1rICfPP-1" vertex="1">
                    <mxGeometry x="100" y="120" width="40" height="40" as="geometry"/>
                </mxCell>
                <mxCell id="i5v70wCP1fQEl1rICfPP-10" value="80" style="whiteSpace=wrap;html=1;aspect=fixed;fontFamily=Fira Code;" parent="i5v70wCP1fQEl1rICfPP-1" vertex="1">
                    <mxGeometry x="140" y="120" width="40" height="40" as="geometry"/>
                </mxCell>
                <mxCell id="i5v70wCP1fQEl1rICfPP-11" style="edgeStyle=none;rounded=0;orthogonalLoop=1;jettySize=auto;html=1;exitX=0.5;exitY=0;exitDx=0;exitDy=0;entryX=0;entryY=1;entryDx=0;entryDy=0;endArrow=none;endFill=0;fontFamily=Fira Code;" parent="i5v70wCP1fQEl1rICfPP-1" source="i5v70wCP1fQEl1rICfPP-10" target="i5v70wCP1fQEl1rICfPP-2" edge="1">
                    <mxGeometry relative="1" as="geometry"/>
                </mxCell>
                <mxCell id="i5v70wCP1fQEl1rICfPP-12" value="" style="whiteSpace=wrap;html=1;aspect=fixed;fontFamily=Fira Code;" parent="i5v70wCP1fQEl1rICfPP-1" vertex="1">
                    <mxGeometry x="180" y="120" width="40" height="40" as="geometry"/>
                </mxCell>
                <mxCell id="amsC_3B3GzqNzgJzStpI-0" value="" style="whiteSpace=wrap;html=1;aspect=fixed;fontFamily=Fira Code;" parent="i5v70wCP1fQEl1rICfPP-1" vertex="1">
                    <mxGeometry x="420" y="120" width="40" height="40" as="geometry"/>
                </mxCell>
                <mxCell id="amsC_3B3GzqNzgJzStpI-1" value="" style="whiteSpace=wrap;html=1;aspect=fixed;fontFamily=Fira Code;" parent="i5v70wCP1fQEl1rICfPP-1" vertex="1">
                    <mxGeometry x="460" y="120" width="40" height="40" as="geometry"/>
                </mxCell>
                <mxCell id="amsC_3B3GzqNzgJzStpI-2" value="" style="whiteSpace=wrap;html=1;aspect=fixed;fontFamily=Fira Code;" parent="i5v70wCP1fQEl1rICfPP-1" vertex="1">
                    <mxGeometry x="500" y="120" width="40" height="40" as="geometry"/>
                </mxCell>
            </root>
        </mxGraphModel>
    </diagram>
    <diagram name="Copy of Copy of Copy of Copy of Copy of Copy of Copy of Copy of Copy of Copy of Page-1" id="RQizbuWZ3rAl1cpsCdTU">
        <mxGraphModel dx="1402" dy="860" grid="1" gridSize="10" guides="1" tooltips="1" connect="1" arrows="1" fold="1" page="1" pageScale="1" pageWidth="800" pageHeight="800" math="0" shadow="0">
            <root>
                <mxCell id="HdWWrTZc4V7aOWr2yO7K-0"/>
                <mxCell id="HdWWrTZc4V7aOWr2yO7K-1" parent="HdWWrTZc4V7aOWr2yO7K-0"/>
                <mxCell id="HdWWrTZc4V7aOWr2yO7K-2" value="70" style="whiteSpace=wrap;html=1;aspect=fixed;fontFamily=Fira Code;" parent="HdWWrTZc4V7aOWr2yO7K-1" vertex="1">
                    <mxGeometry x="340" y="40" width="40" height="40" as="geometry"/>
                </mxCell>
                <mxCell id="HdWWrTZc4V7aOWr2yO7K-3" style="edgeStyle=none;rounded=0;orthogonalLoop=1;jettySize=auto;html=1;exitX=0;exitY=1;exitDx=0;exitDy=0;entryX=0.5;entryY=0;entryDx=0;entryDy=0;endArrow=none;endFill=0;fontFamily=Fira Code;" parent="HdWWrTZc4V7aOWr2yO7K-1" source="HdWWrTZc4V7aOWr2yO7K-4" target="HdWWrTZc4V7aOWr2yO7K-8" edge="1">
                    <mxGeometry relative="1" as="geometry"/>
                </mxCell>
                <mxCell id="HdWWrTZc4V7aOWr2yO7K-4" value="90" style="whiteSpace=wrap;html=1;aspect=fixed;fontFamily=Fira Code;" parent="HdWWrTZc4V7aOWr2yO7K-1" vertex="1">
                    <mxGeometry x="380" y="40" width="40" height="40" as="geometry"/>
                </mxCell>
                <mxCell id="HdWWrTZc4V7aOWr2yO7K-5" style="edgeStyle=none;rounded=0;orthogonalLoop=1;jettySize=auto;html=1;exitX=0;exitY=1;exitDx=0;exitDy=0;entryX=0.5;entryY=0;entryDx=0;entryDy=0;endArrow=none;endFill=0;" parent="HdWWrTZc4V7aOWr2yO7K-1" source="HdWWrTZc4V7aOWr2yO7K-6" target="HdWWrTZc4V7aOWr2yO7K-15" edge="1">
                    <mxGeometry relative="1" as="geometry"/>
                </mxCell>
                <mxCell id="HdWWrTZc4V7aOWr2yO7K-6" value="" style="whiteSpace=wrap;html=1;aspect=fixed;fontFamily=Fira Code;" parent="HdWWrTZc4V7aOWr2yO7K-1" vertex="1">
                    <mxGeometry x="420" y="40" width="40" height="40" as="geometry"/>
                </mxCell>
                <mxCell id="HdWWrTZc4V7aOWr2yO7K-7" value="" style="whiteSpace=wrap;html=1;aspect=fixed;fontFamily=Fira Code;" parent="HdWWrTZc4V7aOWr2yO7K-1" vertex="1">
                    <mxGeometry x="260" y="120" width="40" height="40" as="geometry"/>
                </mxCell>
                <mxCell id="HdWWrTZc4V7aOWr2yO7K-8" value="" style="whiteSpace=wrap;html=1;aspect=fixed;fontFamily=Fira Code;" parent="HdWWrTZc4V7aOWr2yO7K-1" vertex="1">
                    <mxGeometry x="300" y="120" width="40" height="40" as="geometry"/>
                </mxCell>
                <mxCell id="HdWWrTZc4V7aOWr2yO7K-9" value="" style="whiteSpace=wrap;html=1;aspect=fixed;fontFamily=Fira Code;" parent="HdWWrTZc4V7aOWr2yO7K-1" vertex="1">
                    <mxGeometry x="340" y="120" width="40" height="40" as="geometry"/>
                </mxCell>
                <mxCell id="HdWWrTZc4V7aOWr2yO7K-10" value="60" style="whiteSpace=wrap;html=1;aspect=fixed;fontFamily=Fira Code;" parent="HdWWrTZc4V7aOWr2yO7K-1" vertex="1">
                    <mxGeometry x="100" y="120" width="40" height="40" as="geometry"/>
                </mxCell>
                <mxCell id="HdWWrTZc4V7aOWr2yO7K-11" value="80" style="whiteSpace=wrap;html=1;aspect=fixed;fontFamily=Fira Code;" parent="HdWWrTZc4V7aOWr2yO7K-1" vertex="1">
                    <mxGeometry x="140" y="120" width="40" height="40" as="geometry"/>
                </mxCell>
                <mxCell id="HdWWrTZc4V7aOWr2yO7K-12" style="edgeStyle=none;rounded=0;orthogonalLoop=1;jettySize=auto;html=1;exitX=0.5;exitY=0;exitDx=0;exitDy=0;entryX=0;entryY=1;entryDx=0;entryDy=0;endArrow=none;endFill=0;fontFamily=Fira Code;" parent="HdWWrTZc4V7aOWr2yO7K-1" source="HdWWrTZc4V7aOWr2yO7K-11" target="HdWWrTZc4V7aOWr2yO7K-2" edge="1">
                    <mxGeometry relative="1" as="geometry"/>
                </mxCell>
                <mxCell id="HdWWrTZc4V7aOWr2yO7K-13" value="" style="whiteSpace=wrap;html=1;aspect=fixed;fontFamily=Fira Code;" parent="HdWWrTZc4V7aOWr2yO7K-1" vertex="1">
                    <mxGeometry x="180" y="120" width="40" height="40" as="geometry"/>
                </mxCell>
                <mxCell id="HdWWrTZc4V7aOWr2yO7K-14" value="100" style="whiteSpace=wrap;html=1;aspect=fixed;fontFamily=Fira Code;" parent="HdWWrTZc4V7aOWr2yO7K-1" vertex="1">
                    <mxGeometry x="420" y="120" width="40" height="40" as="geometry"/>
                </mxCell>
                <mxCell id="HdWWrTZc4V7aOWr2yO7K-15" value="" style="whiteSpace=wrap;html=1;aspect=fixed;fontFamily=Fira Code;" parent="HdWWrTZc4V7aOWr2yO7K-1" vertex="1">
                    <mxGeometry x="460" y="120" width="40" height="40" as="geometry"/>
                </mxCell>
                <mxCell id="HdWWrTZc4V7aOWr2yO7K-16" value="" style="whiteSpace=wrap;html=1;aspect=fixed;fontFamily=Fira Code;" parent="HdWWrTZc4V7aOWr2yO7K-1" vertex="1">
                    <mxGeometry x="500" y="120" width="40" height="40" as="geometry"/>
                </mxCell>
            </root>
        </mxGraphModel>
    </diagram>
    <diagram name="Copy of Copy of Copy of Copy of Copy of Copy of Copy of Copy of Copy of Copy of Copy of Page-1" id="5-F972NmvsREZh4MHUc5">
        <mxGraphModel dx="1402" dy="860" grid="1" gridSize="10" guides="1" tooltips="1" connect="1" arrows="1" fold="1" page="1" pageScale="1" pageWidth="800" pageHeight="800" math="0" shadow="0">
            <root>
                <mxCell id="Y9A-0eFJOJwpXkEEePpJ-0"/>
                <mxCell id="Y9A-0eFJOJwpXkEEePpJ-1" parent="Y9A-0eFJOJwpXkEEePpJ-0"/>
                <mxCell id="Y9A-0eFJOJwpXkEEePpJ-2" value="70" style="whiteSpace=wrap;html=1;aspect=fixed;fontFamily=Fira Code;" parent="Y9A-0eFJOJwpXkEEePpJ-1" vertex="1">
                    <mxGeometry x="340" y="40" width="40" height="40" as="geometry"/>
                </mxCell>
                <mxCell id="Y9A-0eFJOJwpXkEEePpJ-3" style="edgeStyle=none;rounded=0;orthogonalLoop=1;jettySize=auto;html=1;exitX=0;exitY=1;exitDx=0;exitDy=0;entryX=0.5;entryY=0;entryDx=0;entryDy=0;endArrow=none;endFill=0;fontFamily=Fira Code;" parent="Y9A-0eFJOJwpXkEEePpJ-1" source="Y9A-0eFJOJwpXkEEePpJ-4" target="Y9A-0eFJOJwpXkEEePpJ-8" edge="1">
                    <mxGeometry relative="1" as="geometry"/>
                </mxCell>
                <mxCell id="Y9A-0eFJOJwpXkEEePpJ-4" value="90" style="whiteSpace=wrap;html=1;aspect=fixed;fontFamily=Fira Code;" parent="Y9A-0eFJOJwpXkEEePpJ-1" vertex="1">
                    <mxGeometry x="380" y="40" width="40" height="40" as="geometry"/>
                </mxCell>
                <mxCell id="Y9A-0eFJOJwpXkEEePpJ-5" style="edgeStyle=none;rounded=0;orthogonalLoop=1;jettySize=auto;html=1;exitX=0;exitY=1;exitDx=0;exitDy=0;entryX=0.5;entryY=0;entryDx=0;entryDy=0;endArrow=none;endFill=0;" parent="Y9A-0eFJOJwpXkEEePpJ-1" source="Y9A-0eFJOJwpXkEEePpJ-6" target="Y9A-0eFJOJwpXkEEePpJ-15" edge="1">
                    <mxGeometry relative="1" as="geometry"/>
                </mxCell>
                <mxCell id="Y9A-0eFJOJwpXkEEePpJ-6" value="" style="whiteSpace=wrap;html=1;aspect=fixed;fontFamily=Fira Code;" parent="Y9A-0eFJOJwpXkEEePpJ-1" vertex="1">
                    <mxGeometry x="420" y="40" width="40" height="40" as="geometry"/>
                </mxCell>
                <mxCell id="Y9A-0eFJOJwpXkEEePpJ-7" value="80" style="whiteSpace=wrap;html=1;aspect=fixed;fontFamily=Fira Code;" parent="Y9A-0eFJOJwpXkEEePpJ-1" vertex="1">
                    <mxGeometry x="260" y="120" width="40" height="40" as="geometry"/>
                </mxCell>
                <mxCell id="Y9A-0eFJOJwpXkEEePpJ-8" value="" style="whiteSpace=wrap;html=1;aspect=fixed;fontFamily=Fira Code;" parent="Y9A-0eFJOJwpXkEEePpJ-1" vertex="1">
                    <mxGeometry x="300" y="120" width="40" height="40" as="geometry"/>
                </mxCell>
                <mxCell id="Y9A-0eFJOJwpXkEEePpJ-9" value="" style="whiteSpace=wrap;html=1;aspect=fixed;fontFamily=Fira Code;" parent="Y9A-0eFJOJwpXkEEePpJ-1" vertex="1">
                    <mxGeometry x="340" y="120" width="40" height="40" as="geometry"/>
                </mxCell>
                <mxCell id="Y9A-0eFJOJwpXkEEePpJ-10" value="60" style="whiteSpace=wrap;html=1;aspect=fixed;fontFamily=Fira Code;" parent="Y9A-0eFJOJwpXkEEePpJ-1" vertex="1">
                    <mxGeometry x="100" y="120" width="40" height="40" as="geometry"/>
                </mxCell>
                <mxCell id="Y9A-0eFJOJwpXkEEePpJ-11" value="" style="whiteSpace=wrap;html=1;aspect=fixed;fontFamily=Fira Code;" parent="Y9A-0eFJOJwpXkEEePpJ-1" vertex="1">
                    <mxGeometry x="140" y="120" width="40" height="40" as="geometry"/>
                </mxCell>
                <mxCell id="Y9A-0eFJOJwpXkEEePpJ-12" style="edgeStyle=none;rounded=0;orthogonalLoop=1;jettySize=auto;html=1;exitX=0.5;exitY=0;exitDx=0;exitDy=0;entryX=0;entryY=1;entryDx=0;entryDy=0;endArrow=none;endFill=0;fontFamily=Fira Code;" parent="Y9A-0eFJOJwpXkEEePpJ-1" source="Y9A-0eFJOJwpXkEEePpJ-11" target="Y9A-0eFJOJwpXkEEePpJ-2" edge="1">
                    <mxGeometry relative="1" as="geometry"/>
                </mxCell>
                <mxCell id="Y9A-0eFJOJwpXkEEePpJ-13" value="" style="whiteSpace=wrap;html=1;aspect=fixed;fontFamily=Fira Code;" parent="Y9A-0eFJOJwpXkEEePpJ-1" vertex="1">
                    <mxGeometry x="180" y="120" width="40" height="40" as="geometry"/>
                </mxCell>
                <mxCell id="Y9A-0eFJOJwpXkEEePpJ-14" value="100" style="whiteSpace=wrap;html=1;aspect=fixed;fontFamily=Fira Code;" parent="Y9A-0eFJOJwpXkEEePpJ-1" vertex="1">
                    <mxGeometry x="420" y="120" width="40" height="40" as="geometry"/>
                </mxCell>
                <mxCell id="Y9A-0eFJOJwpXkEEePpJ-15" value="" style="whiteSpace=wrap;html=1;aspect=fixed;fontFamily=Fira Code;" parent="Y9A-0eFJOJwpXkEEePpJ-1" vertex="1">
                    <mxGeometry x="460" y="120" width="40" height="40" as="geometry"/>
                </mxCell>
                <mxCell id="Y9A-0eFJOJwpXkEEePpJ-16" value="" style="whiteSpace=wrap;html=1;aspect=fixed;fontFamily=Fira Code;" parent="Y9A-0eFJOJwpXkEEePpJ-1" vertex="1">
                    <mxGeometry x="500" y="120" width="40" height="40" as="geometry"/>
                </mxCell>
            </root>
        </mxGraphModel>
    </diagram>
    <diagram name="Copy of Copy of Copy of Copy of Copy of Copy of Copy of Copy of Copy of Copy of Copy of Copy of Page-1" id="HKnXjg6UY7eOvAxCKWu7">
        <mxGraphModel dx="1402" dy="860" grid="1" gridSize="10" guides="1" tooltips="1" connect="1" arrows="1" fold="1" page="1" pageScale="1" pageWidth="800" pageHeight="800" math="0" shadow="0">
            <root>
                <mxCell id="oYTmvsIsP3dxs6yBIfLY-0"/>
                <mxCell id="oYTmvsIsP3dxs6yBIfLY-1" parent="oYTmvsIsP3dxs6yBIfLY-0"/>
                <mxCell id="oYTmvsIsP3dxs6yBIfLY-2" value="70" style="whiteSpace=wrap;html=1;aspect=fixed;fontFamily=Fira Code;" parent="oYTmvsIsP3dxs6yBIfLY-1" vertex="1">
                    <mxGeometry x="340" y="40" width="40" height="40" as="geometry"/>
                </mxCell>
                <mxCell id="oYTmvsIsP3dxs6yBIfLY-3" style="edgeStyle=none;rounded=0;orthogonalLoop=1;jettySize=auto;html=1;exitX=0;exitY=1;exitDx=0;exitDy=0;entryX=0.5;entryY=0;entryDx=0;entryDy=0;endArrow=none;endFill=0;fontFamily=Fira Code;" parent="oYTmvsIsP3dxs6yBIfLY-1" source="oYTmvsIsP3dxs6yBIfLY-4" target="oYTmvsIsP3dxs6yBIfLY-8" edge="1">
                    <mxGeometry relative="1" as="geometry"/>
                </mxCell>
                <mxCell id="oYTmvsIsP3dxs6yBIfLY-4" value="90" style="whiteSpace=wrap;html=1;aspect=fixed;fontFamily=Fira Code;" parent="oYTmvsIsP3dxs6yBIfLY-1" vertex="1">
                    <mxGeometry x="380" y="40" width="40" height="40" as="geometry"/>
                </mxCell>
                <mxCell id="oYTmvsIsP3dxs6yBIfLY-5" style="edgeStyle=none;rounded=0;orthogonalLoop=1;jettySize=auto;html=1;exitX=0;exitY=1;exitDx=0;exitDy=0;entryX=0.5;entryY=0;entryDx=0;entryDy=0;endArrow=none;endFill=0;" parent="oYTmvsIsP3dxs6yBIfLY-1" source="oYTmvsIsP3dxs6yBIfLY-6" target="oYTmvsIsP3dxs6yBIfLY-15" edge="1">
                    <mxGeometry relative="1" as="geometry"/>
                </mxCell>
                <mxCell id="oYTmvsIsP3dxs6yBIfLY-6" value="" style="whiteSpace=wrap;html=1;aspect=fixed;fontFamily=Fira Code;" parent="oYTmvsIsP3dxs6yBIfLY-1" vertex="1">
                    <mxGeometry x="420" y="40" width="40" height="40" as="geometry"/>
                </mxCell>
                <mxCell id="oYTmvsIsP3dxs6yBIfLY-7" value="80" style="whiteSpace=wrap;html=1;aspect=fixed;fontFamily=Fira Code;" parent="oYTmvsIsP3dxs6yBIfLY-1" vertex="1">
                    <mxGeometry x="260" y="120" width="40" height="40" as="geometry"/>
                </mxCell>
                <mxCell id="oYTmvsIsP3dxs6yBIfLY-8" value="" style="whiteSpace=wrap;html=1;aspect=fixed;fontFamily=Fira Code;" parent="oYTmvsIsP3dxs6yBIfLY-1" vertex="1">
                    <mxGeometry x="300" y="120" width="40" height="40" as="geometry"/>
                </mxCell>
                <mxCell id="oYTmvsIsP3dxs6yBIfLY-9" value="" style="whiteSpace=wrap;html=1;aspect=fixed;fontFamily=Fira Code;" parent="oYTmvsIsP3dxs6yBIfLY-1" vertex="1">
                    <mxGeometry x="340" y="120" width="40" height="40" as="geometry"/>
                </mxCell>
                <mxCell id="oYTmvsIsP3dxs6yBIfLY-10" value="50" style="whiteSpace=wrap;html=1;aspect=fixed;fontFamily=Fira Code;" parent="oYTmvsIsP3dxs6yBIfLY-1" vertex="1">
                    <mxGeometry x="100" y="120" width="40" height="40" as="geometry"/>
                </mxCell>
                <mxCell id="oYTmvsIsP3dxs6yBIfLY-11" value="60" style="whiteSpace=wrap;html=1;aspect=fixed;fontFamily=Fira Code;" parent="oYTmvsIsP3dxs6yBIfLY-1" vertex="1">
                    <mxGeometry x="140" y="120" width="40" height="40" as="geometry"/>
                </mxCell>
                <mxCell id="oYTmvsIsP3dxs6yBIfLY-12" style="edgeStyle=none;rounded=0;orthogonalLoop=1;jettySize=auto;html=1;exitX=0.5;exitY=0;exitDx=0;exitDy=0;entryX=0;entryY=1;entryDx=0;entryDy=0;endArrow=none;endFill=0;fontFamily=Fira Code;" parent="oYTmvsIsP3dxs6yBIfLY-1" source="oYTmvsIsP3dxs6yBIfLY-11" target="oYTmvsIsP3dxs6yBIfLY-2" edge="1">
                    <mxGeometry relative="1" as="geometry"/>
                </mxCell>
                <mxCell id="oYTmvsIsP3dxs6yBIfLY-13" value="" style="whiteSpace=wrap;html=1;aspect=fixed;fontFamily=Fira Code;" parent="oYTmvsIsP3dxs6yBIfLY-1" vertex="1">
                    <mxGeometry x="180" y="120" width="40" height="40" as="geometry"/>
                </mxCell>
                <mxCell id="oYTmvsIsP3dxs6yBIfLY-14" value="100" style="whiteSpace=wrap;html=1;aspect=fixed;fontFamily=Fira Code;" parent="oYTmvsIsP3dxs6yBIfLY-1" vertex="1">
                    <mxGeometry x="420" y="120" width="40" height="40" as="geometry"/>
                </mxCell>
                <mxCell id="oYTmvsIsP3dxs6yBIfLY-15" value="" style="whiteSpace=wrap;html=1;aspect=fixed;fontFamily=Fira Code;" parent="oYTmvsIsP3dxs6yBIfLY-1" vertex="1">
                    <mxGeometry x="460" y="120" width="40" height="40" as="geometry"/>
                </mxCell>
                <mxCell id="oYTmvsIsP3dxs6yBIfLY-16" value="" style="whiteSpace=wrap;html=1;aspect=fixed;fontFamily=Fira Code;" parent="oYTmvsIsP3dxs6yBIfLY-1" vertex="1">
                    <mxGeometry x="500" y="120" width="40" height="40" as="geometry"/>
                </mxCell>
            </root>
        </mxGraphModel>
    </diagram>
    <diagram name="Copy of Copy of Copy of Copy of Copy of Copy of Copy of Copy of Copy of Copy of Copy of Copy of Copy of Page-1" id="Bm1Wilyd4iFMjG41bFV7">
        <mxGraphModel dx="1402" dy="860" grid="1" gridSize="10" guides="1" tooltips="1" connect="1" arrows="1" fold="1" page="1" pageScale="1" pageWidth="800" pageHeight="800" math="0" shadow="0">
            <root>
                <mxCell id="gOSUWmOMsFUptR9iKVQc-0"/>
                <mxCell id="gOSUWmOMsFUptR9iKVQc-1" parent="gOSUWmOMsFUptR9iKVQc-0"/>
                <mxCell id="gOSUWmOMsFUptR9iKVQc-2" value="70" style="whiteSpace=wrap;html=1;aspect=fixed;fontFamily=Fira Code;" parent="gOSUWmOMsFUptR9iKVQc-1" vertex="1">
                    <mxGeometry x="340" y="40" width="40" height="40" as="geometry"/>
                </mxCell>
                <mxCell id="gOSUWmOMsFUptR9iKVQc-3" style="edgeStyle=none;rounded=0;orthogonalLoop=1;jettySize=auto;html=1;exitX=0;exitY=1;exitDx=0;exitDy=0;entryX=0.5;entryY=0;entryDx=0;entryDy=0;endArrow=none;endFill=0;fontFamily=Fira Code;" parent="gOSUWmOMsFUptR9iKVQc-1" source="gOSUWmOMsFUptR9iKVQc-4" target="gOSUWmOMsFUptR9iKVQc-8" edge="1">
                    <mxGeometry relative="1" as="geometry"/>
                </mxCell>
                <mxCell id="gOSUWmOMsFUptR9iKVQc-4" value="90" style="whiteSpace=wrap;html=1;aspect=fixed;fontFamily=Fira Code;" parent="gOSUWmOMsFUptR9iKVQc-1" vertex="1">
                    <mxGeometry x="380" y="40" width="40" height="40" as="geometry"/>
                </mxCell>
                <mxCell id="gOSUWmOMsFUptR9iKVQc-5" style="edgeStyle=none;rounded=0;orthogonalLoop=1;jettySize=auto;html=1;exitX=0;exitY=1;exitDx=0;exitDy=0;entryX=0.5;entryY=0;entryDx=0;entryDy=0;endArrow=none;endFill=0;" parent="gOSUWmOMsFUptR9iKVQc-1" source="gOSUWmOMsFUptR9iKVQc-6" target="gOSUWmOMsFUptR9iKVQc-15" edge="1">
                    <mxGeometry relative="1" as="geometry"/>
                </mxCell>
                <mxCell id="gOSUWmOMsFUptR9iKVQc-6" value="" style="whiteSpace=wrap;html=1;aspect=fixed;fontFamily=Fira Code;" parent="gOSUWmOMsFUptR9iKVQc-1" vertex="1">
                    <mxGeometry x="420" y="40" width="40" height="40" as="geometry"/>
                </mxCell>
                <mxCell id="gOSUWmOMsFUptR9iKVQc-7" value="80" style="whiteSpace=wrap;html=1;aspect=fixed;fontFamily=Fira Code;" parent="gOSUWmOMsFUptR9iKVQc-1" vertex="1">
                    <mxGeometry x="260" y="120" width="40" height="40" as="geometry"/>
                </mxCell>
                <mxCell id="gOSUWmOMsFUptR9iKVQc-8" value="" style="whiteSpace=wrap;html=1;aspect=fixed;fontFamily=Fira Code;" parent="gOSUWmOMsFUptR9iKVQc-1" vertex="1">
                    <mxGeometry x="300" y="120" width="40" height="40" as="geometry"/>
                </mxCell>
                <mxCell id="gOSUWmOMsFUptR9iKVQc-9" value="" style="whiteSpace=wrap;html=1;aspect=fixed;fontFamily=Fira Code;" parent="gOSUWmOMsFUptR9iKVQc-1" vertex="1">
                    <mxGeometry x="340" y="120" width="40" height="40" as="geometry"/>
                </mxCell>
                <mxCell id="gOSUWmOMsFUptR9iKVQc-10" value="40" style="whiteSpace=wrap;html=1;aspect=fixed;fontFamily=Fira Code;" parent="gOSUWmOMsFUptR9iKVQc-1" vertex="1">
                    <mxGeometry x="100" y="120" width="40" height="40" as="geometry"/>
                </mxCell>
                <mxCell id="gOSUWmOMsFUptR9iKVQc-11" value="50" style="whiteSpace=wrap;html=1;aspect=fixed;fontFamily=Fira Code;" parent="gOSUWmOMsFUptR9iKVQc-1" vertex="1">
                    <mxGeometry x="140" y="120" width="40" height="40" as="geometry"/>
                </mxCell>
                <mxCell id="gOSUWmOMsFUptR9iKVQc-12" style="edgeStyle=none;rounded=0;orthogonalLoop=1;jettySize=auto;html=1;exitX=0.5;exitY=0;exitDx=0;exitDy=0;entryX=0;entryY=1;entryDx=0;entryDy=0;endArrow=none;endFill=0;fontFamily=Fira Code;" parent="gOSUWmOMsFUptR9iKVQc-1" source="gOSUWmOMsFUptR9iKVQc-11" target="gOSUWmOMsFUptR9iKVQc-2" edge="1">
                    <mxGeometry relative="1" as="geometry"/>
                </mxCell>
                <mxCell id="gOSUWmOMsFUptR9iKVQc-13" value="60" style="whiteSpace=wrap;html=1;aspect=fixed;fontFamily=Fira Code;" parent="gOSUWmOMsFUptR9iKVQc-1" vertex="1">
                    <mxGeometry x="180" y="120" width="40" height="40" as="geometry"/>
                </mxCell>
                <mxCell id="gOSUWmOMsFUptR9iKVQc-14" value="100" style="whiteSpace=wrap;html=1;aspect=fixed;fontFamily=Fira Code;" parent="gOSUWmOMsFUptR9iKVQc-1" vertex="1">
                    <mxGeometry x="420" y="120" width="40" height="40" as="geometry"/>
                </mxCell>
                <mxCell id="gOSUWmOMsFUptR9iKVQc-15" value="" style="whiteSpace=wrap;html=1;aspect=fixed;fontFamily=Fira Code;" parent="gOSUWmOMsFUptR9iKVQc-1" vertex="1">
                    <mxGeometry x="460" y="120" width="40" height="40" as="geometry"/>
                </mxCell>
                <mxCell id="gOSUWmOMsFUptR9iKVQc-16" value="" style="whiteSpace=wrap;html=1;aspect=fixed;fontFamily=Fira Code;" parent="gOSUWmOMsFUptR9iKVQc-1" vertex="1">
                    <mxGeometry x="500" y="120" width="40" height="40" as="geometry"/>
                </mxCell>
            </root>
        </mxGraphModel>
    </diagram>
    <diagram name="Copy of Copy of Copy of Copy of Copy of Copy of Copy of Copy of Copy of Copy of Copy of Copy of Copy of Copy of Page-1" id="R_9hh-qbEZymixgr0Mbf">
        <mxGraphModel dx="1402" dy="860" grid="1" gridSize="10" guides="1" tooltips="1" connect="1" arrows="1" fold="1" page="1" pageScale="1" pageWidth="800" pageHeight="800" math="0" shadow="0">
            <root>
                <mxCell id="G3jahVtwOrPoX2eUSXmC-0"/>
                <mxCell id="G3jahVtwOrPoX2eUSXmC-1" parent="G3jahVtwOrPoX2eUSXmC-0"/>
                <mxCell id="G3jahVtwOrPoX2eUSXmC-2" value="50" style="whiteSpace=wrap;html=1;aspect=fixed;fontFamily=Fira Code;" parent="G3jahVtwOrPoX2eUSXmC-1" vertex="1">
                    <mxGeometry x="340" y="40" width="40" height="40" as="geometry"/>
                </mxCell>
                <mxCell id="G3jahVtwOrPoX2eUSXmC-3" style="edgeStyle=none;rounded=0;orthogonalLoop=1;jettySize=auto;html=1;exitX=0;exitY=1;exitDx=0;exitDy=0;entryX=0.5;entryY=0;entryDx=0;entryDy=0;endArrow=none;endFill=0;fontFamily=Fira Code;" parent="G3jahVtwOrPoX2eUSXmC-1" source="G3jahVtwOrPoX2eUSXmC-4" target="G3jahVtwOrPoX2eUSXmC-8" edge="1">
                    <mxGeometry relative="1" as="geometry"/>
                </mxCell>
                <mxCell id="G3jahVtwOrPoX2eUSXmC-4" value="70" style="whiteSpace=wrap;html=1;aspect=fixed;fontFamily=Fira Code;" parent="G3jahVtwOrPoX2eUSXmC-1" vertex="1">
                    <mxGeometry x="380" y="40" width="40" height="40" as="geometry"/>
                </mxCell>
                <mxCell id="G3jahVtwOrPoX2eUSXmC-5" style="edgeStyle=none;rounded=0;orthogonalLoop=1;jettySize=auto;html=1;exitX=0;exitY=1;exitDx=0;exitDy=0;entryX=0.5;entryY=0;entryDx=0;entryDy=0;endArrow=none;endFill=0;" parent="G3jahVtwOrPoX2eUSXmC-1" source="G3jahVtwOrPoX2eUSXmC-6" target="G3jahVtwOrPoX2eUSXmC-15" edge="1">
                    <mxGeometry relative="1" as="geometry"/>
                </mxCell>
                <mxCell id="G3jahVtwOrPoX2eUSXmC-6" value="90" style="whiteSpace=wrap;html=1;aspect=fixed;fontFamily=Fira Code;" parent="G3jahVtwOrPoX2eUSXmC-1" vertex="1">
                    <mxGeometry x="420" y="40" width="40" height="40" as="geometry"/>
                </mxCell>
                <mxCell id="G3jahVtwOrPoX2eUSXmC-7" value="80" style="whiteSpace=wrap;html=1;aspect=fixed;fontFamily=Fira Code;" parent="G3jahVtwOrPoX2eUSXmC-1" vertex="1">
                    <mxGeometry x="260" y="120" width="40" height="40" as="geometry"/>
                </mxCell>
                <mxCell id="G3jahVtwOrPoX2eUSXmC-8" value="" style="whiteSpace=wrap;html=1;aspect=fixed;fontFamily=Fira Code;" parent="G3jahVtwOrPoX2eUSXmC-1" vertex="1">
                    <mxGeometry x="300" y="120" width="40" height="40" as="geometry"/>
                </mxCell>
                <mxCell id="G3jahVtwOrPoX2eUSXmC-9" value="" style="whiteSpace=wrap;html=1;aspect=fixed;fontFamily=Fira Code;" parent="G3jahVtwOrPoX2eUSXmC-1" vertex="1">
                    <mxGeometry x="340" y="120" width="40" height="40" as="geometry"/>
                </mxCell>
                <mxCell id="G3jahVtwOrPoX2eUSXmC-10" value="40" style="whiteSpace=wrap;html=1;aspect=fixed;fontFamily=Fira Code;" parent="G3jahVtwOrPoX2eUSXmC-1" vertex="1">
                    <mxGeometry x="100" y="120" width="40" height="40" as="geometry"/>
                </mxCell>
                <mxCell id="G3jahVtwOrPoX2eUSXmC-11" value="60" style="whiteSpace=wrap;html=1;aspect=fixed;fontFamily=Fira Code;" parent="G3jahVtwOrPoX2eUSXmC-1" vertex="1">
                    <mxGeometry x="140" y="120" width="40" height="40" as="geometry"/>
                </mxCell>
                <mxCell id="G3jahVtwOrPoX2eUSXmC-12" style="edgeStyle=none;rounded=0;orthogonalLoop=1;jettySize=auto;html=1;exitX=0.5;exitY=0;exitDx=0;exitDy=0;entryX=0;entryY=1;entryDx=0;entryDy=0;endArrow=none;endFill=0;fontFamily=Fira Code;" parent="G3jahVtwOrPoX2eUSXmC-1" source="G3jahVtwOrPoX2eUSXmC-11" target="G3jahVtwOrPoX2eUSXmC-2" edge="1">
                    <mxGeometry relative="1" as="geometry"/>
                </mxCell>
                <mxCell id="G3jahVtwOrPoX2eUSXmC-13" value="" style="whiteSpace=wrap;html=1;aspect=fixed;fontFamily=Fira Code;" parent="G3jahVtwOrPoX2eUSXmC-1" vertex="1">
                    <mxGeometry x="180" y="120" width="40" height="40" as="geometry"/>
                </mxCell>
                <mxCell id="G3jahVtwOrPoX2eUSXmC-14" value="100" style="whiteSpace=wrap;html=1;aspect=fixed;fontFamily=Fira Code;" parent="G3jahVtwOrPoX2eUSXmC-1" vertex="1">
                    <mxGeometry x="420" y="120" width="40" height="40" as="geometry"/>
                </mxCell>
                <mxCell id="G3jahVtwOrPoX2eUSXmC-15" value="" style="whiteSpace=wrap;html=1;aspect=fixed;fontFamily=Fira Code;" parent="G3jahVtwOrPoX2eUSXmC-1" vertex="1">
                    <mxGeometry x="460" y="120" width="40" height="40" as="geometry"/>
                </mxCell>
                <mxCell id="G3jahVtwOrPoX2eUSXmC-16" value="" style="whiteSpace=wrap;html=1;aspect=fixed;fontFamily=Fira Code;" parent="G3jahVtwOrPoX2eUSXmC-1" vertex="1">
                    <mxGeometry x="500" y="120" width="40" height="40" as="geometry"/>
                </mxCell>
            </root>
        </mxGraphModel>
    </diagram>
    <diagram name="Copy of Copy of Copy of Copy of Copy of Copy of Copy of Copy of Copy of Copy of Copy of Copy of Copy of Copy of Copy of Page-1" id="4y6G0hiOgKmUjsLiPEq4">
        <mxGraphModel dx="1402" dy="860" grid="1" gridSize="10" guides="1" tooltips="1" connect="1" arrows="1" fold="1" page="1" pageScale="1" pageWidth="800" pageHeight="800" math="0" shadow="0">
            <root>
                <mxCell id="9mTyw7Ei5Iqd7IbpFfin-0"/>
                <mxCell id="9mTyw7Ei5Iqd7IbpFfin-1" parent="9mTyw7Ei5Iqd7IbpFfin-0"/>
                <mxCell id="9mTyw7Ei5Iqd7IbpFfin-2" value="50" style="whiteSpace=wrap;html=1;aspect=fixed;fontFamily=Fira Code;" parent="9mTyw7Ei5Iqd7IbpFfin-1" vertex="1">
                    <mxGeometry x="340" y="40" width="40" height="40" as="geometry"/>
                </mxCell>
                <mxCell id="9mTyw7Ei5Iqd7IbpFfin-3" style="edgeStyle=none;rounded=0;orthogonalLoop=1;jettySize=auto;html=1;exitX=0;exitY=1;exitDx=0;exitDy=0;entryX=0.5;entryY=0;entryDx=0;entryDy=0;endArrow=none;endFill=0;fontFamily=Fira Code;" parent="9mTyw7Ei5Iqd7IbpFfin-1" source="9mTyw7Ei5Iqd7IbpFfin-4" target="9mTyw7Ei5Iqd7IbpFfin-8" edge="1">
                    <mxGeometry relative="1" as="geometry"/>
                </mxCell>
                <mxCell id="9mTyw7Ei5Iqd7IbpFfin-4" value="70" style="whiteSpace=wrap;html=1;aspect=fixed;fontFamily=Fira Code;" parent="9mTyw7Ei5Iqd7IbpFfin-1" vertex="1">
                    <mxGeometry x="380" y="40" width="40" height="40" as="geometry"/>
                </mxCell>
                <mxCell id="9mTyw7Ei5Iqd7IbpFfin-5" style="edgeStyle=none;rounded=0;orthogonalLoop=1;jettySize=auto;html=1;exitX=0;exitY=1;exitDx=0;exitDy=0;entryX=0.5;entryY=0;entryDx=0;entryDy=0;endArrow=none;endFill=0;" parent="9mTyw7Ei5Iqd7IbpFfin-1" source="9mTyw7Ei5Iqd7IbpFfin-6" target="9mTyw7Ei5Iqd7IbpFfin-15" edge="1">
                    <mxGeometry relative="1" as="geometry"/>
                </mxCell>
                <mxCell id="9mTyw7Ei5Iqd7IbpFfin-20" style="edgeStyle=none;rounded=0;orthogonalLoop=1;jettySize=auto;html=1;exitX=1;exitY=1;exitDx=0;exitDy=0;entryX=0.5;entryY=0;entryDx=0;entryDy=0;endArrow=none;endFill=0;" parent="9mTyw7Ei5Iqd7IbpFfin-1" source="9mTyw7Ei5Iqd7IbpFfin-6" target="9mTyw7Ei5Iqd7IbpFfin-18" edge="1">
                    <mxGeometry relative="1" as="geometry"/>
                </mxCell>
                <mxCell id="9mTyw7Ei5Iqd7IbpFfin-6" value="90" style="whiteSpace=wrap;html=1;aspect=fixed;fontFamily=Fira Code;" parent="9mTyw7Ei5Iqd7IbpFfin-1" vertex="1">
                    <mxGeometry x="420" y="40" width="40" height="40" as="geometry"/>
                </mxCell>
                <mxCell id="9mTyw7Ei5Iqd7IbpFfin-7" value="80" style="whiteSpace=wrap;html=1;aspect=fixed;fontFamily=Fira Code;" parent="9mTyw7Ei5Iqd7IbpFfin-1" vertex="1">
                    <mxGeometry x="260" y="120" width="40" height="40" as="geometry"/>
                </mxCell>
                <mxCell id="9mTyw7Ei5Iqd7IbpFfin-8" value="" style="whiteSpace=wrap;html=1;aspect=fixed;fontFamily=Fira Code;" parent="9mTyw7Ei5Iqd7IbpFfin-1" vertex="1">
                    <mxGeometry x="300" y="120" width="40" height="40" as="geometry"/>
                </mxCell>
                <mxCell id="9mTyw7Ei5Iqd7IbpFfin-9" value="" style="whiteSpace=wrap;html=1;aspect=fixed;fontFamily=Fira Code;" parent="9mTyw7Ei5Iqd7IbpFfin-1" vertex="1">
                    <mxGeometry x="340" y="120" width="40" height="40" as="geometry"/>
                </mxCell>
                <mxCell id="9mTyw7Ei5Iqd7IbpFfin-10" value="40" style="whiteSpace=wrap;html=1;aspect=fixed;fontFamily=Fira Code;" parent="9mTyw7Ei5Iqd7IbpFfin-1" vertex="1">
                    <mxGeometry x="100" y="120" width="40" height="40" as="geometry"/>
                </mxCell>
                <mxCell id="9mTyw7Ei5Iqd7IbpFfin-11" value="60" style="whiteSpace=wrap;html=1;aspect=fixed;fontFamily=Fira Code;" parent="9mTyw7Ei5Iqd7IbpFfin-1" vertex="1">
                    <mxGeometry x="140" y="120" width="40" height="40" as="geometry"/>
                </mxCell>
                <mxCell id="9mTyw7Ei5Iqd7IbpFfin-12" style="edgeStyle=none;rounded=0;orthogonalLoop=1;jettySize=auto;html=1;exitX=0.5;exitY=0;exitDx=0;exitDy=0;entryX=0;entryY=1;entryDx=0;entryDy=0;endArrow=none;endFill=0;fontFamily=Fira Code;" parent="9mTyw7Ei5Iqd7IbpFfin-1" source="9mTyw7Ei5Iqd7IbpFfin-11" target="9mTyw7Ei5Iqd7IbpFfin-2" edge="1">
                    <mxGeometry relative="1" as="geometry"/>
                </mxCell>
                <mxCell id="9mTyw7Ei5Iqd7IbpFfin-13" value="" style="whiteSpace=wrap;html=1;aspect=fixed;fontFamily=Fira Code;" parent="9mTyw7Ei5Iqd7IbpFfin-1" vertex="1">
                    <mxGeometry x="180" y="120" width="40" height="40" as="geometry"/>
                </mxCell>
                <mxCell id="9mTyw7Ei5Iqd7IbpFfin-14" value="100" style="whiteSpace=wrap;html=1;aspect=fixed;fontFamily=Fira Code;" parent="9mTyw7Ei5Iqd7IbpFfin-1" vertex="1">
                    <mxGeometry x="420" y="120" width="40" height="40" as="geometry"/>
                </mxCell>
                <mxCell id="9mTyw7Ei5Iqd7IbpFfin-15" value="" style="whiteSpace=wrap;html=1;aspect=fixed;fontFamily=Fira Code;" parent="9mTyw7Ei5Iqd7IbpFfin-1" vertex="1">
                    <mxGeometry x="460" y="120" width="40" height="40" as="geometry"/>
                </mxCell>
                <mxCell id="9mTyw7Ei5Iqd7IbpFfin-16" value="" style="whiteSpace=wrap;html=1;aspect=fixed;fontFamily=Fira Code;" parent="9mTyw7Ei5Iqd7IbpFfin-1" vertex="1">
                    <mxGeometry x="500" y="120" width="40" height="40" as="geometry"/>
                </mxCell>
                <mxCell id="9mTyw7Ei5Iqd7IbpFfin-17" value="" style="whiteSpace=wrap;html=1;aspect=fixed;fontFamily=Fira Code;" parent="9mTyw7Ei5Iqd7IbpFfin-1" vertex="1">
                    <mxGeometry x="580" y="120" width="40" height="40" as="geometry"/>
                </mxCell>
                <mxCell id="9mTyw7Ei5Iqd7IbpFfin-18" value="" style="whiteSpace=wrap;html=1;aspect=fixed;fontFamily=Fira Code;" parent="9mTyw7Ei5Iqd7IbpFfin-1" vertex="1">
                    <mxGeometry x="620" y="120" width="40" height="40" as="geometry"/>
                </mxCell>
                <mxCell id="9mTyw7Ei5Iqd7IbpFfin-19" value="" style="whiteSpace=wrap;html=1;aspect=fixed;fontFamily=Fira Code;" parent="9mTyw7Ei5Iqd7IbpFfin-1" vertex="1">
                    <mxGeometry x="660" y="120" width="40" height="40" as="geometry"/>
                </mxCell>
            </root>
        </mxGraphModel>
    </diagram>
    <diagram name="Copy of Copy of Copy of Copy of Copy of Copy of Copy of Copy of Copy of Copy of Copy of Copy of Copy of Copy of Copy of Copy of Page-1" id="W-NiUVLOOjyK-rBrmSrj">
        <mxGraphModel dx="1402" dy="860" grid="1" gridSize="10" guides="1" tooltips="1" connect="1" arrows="1" fold="1" page="1" pageScale="1" pageWidth="800" pageHeight="800" math="0" shadow="0">
            <root>
                <mxCell id="vKuOkp8wCW9H8vkZHZ5_-0"/>
                <mxCell id="vKuOkp8wCW9H8vkZHZ5_-1" parent="vKuOkp8wCW9H8vkZHZ5_-0"/>
                <mxCell id="vKuOkp8wCW9H8vkZHZ5_-2" value="50" style="whiteSpace=wrap;html=1;aspect=fixed;fontFamily=Fira Code;" parent="vKuOkp8wCW9H8vkZHZ5_-1" vertex="1">
                    <mxGeometry x="340" y="40" width="40" height="40" as="geometry"/>
                </mxCell>
                <mxCell id="vKuOkp8wCW9H8vkZHZ5_-3" style="edgeStyle=none;rounded=0;orthogonalLoop=1;jettySize=auto;html=1;exitX=0;exitY=1;exitDx=0;exitDy=0;entryX=0.5;entryY=0;entryDx=0;entryDy=0;endArrow=none;endFill=0;fontFamily=Fira Code;" parent="vKuOkp8wCW9H8vkZHZ5_-1" source="vKuOkp8wCW9H8vkZHZ5_-4" target="vKuOkp8wCW9H8vkZHZ5_-9" edge="1">
                    <mxGeometry relative="1" as="geometry"/>
                </mxCell>
                <mxCell id="vKuOkp8wCW9H8vkZHZ5_-4" value="70" style="whiteSpace=wrap;html=1;aspect=fixed;fontFamily=Fira Code;" parent="vKuOkp8wCW9H8vkZHZ5_-1" vertex="1">
                    <mxGeometry x="380" y="40" width="40" height="40" as="geometry"/>
                </mxCell>
                <mxCell id="vKuOkp8wCW9H8vkZHZ5_-5" style="edgeStyle=none;rounded=0;orthogonalLoop=1;jettySize=auto;html=1;exitX=0;exitY=1;exitDx=0;exitDy=0;entryX=0.5;entryY=0;entryDx=0;entryDy=0;endArrow=none;endFill=0;" parent="vKuOkp8wCW9H8vkZHZ5_-1" source="vKuOkp8wCW9H8vkZHZ5_-7" target="vKuOkp8wCW9H8vkZHZ5_-16" edge="1">
                    <mxGeometry relative="1" as="geometry"/>
                </mxCell>
                <mxCell id="vKuOkp8wCW9H8vkZHZ5_-6" style="edgeStyle=none;rounded=0;orthogonalLoop=1;jettySize=auto;html=1;exitX=1;exitY=1;exitDx=0;exitDy=0;entryX=0.5;entryY=0;entryDx=0;entryDy=0;endArrow=none;endFill=0;" parent="vKuOkp8wCW9H8vkZHZ5_-1" source="vKuOkp8wCW9H8vkZHZ5_-7" target="vKuOkp8wCW9H8vkZHZ5_-19" edge="1">
                    <mxGeometry relative="1" as="geometry"/>
                </mxCell>
                <mxCell id="vKuOkp8wCW9H8vkZHZ5_-7" value="90" style="whiteSpace=wrap;html=1;aspect=fixed;fontFamily=Fira Code;" parent="vKuOkp8wCW9H8vkZHZ5_-1" vertex="1">
                    <mxGeometry x="420" y="40" width="40" height="40" as="geometry"/>
                </mxCell>
                <mxCell id="vKuOkp8wCW9H8vkZHZ5_-8" value="80" style="whiteSpace=wrap;html=1;aspect=fixed;fontFamily=Fira Code;" parent="vKuOkp8wCW9H8vkZHZ5_-1" vertex="1">
                    <mxGeometry x="260" y="120" width="40" height="40" as="geometry"/>
                </mxCell>
                <mxCell id="vKuOkp8wCW9H8vkZHZ5_-9" value="" style="whiteSpace=wrap;html=1;aspect=fixed;fontFamily=Fira Code;" parent="vKuOkp8wCW9H8vkZHZ5_-1" vertex="1">
                    <mxGeometry x="300" y="120" width="40" height="40" as="geometry"/>
                </mxCell>
                <mxCell id="vKuOkp8wCW9H8vkZHZ5_-10" value="" style="whiteSpace=wrap;html=1;aspect=fixed;fontFamily=Fira Code;" parent="vKuOkp8wCW9H8vkZHZ5_-1" vertex="1">
                    <mxGeometry x="340" y="120" width="40" height="40" as="geometry"/>
                </mxCell>
                <mxCell id="vKuOkp8wCW9H8vkZHZ5_-11" value="40" style="whiteSpace=wrap;html=1;aspect=fixed;fontFamily=Fira Code;" parent="vKuOkp8wCW9H8vkZHZ5_-1" vertex="1">
                    <mxGeometry x="100" y="120" width="40" height="40" as="geometry"/>
                </mxCell>
                <mxCell id="vKuOkp8wCW9H8vkZHZ5_-12" value="60" style="whiteSpace=wrap;html=1;aspect=fixed;fontFamily=Fira Code;" parent="vKuOkp8wCW9H8vkZHZ5_-1" vertex="1">
                    <mxGeometry x="140" y="120" width="40" height="40" as="geometry"/>
                </mxCell>
                <mxCell id="vKuOkp8wCW9H8vkZHZ5_-13" style="edgeStyle=none;rounded=0;orthogonalLoop=1;jettySize=auto;html=1;exitX=0.5;exitY=0;exitDx=0;exitDy=0;entryX=0;entryY=1;entryDx=0;entryDy=0;endArrow=none;endFill=0;fontFamily=Fira Code;" parent="vKuOkp8wCW9H8vkZHZ5_-1" source="vKuOkp8wCW9H8vkZHZ5_-12" target="vKuOkp8wCW9H8vkZHZ5_-2" edge="1">
                    <mxGeometry relative="1" as="geometry"/>
                </mxCell>
                <mxCell id="vKuOkp8wCW9H8vkZHZ5_-14" value="" style="whiteSpace=wrap;html=1;aspect=fixed;fontFamily=Fira Code;" parent="vKuOkp8wCW9H8vkZHZ5_-1" vertex="1">
                    <mxGeometry x="180" y="120" width="40" height="40" as="geometry"/>
                </mxCell>
                <mxCell id="vKuOkp8wCW9H8vkZHZ5_-15" value="" style="whiteSpace=wrap;html=1;aspect=fixed;fontFamily=Fira Code;" parent="vKuOkp8wCW9H8vkZHZ5_-1" vertex="1">
                    <mxGeometry x="420" y="120" width="40" height="40" as="geometry"/>
                </mxCell>
                <mxCell id="vKuOkp8wCW9H8vkZHZ5_-16" value="" style="whiteSpace=wrap;html=1;aspect=fixed;fontFamily=Fira Code;" parent="vKuOkp8wCW9H8vkZHZ5_-1" vertex="1">
                    <mxGeometry x="460" y="120" width="40" height="40" as="geometry"/>
                </mxCell>
                <mxCell id="vKuOkp8wCW9H8vkZHZ5_-17" value="" style="whiteSpace=wrap;html=1;aspect=fixed;fontFamily=Fira Code;" parent="vKuOkp8wCW9H8vkZHZ5_-1" vertex="1">
                    <mxGeometry x="500" y="120" width="40" height="40" as="geometry"/>
                </mxCell>
                <mxCell id="vKuOkp8wCW9H8vkZHZ5_-18" value="100" style="whiteSpace=wrap;html=1;aspect=fixed;fontFamily=Fira Code;" parent="vKuOkp8wCW9H8vkZHZ5_-1" vertex="1">
                    <mxGeometry x="580" y="120" width="40" height="40" as="geometry"/>
                </mxCell>
                <mxCell id="vKuOkp8wCW9H8vkZHZ5_-19" value="" style="whiteSpace=wrap;html=1;aspect=fixed;fontFamily=Fira Code;" parent="vKuOkp8wCW9H8vkZHZ5_-1" vertex="1">
                    <mxGeometry x="620" y="120" width="40" height="40" as="geometry"/>
                </mxCell>
                <mxCell id="vKuOkp8wCW9H8vkZHZ5_-20" value="" style="whiteSpace=wrap;html=1;aspect=fixed;fontFamily=Fira Code;" parent="vKuOkp8wCW9H8vkZHZ5_-1" vertex="1">
                    <mxGeometry x="660" y="120" width="40" height="40" as="geometry"/>
                </mxCell>
            </root>
        </mxGraphModel>
    </diagram>
    <diagram name="Copy of Copy of Copy of Copy of Copy of Copy of Copy of Copy of Copy of Copy of Copy of Copy of Copy of Copy of Copy of Copy of Copy of Page-1" id="ZQOL6DqGfH-M0p0B0FSg">
        <mxGraphModel dx="1402" dy="860" grid="1" gridSize="10" guides="1" tooltips="1" connect="1" arrows="1" fold="1" page="1" pageScale="1" pageWidth="800" pageHeight="800" math="0" shadow="0">
            <root>
                <mxCell id="SJVmUK_NCkNEgSisKeL8-0"/>
                <mxCell id="SJVmUK_NCkNEgSisKeL8-1" parent="SJVmUK_NCkNEgSisKeL8-0"/>
                <mxCell id="SJVmUK_NCkNEgSisKeL8-2" value="50" style="whiteSpace=wrap;html=1;aspect=fixed;fontFamily=Fira Code;" parent="SJVmUK_NCkNEgSisKeL8-1" vertex="1">
                    <mxGeometry x="340" y="40" width="40" height="40" as="geometry"/>
                </mxCell>
                <mxCell id="SJVmUK_NCkNEgSisKeL8-3" style="edgeStyle=none;rounded=0;orthogonalLoop=1;jettySize=auto;html=1;exitX=0;exitY=1;exitDx=0;exitDy=0;entryX=0.5;entryY=0;entryDx=0;entryDy=0;endArrow=none;endFill=0;fontFamily=Fira Code;" parent="SJVmUK_NCkNEgSisKeL8-1" source="SJVmUK_NCkNEgSisKeL8-4" target="SJVmUK_NCkNEgSisKeL8-9" edge="1">
                    <mxGeometry relative="1" as="geometry"/>
                </mxCell>
                <mxCell id="SJVmUK_NCkNEgSisKeL8-4" value="70" style="whiteSpace=wrap;html=1;aspect=fixed;fontFamily=Fira Code;" parent="SJVmUK_NCkNEgSisKeL8-1" vertex="1">
                    <mxGeometry x="380" y="40" width="40" height="40" as="geometry"/>
                </mxCell>
                <mxCell id="SJVmUK_NCkNEgSisKeL8-5" style="edgeStyle=none;rounded=0;orthogonalLoop=1;jettySize=auto;html=1;exitX=0;exitY=1;exitDx=0;exitDy=0;entryX=0.5;entryY=0;entryDx=0;entryDy=0;endArrow=none;endFill=0;" parent="SJVmUK_NCkNEgSisKeL8-1" source="SJVmUK_NCkNEgSisKeL8-7" target="SJVmUK_NCkNEgSisKeL8-16" edge="1">
                    <mxGeometry relative="1" as="geometry"/>
                </mxCell>
                <mxCell id="SJVmUK_NCkNEgSisKeL8-6" style="edgeStyle=none;rounded=0;orthogonalLoop=1;jettySize=auto;html=1;exitX=1;exitY=1;exitDx=0;exitDy=0;entryX=0.5;entryY=0;entryDx=0;entryDy=0;endArrow=none;endFill=0;" parent="SJVmUK_NCkNEgSisKeL8-1" source="SJVmUK_NCkNEgSisKeL8-7" target="SJVmUK_NCkNEgSisKeL8-19" edge="1">
                    <mxGeometry relative="1" as="geometry"/>
                </mxCell>
                <mxCell id="SJVmUK_NCkNEgSisKeL8-7" value="90" style="whiteSpace=wrap;html=1;aspect=fixed;fontFamily=Fira Code;" parent="SJVmUK_NCkNEgSisKeL8-1" vertex="1">
                    <mxGeometry x="420" y="40" width="40" height="40" as="geometry"/>
                </mxCell>
                <mxCell id="SJVmUK_NCkNEgSisKeL8-8" value="" style="whiteSpace=wrap;html=1;aspect=fixed;fontFamily=Fira Code;" parent="SJVmUK_NCkNEgSisKeL8-1" vertex="1">
                    <mxGeometry x="260" y="120" width="40" height="40" as="geometry"/>
                </mxCell>
                <mxCell id="SJVmUK_NCkNEgSisKeL8-9" value="" style="whiteSpace=wrap;html=1;aspect=fixed;fontFamily=Fira Code;" parent="SJVmUK_NCkNEgSisKeL8-1" vertex="1">
                    <mxGeometry x="300" y="120" width="40" height="40" as="geometry"/>
                </mxCell>
                <mxCell id="SJVmUK_NCkNEgSisKeL8-10" value="" style="whiteSpace=wrap;html=1;aspect=fixed;fontFamily=Fira Code;" parent="SJVmUK_NCkNEgSisKeL8-1" vertex="1">
                    <mxGeometry x="340" y="120" width="40" height="40" as="geometry"/>
                </mxCell>
                <mxCell id="SJVmUK_NCkNEgSisKeL8-11" value="40" style="whiteSpace=wrap;html=1;aspect=fixed;fontFamily=Fira Code;" parent="SJVmUK_NCkNEgSisKeL8-1" vertex="1">
                    <mxGeometry x="100" y="120" width="40" height="40" as="geometry"/>
                </mxCell>
                <mxCell id="SJVmUK_NCkNEgSisKeL8-12" value="60" style="whiteSpace=wrap;html=1;aspect=fixed;fontFamily=Fira Code;" parent="SJVmUK_NCkNEgSisKeL8-1" vertex="1">
                    <mxGeometry x="140" y="120" width="40" height="40" as="geometry"/>
                </mxCell>
                <mxCell id="SJVmUK_NCkNEgSisKeL8-13" style="edgeStyle=none;rounded=0;orthogonalLoop=1;jettySize=auto;html=1;exitX=0.5;exitY=0;exitDx=0;exitDy=0;entryX=0;entryY=1;entryDx=0;entryDy=0;endArrow=none;endFill=0;fontFamily=Fira Code;" parent="SJVmUK_NCkNEgSisKeL8-1" source="SJVmUK_NCkNEgSisKeL8-12" target="SJVmUK_NCkNEgSisKeL8-2" edge="1">
                    <mxGeometry relative="1" as="geometry"/>
                </mxCell>
                <mxCell id="SJVmUK_NCkNEgSisKeL8-14" value="" style="whiteSpace=wrap;html=1;aspect=fixed;fontFamily=Fira Code;" parent="SJVmUK_NCkNEgSisKeL8-1" vertex="1">
                    <mxGeometry x="180" y="120" width="40" height="40" as="geometry"/>
                </mxCell>
                <mxCell id="SJVmUK_NCkNEgSisKeL8-15" value="80" style="whiteSpace=wrap;html=1;aspect=fixed;fontFamily=Fira Code;" parent="SJVmUK_NCkNEgSisKeL8-1" vertex="1">
                    <mxGeometry x="420" y="120" width="40" height="40" as="geometry"/>
                </mxCell>
                <mxCell id="SJVmUK_NCkNEgSisKeL8-16" value="" style="whiteSpace=wrap;html=1;aspect=fixed;fontFamily=Fira Code;" parent="SJVmUK_NCkNEgSisKeL8-1" vertex="1">
                    <mxGeometry x="460" y="120" width="40" height="40" as="geometry"/>
                </mxCell>
                <mxCell id="SJVmUK_NCkNEgSisKeL8-17" value="" style="whiteSpace=wrap;html=1;aspect=fixed;fontFamily=Fira Code;" parent="SJVmUK_NCkNEgSisKeL8-1" vertex="1">
                    <mxGeometry x="500" y="120" width="40" height="40" as="geometry"/>
                </mxCell>
                <mxCell id="SJVmUK_NCkNEgSisKeL8-18" value="100" style="whiteSpace=wrap;html=1;aspect=fixed;fontFamily=Fira Code;" parent="SJVmUK_NCkNEgSisKeL8-1" vertex="1">
                    <mxGeometry x="580" y="120" width="40" height="40" as="geometry"/>
                </mxCell>
                <mxCell id="SJVmUK_NCkNEgSisKeL8-19" value="" style="whiteSpace=wrap;html=1;aspect=fixed;fontFamily=Fira Code;" parent="SJVmUK_NCkNEgSisKeL8-1" vertex="1">
                    <mxGeometry x="620" y="120" width="40" height="40" as="geometry"/>
                </mxCell>
                <mxCell id="SJVmUK_NCkNEgSisKeL8-20" value="" style="whiteSpace=wrap;html=1;aspect=fixed;fontFamily=Fira Code;" parent="SJVmUK_NCkNEgSisKeL8-1" vertex="1">
                    <mxGeometry x="660" y="120" width="40" height="40" as="geometry"/>
                </mxCell>
            </root>
        </mxGraphModel>
    </diagram>
    <diagram name="Copy of Copy of Copy of Copy of Copy of Copy of Copy of Copy of Copy of Copy of Copy of Copy of Copy of Copy of Copy of Copy of Copy of Copy of Page-1" id="ffiqwPcoq9KlTa0XSk6z">
        <mxGraphModel dx="1402" dy="860" grid="1" gridSize="10" guides="1" tooltips="1" connect="1" arrows="1" fold="1" page="1" pageScale="1" pageWidth="800" pageHeight="800" math="0" shadow="0">
            <root>
                <mxCell id="FDD0elqecnwI3WGrXS3X-0"/>
                <mxCell id="FDD0elqecnwI3WGrXS3X-1" parent="FDD0elqecnwI3WGrXS3X-0"/>
                <mxCell id="FDD0elqecnwI3WGrXS3X-2" value="50" style="whiteSpace=wrap;html=1;aspect=fixed;fontFamily=Fira Code;" parent="FDD0elqecnwI3WGrXS3X-1" vertex="1">
                    <mxGeometry x="340" y="40" width="40" height="40" as="geometry"/>
                </mxCell>
                <mxCell id="FDD0elqecnwI3WGrXS3X-3" style="edgeStyle=none;rounded=0;orthogonalLoop=1;jettySize=auto;html=1;exitX=0;exitY=1;exitDx=0;exitDy=0;entryX=0.5;entryY=0;entryDx=0;entryDy=0;endArrow=none;endFill=0;fontFamily=Fira Code;" parent="FDD0elqecnwI3WGrXS3X-1" source="FDD0elqecnwI3WGrXS3X-4" target="FDD0elqecnwI3WGrXS3X-9" edge="1">
                    <mxGeometry relative="1" as="geometry"/>
                </mxCell>
                <mxCell id="FDD0elqecnwI3WGrXS3X-4" value="70" style="whiteSpace=wrap;html=1;aspect=fixed;fontFamily=Fira Code;" parent="FDD0elqecnwI3WGrXS3X-1" vertex="1">
                    <mxGeometry x="380" y="40" width="40" height="40" as="geometry"/>
                </mxCell>
                <mxCell id="FDD0elqecnwI3WGrXS3X-5" style="edgeStyle=none;rounded=0;orthogonalLoop=1;jettySize=auto;html=1;exitX=0;exitY=1;exitDx=0;exitDy=0;entryX=0.5;entryY=0;entryDx=0;entryDy=0;endArrow=none;endFill=0;" parent="FDD0elqecnwI3WGrXS3X-1" source="FDD0elqecnwI3WGrXS3X-7" target="FDD0elqecnwI3WGrXS3X-16" edge="1">
                    <mxGeometry relative="1" as="geometry"/>
                </mxCell>
                <mxCell id="FDD0elqecnwI3WGrXS3X-6" style="edgeStyle=none;rounded=0;orthogonalLoop=1;jettySize=auto;html=1;exitX=1;exitY=1;exitDx=0;exitDy=0;entryX=0.5;entryY=0;entryDx=0;entryDy=0;endArrow=none;endFill=0;" parent="FDD0elqecnwI3WGrXS3X-1" source="FDD0elqecnwI3WGrXS3X-7" target="FDD0elqecnwI3WGrXS3X-19" edge="1">
                    <mxGeometry relative="1" as="geometry"/>
                </mxCell>
                <mxCell id="FDD0elqecnwI3WGrXS3X-7" value="90" style="whiteSpace=wrap;html=1;aspect=fixed;fontFamily=Fira Code;" parent="FDD0elqecnwI3WGrXS3X-1" vertex="1">
                    <mxGeometry x="420" y="40" width="40" height="40" as="geometry"/>
                </mxCell>
                <mxCell id="FDD0elqecnwI3WGrXS3X-8" value="60" style="whiteSpace=wrap;html=1;aspect=fixed;fontFamily=Fira Code;" parent="FDD0elqecnwI3WGrXS3X-1" vertex="1">
                    <mxGeometry x="260" y="120" width="40" height="40" as="geometry"/>
                </mxCell>
                <mxCell id="FDD0elqecnwI3WGrXS3X-9" value="" style="whiteSpace=wrap;html=1;aspect=fixed;fontFamily=Fira Code;" parent="FDD0elqecnwI3WGrXS3X-1" vertex="1">
                    <mxGeometry x="300" y="120" width="40" height="40" as="geometry"/>
                </mxCell>
                <mxCell id="FDD0elqecnwI3WGrXS3X-10" value="" style="whiteSpace=wrap;html=1;aspect=fixed;fontFamily=Fira Code;" parent="FDD0elqecnwI3WGrXS3X-1" vertex="1">
                    <mxGeometry x="340" y="120" width="40" height="40" as="geometry"/>
                </mxCell>
                <mxCell id="FDD0elqecnwI3WGrXS3X-11" value="40" style="whiteSpace=wrap;html=1;aspect=fixed;fontFamily=Fira Code;" parent="FDD0elqecnwI3WGrXS3X-1" vertex="1">
                    <mxGeometry x="100" y="120" width="40" height="40" as="geometry"/>
                </mxCell>
                <mxCell id="FDD0elqecnwI3WGrXS3X-12" value="" style="whiteSpace=wrap;html=1;aspect=fixed;fontFamily=Fira Code;" parent="FDD0elqecnwI3WGrXS3X-1" vertex="1">
                    <mxGeometry x="140" y="120" width="40" height="40" as="geometry"/>
                </mxCell>
                <mxCell id="FDD0elqecnwI3WGrXS3X-13" style="edgeStyle=none;rounded=0;orthogonalLoop=1;jettySize=auto;html=1;exitX=0.5;exitY=0;exitDx=0;exitDy=0;entryX=0;entryY=1;entryDx=0;entryDy=0;endArrow=none;endFill=0;fontFamily=Fira Code;" parent="FDD0elqecnwI3WGrXS3X-1" source="FDD0elqecnwI3WGrXS3X-12" target="FDD0elqecnwI3WGrXS3X-2" edge="1">
                    <mxGeometry relative="1" as="geometry"/>
                </mxCell>
                <mxCell id="FDD0elqecnwI3WGrXS3X-14" value="" style="whiteSpace=wrap;html=1;aspect=fixed;fontFamily=Fira Code;" parent="FDD0elqecnwI3WGrXS3X-1" vertex="1">
                    <mxGeometry x="180" y="120" width="40" height="40" as="geometry"/>
                </mxCell>
                <mxCell id="FDD0elqecnwI3WGrXS3X-15" value="80" style="whiteSpace=wrap;html=1;aspect=fixed;fontFamily=Fira Code;" parent="FDD0elqecnwI3WGrXS3X-1" vertex="1">
                    <mxGeometry x="420" y="120" width="40" height="40" as="geometry"/>
                </mxCell>
                <mxCell id="FDD0elqecnwI3WGrXS3X-16" value="" style="whiteSpace=wrap;html=1;aspect=fixed;fontFamily=Fira Code;" parent="FDD0elqecnwI3WGrXS3X-1" vertex="1">
                    <mxGeometry x="460" y="120" width="40" height="40" as="geometry"/>
                </mxCell>
                <mxCell id="FDD0elqecnwI3WGrXS3X-17" value="" style="whiteSpace=wrap;html=1;aspect=fixed;fontFamily=Fira Code;" parent="FDD0elqecnwI3WGrXS3X-1" vertex="1">
                    <mxGeometry x="500" y="120" width="40" height="40" as="geometry"/>
                </mxCell>
                <mxCell id="FDD0elqecnwI3WGrXS3X-18" value="100" style="whiteSpace=wrap;html=1;aspect=fixed;fontFamily=Fira Code;" parent="FDD0elqecnwI3WGrXS3X-1" vertex="1">
                    <mxGeometry x="580" y="120" width="40" height="40" as="geometry"/>
                </mxCell>
                <mxCell id="FDD0elqecnwI3WGrXS3X-19" value="" style="whiteSpace=wrap;html=1;aspect=fixed;fontFamily=Fira Code;" parent="FDD0elqecnwI3WGrXS3X-1" vertex="1">
                    <mxGeometry x="620" y="120" width="40" height="40" as="geometry"/>
                </mxCell>
                <mxCell id="FDD0elqecnwI3WGrXS3X-20" value="" style="whiteSpace=wrap;html=1;aspect=fixed;fontFamily=Fira Code;" parent="FDD0elqecnwI3WGrXS3X-1" vertex="1">
                    <mxGeometry x="660" y="120" width="40" height="40" as="geometry"/>
                </mxCell>
            </root>
        </mxGraphModel>
    </diagram>
    <diagram name="Copy of Copy of Copy of Copy of Copy of Copy of Copy of Copy of Copy of Copy of Copy of Copy of Copy of Copy of Copy of Copy of Copy of Copy of Copy of Page-1" id="VGdWvS6xfYAQGkTDeLNE">
        <mxGraphModel dx="1402" dy="860" grid="1" gridSize="10" guides="1" tooltips="1" connect="1" arrows="1" fold="1" page="1" pageScale="1" pageWidth="800" pageHeight="800" math="0" shadow="0">
            <root>
                <mxCell id="C8KfIGOYyhuOXZOKRo8W-0"/>
                <mxCell id="C8KfIGOYyhuOXZOKRo8W-1" parent="C8KfIGOYyhuOXZOKRo8W-0"/>
                <mxCell id="C8KfIGOYyhuOXZOKRo8W-2" value="50" style="whiteSpace=wrap;html=1;aspect=fixed;fontFamily=Fira Code;" parent="C8KfIGOYyhuOXZOKRo8W-1" vertex="1">
                    <mxGeometry x="340" y="40" width="40" height="40" as="geometry"/>
                </mxCell>
                <mxCell id="C8KfIGOYyhuOXZOKRo8W-3" style="edgeStyle=none;rounded=0;orthogonalLoop=1;jettySize=auto;html=1;exitX=0;exitY=1;exitDx=0;exitDy=0;entryX=0.5;entryY=0;entryDx=0;entryDy=0;endArrow=none;endFill=0;fontFamily=Fira Code;" parent="C8KfIGOYyhuOXZOKRo8W-1" source="C8KfIGOYyhuOXZOKRo8W-4" target="C8KfIGOYyhuOXZOKRo8W-9" edge="1">
                    <mxGeometry relative="1" as="geometry"/>
                </mxCell>
                <mxCell id="C8KfIGOYyhuOXZOKRo8W-4" value="70" style="whiteSpace=wrap;html=1;aspect=fixed;fontFamily=Fira Code;" parent="C8KfIGOYyhuOXZOKRo8W-1" vertex="1">
                    <mxGeometry x="380" y="40" width="40" height="40" as="geometry"/>
                </mxCell>
                <mxCell id="C8KfIGOYyhuOXZOKRo8W-5" style="edgeStyle=none;rounded=0;orthogonalLoop=1;jettySize=auto;html=1;exitX=0;exitY=1;exitDx=0;exitDy=0;entryX=0.5;entryY=0;entryDx=0;entryDy=0;endArrow=none;endFill=0;" parent="C8KfIGOYyhuOXZOKRo8W-1" source="C8KfIGOYyhuOXZOKRo8W-7" target="C8KfIGOYyhuOXZOKRo8W-16" edge="1">
                    <mxGeometry relative="1" as="geometry"/>
                </mxCell>
                <mxCell id="C8KfIGOYyhuOXZOKRo8W-6" style="edgeStyle=none;rounded=0;orthogonalLoop=1;jettySize=auto;html=1;exitX=1;exitY=1;exitDx=0;exitDy=0;entryX=0.5;entryY=0;entryDx=0;entryDy=0;endArrow=none;endFill=0;" parent="C8KfIGOYyhuOXZOKRo8W-1" source="C8KfIGOYyhuOXZOKRo8W-7" target="C8KfIGOYyhuOXZOKRo8W-19" edge="1">
                    <mxGeometry relative="1" as="geometry"/>
                </mxCell>
                <mxCell id="C8KfIGOYyhuOXZOKRo8W-7" value="90" style="whiteSpace=wrap;html=1;aspect=fixed;fontFamily=Fira Code;" parent="C8KfIGOYyhuOXZOKRo8W-1" vertex="1">
                    <mxGeometry x="420" y="40" width="40" height="40" as="geometry"/>
                </mxCell>
                <mxCell id="C8KfIGOYyhuOXZOKRo8W-8" value="60" style="whiteSpace=wrap;html=1;aspect=fixed;fontFamily=Fira Code;" parent="C8KfIGOYyhuOXZOKRo8W-1" vertex="1">
                    <mxGeometry x="260" y="120" width="40" height="40" as="geometry"/>
                </mxCell>
                <mxCell id="C8KfIGOYyhuOXZOKRo8W-9" value="" style="whiteSpace=wrap;html=1;aspect=fixed;fontFamily=Fira Code;" parent="C8KfIGOYyhuOXZOKRo8W-1" vertex="1">
                    <mxGeometry x="300" y="120" width="40" height="40" as="geometry"/>
                </mxCell>
                <mxCell id="C8KfIGOYyhuOXZOKRo8W-10" value="" style="whiteSpace=wrap;html=1;aspect=fixed;fontFamily=Fira Code;" parent="C8KfIGOYyhuOXZOKRo8W-1" vertex="1">
                    <mxGeometry x="340" y="120" width="40" height="40" as="geometry"/>
                </mxCell>
                <mxCell id="C8KfIGOYyhuOXZOKRo8W-11" value="30" style="whiteSpace=wrap;html=1;aspect=fixed;fontFamily=Fira Code;" parent="C8KfIGOYyhuOXZOKRo8W-1" vertex="1">
                    <mxGeometry x="100" y="120" width="40" height="40" as="geometry"/>
                </mxCell>
                <mxCell id="C8KfIGOYyhuOXZOKRo8W-12" value="40" style="whiteSpace=wrap;html=1;aspect=fixed;fontFamily=Fira Code;" parent="C8KfIGOYyhuOXZOKRo8W-1" vertex="1">
                    <mxGeometry x="140" y="120" width="40" height="40" as="geometry"/>
                </mxCell>
                <mxCell id="C8KfIGOYyhuOXZOKRo8W-13" style="edgeStyle=none;rounded=0;orthogonalLoop=1;jettySize=auto;html=1;exitX=0.5;exitY=0;exitDx=0;exitDy=0;entryX=0;entryY=1;entryDx=0;entryDy=0;endArrow=none;endFill=0;fontFamily=Fira Code;" parent="C8KfIGOYyhuOXZOKRo8W-1" source="C8KfIGOYyhuOXZOKRo8W-12" target="C8KfIGOYyhuOXZOKRo8W-2" edge="1">
                    <mxGeometry relative="1" as="geometry"/>
                </mxCell>
                <mxCell id="C8KfIGOYyhuOXZOKRo8W-14" value="" style="whiteSpace=wrap;html=1;aspect=fixed;fontFamily=Fira Code;" parent="C8KfIGOYyhuOXZOKRo8W-1" vertex="1">
                    <mxGeometry x="180" y="120" width="40" height="40" as="geometry"/>
                </mxCell>
                <mxCell id="C8KfIGOYyhuOXZOKRo8W-15" value="80" style="whiteSpace=wrap;html=1;aspect=fixed;fontFamily=Fira Code;" parent="C8KfIGOYyhuOXZOKRo8W-1" vertex="1">
                    <mxGeometry x="420" y="120" width="40" height="40" as="geometry"/>
                </mxCell>
                <mxCell id="C8KfIGOYyhuOXZOKRo8W-16" value="" style="whiteSpace=wrap;html=1;aspect=fixed;fontFamily=Fira Code;" parent="C8KfIGOYyhuOXZOKRo8W-1" vertex="1">
                    <mxGeometry x="460" y="120" width="40" height="40" as="geometry"/>
                </mxCell>
                <mxCell id="C8KfIGOYyhuOXZOKRo8W-17" value="" style="whiteSpace=wrap;html=1;aspect=fixed;fontFamily=Fira Code;" parent="C8KfIGOYyhuOXZOKRo8W-1" vertex="1">
                    <mxGeometry x="500" y="120" width="40" height="40" as="geometry"/>
                </mxCell>
                <mxCell id="C8KfIGOYyhuOXZOKRo8W-18" value="100" style="whiteSpace=wrap;html=1;aspect=fixed;fontFamily=Fira Code;" parent="C8KfIGOYyhuOXZOKRo8W-1" vertex="1">
                    <mxGeometry x="580" y="120" width="40" height="40" as="geometry"/>
                </mxCell>
                <mxCell id="C8KfIGOYyhuOXZOKRo8W-19" value="" style="whiteSpace=wrap;html=1;aspect=fixed;fontFamily=Fira Code;" parent="C8KfIGOYyhuOXZOKRo8W-1" vertex="1">
                    <mxGeometry x="620" y="120" width="40" height="40" as="geometry"/>
                </mxCell>
                <mxCell id="C8KfIGOYyhuOXZOKRo8W-20" value="" style="whiteSpace=wrap;html=1;aspect=fixed;fontFamily=Fira Code;" parent="C8KfIGOYyhuOXZOKRo8W-1" vertex="1">
                    <mxGeometry x="660" y="120" width="40" height="40" as="geometry"/>
                </mxCell>
            </root>
        </mxGraphModel>
    </diagram>
    <diagram name="Copy of Copy of Copy of Copy of Copy of Copy of Copy of Copy of Copy of Copy of Copy of Copy of Copy of Copy of Copy of Copy of Copy of Copy of Copy of Copy of Page-1" id="fYoK7q21uMNbDzH8k9MI">
        <mxGraphModel dx="1402" dy="860" grid="1" gridSize="10" guides="1" tooltips="1" connect="1" arrows="1" fold="1" page="1" pageScale="1" pageWidth="800" pageHeight="800" math="0" shadow="0">
            <root>
                <mxCell id="G4fcIrCYnACzt4Yvfo-o-0"/>
                <mxCell id="G4fcIrCYnACzt4Yvfo-o-1" parent="G4fcIrCYnACzt4Yvfo-o-0"/>
                <mxCell id="G4fcIrCYnACzt4Yvfo-o-2" value="50" style="whiteSpace=wrap;html=1;aspect=fixed;fontFamily=Fira Code;" parent="G4fcIrCYnACzt4Yvfo-o-1" vertex="1">
                    <mxGeometry x="340" y="40" width="40" height="40" as="geometry"/>
                </mxCell>
                <mxCell id="G4fcIrCYnACzt4Yvfo-o-3" style="edgeStyle=none;rounded=0;orthogonalLoop=1;jettySize=auto;html=1;exitX=0;exitY=1;exitDx=0;exitDy=0;entryX=0.5;entryY=0;entryDx=0;entryDy=0;endArrow=none;endFill=0;fontFamily=Fira Code;" parent="G4fcIrCYnACzt4Yvfo-o-1" source="G4fcIrCYnACzt4Yvfo-o-4" target="G4fcIrCYnACzt4Yvfo-o-9" edge="1">
                    <mxGeometry relative="1" as="geometry"/>
                </mxCell>
                <mxCell id="G4fcIrCYnACzt4Yvfo-o-4" value="70" style="whiteSpace=wrap;html=1;aspect=fixed;fontFamily=Fira Code;" parent="G4fcIrCYnACzt4Yvfo-o-1" vertex="1">
                    <mxGeometry x="380" y="40" width="40" height="40" as="geometry"/>
                </mxCell>
                <mxCell id="G4fcIrCYnACzt4Yvfo-o-5" style="edgeStyle=none;rounded=0;orthogonalLoop=1;jettySize=auto;html=1;exitX=0;exitY=1;exitDx=0;exitDy=0;entryX=0.5;entryY=0;entryDx=0;entryDy=0;endArrow=none;endFill=0;" parent="G4fcIrCYnACzt4Yvfo-o-1" source="G4fcIrCYnACzt4Yvfo-o-7" target="G4fcIrCYnACzt4Yvfo-o-16" edge="1">
                    <mxGeometry relative="1" as="geometry"/>
                </mxCell>
                <mxCell id="G4fcIrCYnACzt4Yvfo-o-6" style="edgeStyle=none;rounded=0;orthogonalLoop=1;jettySize=auto;html=1;exitX=1;exitY=1;exitDx=0;exitDy=0;entryX=0.5;entryY=0;entryDx=0;entryDy=0;endArrow=none;endFill=0;" parent="G4fcIrCYnACzt4Yvfo-o-1" source="G4fcIrCYnACzt4Yvfo-o-7" target="G4fcIrCYnACzt4Yvfo-o-19" edge="1">
                    <mxGeometry relative="1" as="geometry"/>
                </mxCell>
                <mxCell id="G4fcIrCYnACzt4Yvfo-o-7" value="90" style="whiteSpace=wrap;html=1;aspect=fixed;fontFamily=Fira Code;" parent="G4fcIrCYnACzt4Yvfo-o-1" vertex="1">
                    <mxGeometry x="420" y="40" width="40" height="40" as="geometry"/>
                </mxCell>
                <mxCell id="G4fcIrCYnACzt4Yvfo-o-8" value="60" style="whiteSpace=wrap;html=1;aspect=fixed;fontFamily=Fira Code;" parent="G4fcIrCYnACzt4Yvfo-o-1" vertex="1">
                    <mxGeometry x="260" y="120" width="40" height="40" as="geometry"/>
                </mxCell>
                <mxCell id="G4fcIrCYnACzt4Yvfo-o-9" value="" style="whiteSpace=wrap;html=1;aspect=fixed;fontFamily=Fira Code;" parent="G4fcIrCYnACzt4Yvfo-o-1" vertex="1">
                    <mxGeometry x="300" y="120" width="40" height="40" as="geometry"/>
                </mxCell>
                <mxCell id="G4fcIrCYnACzt4Yvfo-o-10" value="" style="whiteSpace=wrap;html=1;aspect=fixed;fontFamily=Fira Code;" parent="G4fcIrCYnACzt4Yvfo-o-1" vertex="1">
                    <mxGeometry x="340" y="120" width="40" height="40" as="geometry"/>
                </mxCell>
                <mxCell id="G4fcIrCYnACzt4Yvfo-o-11" value="20" style="whiteSpace=wrap;html=1;aspect=fixed;fontFamily=Fira Code;" parent="G4fcIrCYnACzt4Yvfo-o-1" vertex="1">
                    <mxGeometry x="100" y="120" width="40" height="40" as="geometry"/>
                </mxCell>
                <mxCell id="G4fcIrCYnACzt4Yvfo-o-12" value="30" style="whiteSpace=wrap;html=1;aspect=fixed;fontFamily=Fira Code;" parent="G4fcIrCYnACzt4Yvfo-o-1" vertex="1">
                    <mxGeometry x="140" y="120" width="40" height="40" as="geometry"/>
                </mxCell>
                <mxCell id="G4fcIrCYnACzt4Yvfo-o-13" style="edgeStyle=none;rounded=0;orthogonalLoop=1;jettySize=auto;html=1;exitX=0.5;exitY=0;exitDx=0;exitDy=0;entryX=0;entryY=1;entryDx=0;entryDy=0;endArrow=none;endFill=0;fontFamily=Fira Code;" parent="G4fcIrCYnACzt4Yvfo-o-1" source="G4fcIrCYnACzt4Yvfo-o-12" target="G4fcIrCYnACzt4Yvfo-o-2" edge="1">
                    <mxGeometry relative="1" as="geometry"/>
                </mxCell>
                <mxCell id="G4fcIrCYnACzt4Yvfo-o-14" value="40" style="whiteSpace=wrap;html=1;aspect=fixed;fontFamily=Fira Code;" parent="G4fcIrCYnACzt4Yvfo-o-1" vertex="1">
                    <mxGeometry x="180" y="120" width="40" height="40" as="geometry"/>
                </mxCell>
                <mxCell id="G4fcIrCYnACzt4Yvfo-o-15" value="80" style="whiteSpace=wrap;html=1;aspect=fixed;fontFamily=Fira Code;" parent="G4fcIrCYnACzt4Yvfo-o-1" vertex="1">
                    <mxGeometry x="420" y="120" width="40" height="40" as="geometry"/>
                </mxCell>
                <mxCell id="G4fcIrCYnACzt4Yvfo-o-16" value="" style="whiteSpace=wrap;html=1;aspect=fixed;fontFamily=Fira Code;" parent="G4fcIrCYnACzt4Yvfo-o-1" vertex="1">
                    <mxGeometry x="460" y="120" width="40" height="40" as="geometry"/>
                </mxCell>
                <mxCell id="G4fcIrCYnACzt4Yvfo-o-17" value="" style="whiteSpace=wrap;html=1;aspect=fixed;fontFamily=Fira Code;" parent="G4fcIrCYnACzt4Yvfo-o-1" vertex="1">
                    <mxGeometry x="500" y="120" width="40" height="40" as="geometry"/>
                </mxCell>
                <mxCell id="G4fcIrCYnACzt4Yvfo-o-18" value="100" style="whiteSpace=wrap;html=1;aspect=fixed;fontFamily=Fira Code;" parent="G4fcIrCYnACzt4Yvfo-o-1" vertex="1">
                    <mxGeometry x="580" y="120" width="40" height="40" as="geometry"/>
                </mxCell>
                <mxCell id="G4fcIrCYnACzt4Yvfo-o-19" value="" style="whiteSpace=wrap;html=1;aspect=fixed;fontFamily=Fira Code;" parent="G4fcIrCYnACzt4Yvfo-o-1" vertex="1">
                    <mxGeometry x="620" y="120" width="40" height="40" as="geometry"/>
                </mxCell>
                <mxCell id="G4fcIrCYnACzt4Yvfo-o-20" value="" style="whiteSpace=wrap;html=1;aspect=fixed;fontFamily=Fira Code;" parent="G4fcIrCYnACzt4Yvfo-o-1" vertex="1">
                    <mxGeometry x="660" y="120" width="40" height="40" as="geometry"/>
                </mxCell>
            </root>
        </mxGraphModel>
    </diagram>
    <diagram name="Copy of Copy of Copy of Copy of Copy of Copy of Copy of Copy of Copy of Copy of Copy of Copy of Copy of Copy of Copy of Copy of Copy of Copy of Copy of Copy of Copy of Page-1" id="0s8uR4AK7uBXHw794OrM">
        <mxGraphModel dx="3937" dy="1433" grid="1" gridSize="10" guides="1" tooltips="1" connect="1" arrows="1" fold="1" page="1" pageScale="1" pageWidth="800" pageHeight="800" math="0" shadow="0">
            <root>
                <mxCell id="cI2RMdePJKhFmjNJXyIo-0"/>
                <mxCell id="cI2RMdePJKhFmjNJXyIo-1" parent="cI2RMdePJKhFmjNJXyIo-0"/>
                <mxCell id="cI2RMdePJKhFmjNJXyIo-36" style="edgeStyle=none;rounded=0;orthogonalLoop=1;jettySize=auto;html=1;exitX=0;exitY=1;exitDx=0;exitDy=0;entryX=0.5;entryY=0;entryDx=0;entryDy=0;endArrow=none;endFill=0;" parent="cI2RMdePJKhFmjNJXyIo-1" source="cI2RMdePJKhFmjNJXyIo-21" target="cI2RMdePJKhFmjNJXyIo-31" edge="1">
                    <mxGeometry relative="1" as="geometry"/>
                </mxCell>
                <mxCell id="cI2RMdePJKhFmjNJXyIo-37" style="edgeStyle=none;rounded=0;orthogonalLoop=1;jettySize=auto;html=1;exitX=1;exitY=1;exitDx=0;exitDy=0;entryX=0.5;entryY=0;entryDx=0;entryDy=0;endArrow=none;endFill=0;" parent="cI2RMdePJKhFmjNJXyIo-1" source="cI2RMdePJKhFmjNJXyIo-21" target="cI2RMdePJKhFmjNJXyIo-34" edge="1">
                    <mxGeometry relative="1" as="geometry"/>
                </mxCell>
                <mxCell id="cI2RMdePJKhFmjNJXyIo-21" value="70" style="whiteSpace=wrap;html=1;aspect=fixed;fontFamily=Fira Code;" parent="cI2RMdePJKhFmjNJXyIo-1" vertex="1">
                    <mxGeometry x="-40" y="40" width="40" height="40" as="geometry"/>
                </mxCell>
                <mxCell id="cI2RMdePJKhFmjNJXyIo-22" value="" style="whiteSpace=wrap;html=1;aspect=fixed;fontFamily=Fira Code;" parent="cI2RMdePJKhFmjNJXyIo-1" vertex="1">
                    <mxGeometry y="40" width="40" height="40" as="geometry"/>
                </mxCell>
                <mxCell id="cI2RMdePJKhFmjNJXyIo-23" value="" style="whiteSpace=wrap;html=1;aspect=fixed;fontFamily=Fira Code;" parent="cI2RMdePJKhFmjNJXyIo-1" vertex="1">
                    <mxGeometry x="40" y="40" width="40" height="40" as="geometry"/>
                </mxCell>
                <mxCell id="cI2RMdePJKhFmjNJXyIo-53" style="edgeStyle=none;rounded=0;orthogonalLoop=1;jettySize=auto;html=1;exitX=0;exitY=1;exitDx=0;exitDy=0;entryX=0.5;entryY=0;entryDx=0;entryDy=0;endArrow=none;endFill=0;" parent="cI2RMdePJKhFmjNJXyIo-1" source="cI2RMdePJKhFmjNJXyIo-30" target="cI2RMdePJKhFmjNJXyIo-51" edge="1">
                    <mxGeometry relative="1" as="geometry"/>
                </mxCell>
                <mxCell id="cI2RMdePJKhFmjNJXyIo-30" value="50" style="whiteSpace=wrap;html=1;aspect=fixed;fontFamily=Fira Code;" parent="cI2RMdePJKhFmjNJXyIo-1" vertex="1">
                    <mxGeometry x="-1000" y="120" width="40" height="40" as="geometry"/>
                </mxCell>
                <mxCell id="cI2RMdePJKhFmjNJXyIo-49" style="edgeStyle=none;rounded=0;orthogonalLoop=1;jettySize=auto;html=1;exitX=0;exitY=1;exitDx=0;exitDy=0;entryX=0.5;entryY=0;entryDx=0;entryDy=0;endArrow=none;endFill=0;" parent="cI2RMdePJKhFmjNJXyIo-1" source="cI2RMdePJKhFmjNJXyIo-31" target="cI2RMdePJKhFmjNJXyIo-47" edge="1">
                    <mxGeometry relative="1" as="geometry"/>
                </mxCell>
                <mxCell id="cI2RMdePJKhFmjNJXyIo-31" value="" style="whiteSpace=wrap;html=1;aspect=fixed;fontFamily=Fira Code;" parent="cI2RMdePJKhFmjNJXyIo-1" vertex="1">
                    <mxGeometry x="-960" y="120" width="40" height="40" as="geometry"/>
                </mxCell>
                <mxCell id="cI2RMdePJKhFmjNJXyIo-32" value="" style="whiteSpace=wrap;html=1;aspect=fixed;fontFamily=Fira Code;" parent="cI2RMdePJKhFmjNJXyIo-1" vertex="1">
                    <mxGeometry x="-920" y="120" width="40" height="40" as="geometry"/>
                </mxCell>
                <mxCell id="cI2RMdePJKhFmjNJXyIo-45" style="edgeStyle=none;rounded=0;orthogonalLoop=1;jettySize=auto;html=1;exitX=0;exitY=1;exitDx=0;exitDy=0;entryX=0.5;entryY=0;entryDx=0;entryDy=0;endArrow=none;endFill=0;" parent="cI2RMdePJKhFmjNJXyIo-1" source="cI2RMdePJKhFmjNJXyIo-33" target="cI2RMdePJKhFmjNJXyIo-43" edge="1">
                    <mxGeometry relative="1" as="geometry"/>
                </mxCell>
                <mxCell id="cI2RMdePJKhFmjNJXyIo-33" value="90" style="whiteSpace=wrap;html=1;aspect=fixed;fontFamily=Fira Code;" parent="cI2RMdePJKhFmjNJXyIo-1" vertex="1">
                    <mxGeometry x="-360" y="120" width="40" height="40" as="geometry"/>
                </mxCell>
                <mxCell id="cI2RMdePJKhFmjNJXyIo-41" style="edgeStyle=none;rounded=0;orthogonalLoop=1;jettySize=auto;html=1;exitX=0;exitY=1;exitDx=0;exitDy=0;entryX=0.5;entryY=0;entryDx=0;entryDy=0;endArrow=none;endFill=0;" parent="cI2RMdePJKhFmjNJXyIo-1" source="cI2RMdePJKhFmjNJXyIo-34" target="cI2RMdePJKhFmjNJXyIo-39" edge="1">
                    <mxGeometry relative="1" as="geometry"/>
                </mxCell>
                <mxCell id="cI2RMdePJKhFmjNJXyIo-34" value="" style="whiteSpace=wrap;html=1;aspect=fixed;fontFamily=Fira Code;" parent="cI2RMdePJKhFmjNJXyIo-1" vertex="1">
                    <mxGeometry x="-320" y="120" width="40" height="40" as="geometry"/>
                </mxCell>
                <mxCell id="cI2RMdePJKhFmjNJXyIo-35" value="" style="whiteSpace=wrap;html=1;aspect=fixed;fontFamily=Fira Code;" parent="cI2RMdePJKhFmjNJXyIo-1" vertex="1">
                    <mxGeometry x="-280" y="120" width="40" height="40" as="geometry"/>
                </mxCell>
                <mxCell id="cI2RMdePJKhFmjNJXyIo-38" value="100" style="whiteSpace=wrap;html=1;aspect=fixed;fontFamily=Fira Code;" parent="cI2RMdePJKhFmjNJXyIo-1" vertex="1">
                    <mxGeometry x="-440" y="200" width="40" height="40" as="geometry"/>
                </mxCell>
                <mxCell id="cI2RMdePJKhFmjNJXyIo-39" value="" style="whiteSpace=wrap;html=1;aspect=fixed;fontFamily=Fira Code;" parent="cI2RMdePJKhFmjNJXyIo-1" vertex="1">
                    <mxGeometry x="-400" y="200" width="40" height="40" as="geometry"/>
                </mxCell>
                <mxCell id="cI2RMdePJKhFmjNJXyIo-40" value="" style="whiteSpace=wrap;html=1;aspect=fixed;fontFamily=Fira Code;" parent="cI2RMdePJKhFmjNJXyIo-1" vertex="1">
                    <mxGeometry x="-360" y="200" width="40" height="40" as="geometry"/>
                </mxCell>
                <mxCell id="cI2RMdePJKhFmjNJXyIo-42" value="80" style="whiteSpace=wrap;html=1;aspect=fixed;fontFamily=Fira Code;" parent="cI2RMdePJKhFmjNJXyIo-1" vertex="1">
                    <mxGeometry x="-600" y="200" width="40" height="40" as="geometry"/>
                </mxCell>
                <mxCell id="cI2RMdePJKhFmjNJXyIo-43" value="" style="whiteSpace=wrap;html=1;aspect=fixed;fontFamily=Fira Code;" parent="cI2RMdePJKhFmjNJXyIo-1" vertex="1">
                    <mxGeometry x="-560" y="200" width="40" height="40" as="geometry"/>
                </mxCell>
                <mxCell id="cI2RMdePJKhFmjNJXyIo-44" value="" style="whiteSpace=wrap;html=1;aspect=fixed;fontFamily=Fira Code;" parent="cI2RMdePJKhFmjNJXyIo-1" vertex="1">
                    <mxGeometry x="-520" y="200" width="40" height="40" as="geometry"/>
                </mxCell>
                <mxCell id="cI2RMdePJKhFmjNJXyIo-46" value="60" style="whiteSpace=wrap;html=1;aspect=fixed;fontFamily=Fira Code;" parent="cI2RMdePJKhFmjNJXyIo-1" vertex="1">
                    <mxGeometry x="-1080" y="200" width="40" height="40" as="geometry"/>
                </mxCell>
                <mxCell id="cI2RMdePJKhFmjNJXyIo-47" value="" style="whiteSpace=wrap;html=1;aspect=fixed;fontFamily=Fira Code;" parent="cI2RMdePJKhFmjNJXyIo-1" vertex="1">
                    <mxGeometry x="-1040" y="200" width="40" height="40" as="geometry"/>
                </mxCell>
                <mxCell id="cI2RMdePJKhFmjNJXyIo-48" value="" style="whiteSpace=wrap;html=1;aspect=fixed;fontFamily=Fira Code;" parent="cI2RMdePJKhFmjNJXyIo-1" vertex="1">
                    <mxGeometry x="-1000" y="200" width="40" height="40" as="geometry"/>
                </mxCell>
                <mxCell id="cI2RMdePJKhFmjNJXyIo-50" value="20" style="whiteSpace=wrap;html=1;aspect=fixed;fontFamily=Fira Code;" parent="cI2RMdePJKhFmjNJXyIo-1" vertex="1">
                    <mxGeometry x="-1240" y="200" width="40" height="40" as="geometry"/>
                </mxCell>
                <mxCell id="cI2RMdePJKhFmjNJXyIo-51" value="30" style="whiteSpace=wrap;html=1;aspect=fixed;fontFamily=Fira Code;" parent="cI2RMdePJKhFmjNJXyIo-1" vertex="1">
                    <mxGeometry x="-1200" y="200" width="40" height="40" as="geometry"/>
                </mxCell>
                <mxCell id="cI2RMdePJKhFmjNJXyIo-52" value="40" style="whiteSpace=wrap;html=1;aspect=fixed;fontFamily=Fira Code;" parent="cI2RMdePJKhFmjNJXyIo-1" vertex="1">
                    <mxGeometry x="-1160" y="200" width="40" height="40" as="geometry"/>
                </mxCell>
            </root>
        </mxGraphModel>
    </diagram>
    <diagram name="Copy of Copy of Copy of Copy of Copy of Copy of Copy of Copy of Copy of Copy of Copy of Copy of Copy of Copy of Copy of Copy of Copy of Copy of Copy of Copy of Copy of Copy of Page-1" id="CYb--1GOoJrxVopEPlJO">
        <mxGraphModel dx="3002" dy="860" grid="1" gridSize="10" guides="1" tooltips="1" connect="1" arrows="1" fold="1" page="1" pageScale="1" pageWidth="800" pageHeight="800" math="0" shadow="0">
            <root>
                <mxCell id="KvkLB6o-ypEuF5c_QKpv-0"/>
                <mxCell id="KvkLB6o-ypEuF5c_QKpv-1" parent="KvkLB6o-ypEuF5c_QKpv-0"/>
                <mxCell id="KvkLB6o-ypEuF5c_QKpv-2" style="edgeStyle=none;rounded=0;orthogonalLoop=1;jettySize=auto;html=1;exitX=0;exitY=1;exitDx=0;exitDy=0;entryX=0.5;entryY=0;entryDx=0;entryDy=0;endArrow=none;endFill=0;" parent="KvkLB6o-ypEuF5c_QKpv-1" source="KvkLB6o-ypEuF5c_QKpv-4" target="KvkLB6o-ypEuF5c_QKpv-10" edge="1">
                    <mxGeometry relative="1" as="geometry"/>
                </mxCell>
                <mxCell id="KvkLB6o-ypEuF5c_QKpv-3" style="edgeStyle=none;rounded=0;orthogonalLoop=1;jettySize=auto;html=1;exitX=1;exitY=1;exitDx=0;exitDy=0;entryX=0.5;entryY=0;entryDx=0;entryDy=0;endArrow=none;endFill=0;" parent="KvkLB6o-ypEuF5c_QKpv-1" source="KvkLB6o-ypEuF5c_QKpv-4" target="KvkLB6o-ypEuF5c_QKpv-15" edge="1">
                    <mxGeometry relative="1" as="geometry"/>
                </mxCell>
                <mxCell id="KvkLB6o-ypEuF5c_QKpv-4" value="70" style="whiteSpace=wrap;html=1;aspect=fixed;fontFamily=Fira Code;" parent="KvkLB6o-ypEuF5c_QKpv-1" vertex="1">
                    <mxGeometry x="-40" y="40" width="40" height="40" as="geometry"/>
                </mxCell>
                <mxCell id="KvkLB6o-ypEuF5c_QKpv-5" value="" style="whiteSpace=wrap;html=1;aspect=fixed;fontFamily=Fira Code;" parent="KvkLB6o-ypEuF5c_QKpv-1" vertex="1">
                    <mxGeometry y="40" width="40" height="40" as="geometry"/>
                </mxCell>
                <mxCell id="KvkLB6o-ypEuF5c_QKpv-6" value="" style="whiteSpace=wrap;html=1;aspect=fixed;fontFamily=Fira Code;" parent="KvkLB6o-ypEuF5c_QKpv-1" vertex="1">
                    <mxGeometry x="40" y="40" width="40" height="40" as="geometry"/>
                </mxCell>
                <mxCell id="KvkLB6o-ypEuF5c_QKpv-7" style="edgeStyle=none;rounded=0;orthogonalLoop=1;jettySize=auto;html=1;exitX=0;exitY=1;exitDx=0;exitDy=0;entryX=0.5;entryY=0;entryDx=0;entryDy=0;endArrow=none;endFill=0;" parent="KvkLB6o-ypEuF5c_QKpv-1" source="KvkLB6o-ypEuF5c_QKpv-8" target="KvkLB6o-ypEuF5c_QKpv-27" edge="1">
                    <mxGeometry relative="1" as="geometry"/>
                </mxCell>
                <mxCell id="KvkLB6o-ypEuF5c_QKpv-8" value="30" style="whiteSpace=wrap;html=1;aspect=fixed;fontFamily=Fira Code;" parent="KvkLB6o-ypEuF5c_QKpv-1" vertex="1">
                    <mxGeometry x="-1000" y="120" width="40" height="40" as="geometry"/>
                </mxCell>
                <mxCell id="KvkLB6o-ypEuF5c_QKpv-9" style="edgeStyle=none;rounded=0;orthogonalLoop=1;jettySize=auto;html=1;exitX=0;exitY=1;exitDx=0;exitDy=0;entryX=0.5;entryY=0;entryDx=0;entryDy=0;endArrow=none;endFill=0;" parent="KvkLB6o-ypEuF5c_QKpv-1" source="KvkLB6o-ypEuF5c_QKpv-10" target="KvkLB6o-ypEuF5c_QKpv-24" edge="1">
                    <mxGeometry relative="1" as="geometry"/>
                </mxCell>
                <mxCell id="KvkLB6o-ypEuF5c_QKpv-10" value="50" style="whiteSpace=wrap;html=1;aspect=fixed;fontFamily=Fira Code;" parent="KvkLB6o-ypEuF5c_QKpv-1" vertex="1">
                    <mxGeometry x="-960" y="120" width="40" height="40" as="geometry"/>
                </mxCell>
                <mxCell id="KvkLB6o-ypEuF5c_QKpv-11" value="" style="whiteSpace=wrap;html=1;aspect=fixed;fontFamily=Fira Code;" parent="KvkLB6o-ypEuF5c_QKpv-1" vertex="1">
                    <mxGeometry x="-920" y="120" width="40" height="40" as="geometry"/>
                </mxCell>
                <mxCell id="KvkLB6o-ypEuF5c_QKpv-12" style="edgeStyle=none;rounded=0;orthogonalLoop=1;jettySize=auto;html=1;exitX=0;exitY=1;exitDx=0;exitDy=0;entryX=0.5;entryY=0;entryDx=0;entryDy=0;endArrow=none;endFill=0;" parent="KvkLB6o-ypEuF5c_QKpv-1" source="KvkLB6o-ypEuF5c_QKpv-13" target="KvkLB6o-ypEuF5c_QKpv-21" edge="1">
                    <mxGeometry relative="1" as="geometry"/>
                </mxCell>
                <mxCell id="KvkLB6o-ypEuF5c_QKpv-13" value="90" style="whiteSpace=wrap;html=1;aspect=fixed;fontFamily=Fira Code;" parent="KvkLB6o-ypEuF5c_QKpv-1" vertex="1">
                    <mxGeometry x="-360" y="120" width="40" height="40" as="geometry"/>
                </mxCell>
                <mxCell id="KvkLB6o-ypEuF5c_QKpv-14" style="edgeStyle=none;rounded=0;orthogonalLoop=1;jettySize=auto;html=1;exitX=0;exitY=1;exitDx=0;exitDy=0;entryX=0.5;entryY=0;entryDx=0;entryDy=0;endArrow=none;endFill=0;" parent="KvkLB6o-ypEuF5c_QKpv-1" source="KvkLB6o-ypEuF5c_QKpv-15" target="KvkLB6o-ypEuF5c_QKpv-18" edge="1">
                    <mxGeometry relative="1" as="geometry"/>
                </mxCell>
                <mxCell id="KvkLB6o-ypEuF5c_QKpv-15" value="" style="whiteSpace=wrap;html=1;aspect=fixed;fontFamily=Fira Code;" parent="KvkLB6o-ypEuF5c_QKpv-1" vertex="1">
                    <mxGeometry x="-320" y="120" width="40" height="40" as="geometry"/>
                </mxCell>
                <mxCell id="KvkLB6o-ypEuF5c_QKpv-16" value="" style="whiteSpace=wrap;html=1;aspect=fixed;fontFamily=Fira Code;" parent="KvkLB6o-ypEuF5c_QKpv-1" vertex="1">
                    <mxGeometry x="-280" y="120" width="40" height="40" as="geometry"/>
                </mxCell>
                <mxCell id="KvkLB6o-ypEuF5c_QKpv-17" value="100" style="whiteSpace=wrap;html=1;aspect=fixed;fontFamily=Fira Code;" parent="KvkLB6o-ypEuF5c_QKpv-1" vertex="1">
                    <mxGeometry x="-440" y="200" width="40" height="40" as="geometry"/>
                </mxCell>
                <mxCell id="KvkLB6o-ypEuF5c_QKpv-18" value="" style="whiteSpace=wrap;html=1;aspect=fixed;fontFamily=Fira Code;" parent="KvkLB6o-ypEuF5c_QKpv-1" vertex="1">
                    <mxGeometry x="-400" y="200" width="40" height="40" as="geometry"/>
                </mxCell>
                <mxCell id="KvkLB6o-ypEuF5c_QKpv-19" value="" style="whiteSpace=wrap;html=1;aspect=fixed;fontFamily=Fira Code;" parent="KvkLB6o-ypEuF5c_QKpv-1" vertex="1">
                    <mxGeometry x="-360" y="200" width="40" height="40" as="geometry"/>
                </mxCell>
                <mxCell id="KvkLB6o-ypEuF5c_QKpv-20" value="80" style="whiteSpace=wrap;html=1;aspect=fixed;fontFamily=Fira Code;" parent="KvkLB6o-ypEuF5c_QKpv-1" vertex="1">
                    <mxGeometry x="-600" y="200" width="40" height="40" as="geometry"/>
                </mxCell>
                <mxCell id="KvkLB6o-ypEuF5c_QKpv-21" value="" style="whiteSpace=wrap;html=1;aspect=fixed;fontFamily=Fira Code;" parent="KvkLB6o-ypEuF5c_QKpv-1" vertex="1">
                    <mxGeometry x="-560" y="200" width="40" height="40" as="geometry"/>
                </mxCell>
                <mxCell id="KvkLB6o-ypEuF5c_QKpv-22" value="" style="whiteSpace=wrap;html=1;aspect=fixed;fontFamily=Fira Code;" parent="KvkLB6o-ypEuF5c_QKpv-1" vertex="1">
                    <mxGeometry x="-520" y="200" width="40" height="40" as="geometry"/>
                </mxCell>
                <mxCell id="KvkLB6o-ypEuF5c_QKpv-23" value="60" style="whiteSpace=wrap;html=1;aspect=fixed;fontFamily=Fira Code;" parent="KvkLB6o-ypEuF5c_QKpv-1" vertex="1">
                    <mxGeometry x="-1080" y="200" width="40" height="40" as="geometry"/>
                </mxCell>
                <mxCell id="KvkLB6o-ypEuF5c_QKpv-24" value="" style="whiteSpace=wrap;html=1;aspect=fixed;fontFamily=Fira Code;" parent="KvkLB6o-ypEuF5c_QKpv-1" vertex="1">
                    <mxGeometry x="-1040" y="200" width="40" height="40" as="geometry"/>
                </mxCell>
                <mxCell id="KvkLB6o-ypEuF5c_QKpv-25" value="" style="whiteSpace=wrap;html=1;aspect=fixed;fontFamily=Fira Code;" parent="KvkLB6o-ypEuF5c_QKpv-1" vertex="1">
                    <mxGeometry x="-1000" y="200" width="40" height="40" as="geometry"/>
                </mxCell>
                <mxCell id="KvkLB6o-ypEuF5c_QKpv-26" value="20" style="whiteSpace=wrap;html=1;aspect=fixed;fontFamily=Fira Code;" parent="KvkLB6o-ypEuF5c_QKpv-1" vertex="1">
                    <mxGeometry x="-1240" y="200" width="40" height="40" as="geometry"/>
                </mxCell>
                <mxCell id="KvkLB6o-ypEuF5c_QKpv-27" value="40" style="whiteSpace=wrap;html=1;aspect=fixed;fontFamily=Fira Code;" parent="KvkLB6o-ypEuF5c_QKpv-1" vertex="1">
                    <mxGeometry x="-1200" y="200" width="40" height="40" as="geometry"/>
                </mxCell>
                <mxCell id="KvkLB6o-ypEuF5c_QKpv-28" value="" style="whiteSpace=wrap;html=1;aspect=fixed;fontFamily=Fira Code;" parent="KvkLB6o-ypEuF5c_QKpv-1" vertex="1">
                    <mxGeometry x="-1160" y="200" width="40" height="40" as="geometry"/>
                </mxCell>
            </root>
        </mxGraphModel>
    </diagram>
    <diagram name="Copy of Copy of Copy of Copy of Copy of Copy of Copy of Copy of Copy of Copy of Copy of Copy of Copy of Copy of Copy of Copy of Copy of Copy of Copy of Copy of Copy of Copy of Copy of Page-1" id="C80oQu3qqZd5FkMUqXhx">
        <mxGraphModel dx="3002" dy="860" grid="1" gridSize="10" guides="1" tooltips="1" connect="1" arrows="1" fold="1" page="1" pageScale="1" pageWidth="800" pageHeight="800" math="0" shadow="0">
            <root>
                <mxCell id="KHNhgi6L7Yyo3DstSIyn-0"/>
                <mxCell id="KHNhgi6L7Yyo3DstSIyn-1" parent="KHNhgi6L7Yyo3DstSIyn-0"/>
                <mxCell id="KHNhgi6L7Yyo3DstSIyn-2" style="edgeStyle=none;rounded=0;orthogonalLoop=1;jettySize=auto;html=1;exitX=0;exitY=1;exitDx=0;exitDy=0;entryX=0.5;entryY=0;entryDx=0;entryDy=0;endArrow=none;endFill=0;" parent="KHNhgi6L7Yyo3DstSIyn-1" source="KHNhgi6L7Yyo3DstSIyn-4" target="KHNhgi6L7Yyo3DstSIyn-10" edge="1">
                    <mxGeometry relative="1" as="geometry"/>
                </mxCell>
                <mxCell id="KHNhgi6L7Yyo3DstSIyn-3" style="edgeStyle=none;rounded=0;orthogonalLoop=1;jettySize=auto;html=1;exitX=1;exitY=1;exitDx=0;exitDy=0;entryX=0.5;entryY=0;entryDx=0;entryDy=0;endArrow=none;endFill=0;" parent="KHNhgi6L7Yyo3DstSIyn-1" source="KHNhgi6L7Yyo3DstSIyn-4" target="KHNhgi6L7Yyo3DstSIyn-15" edge="1">
                    <mxGeometry relative="1" as="geometry"/>
                </mxCell>
                <mxCell id="KHNhgi6L7Yyo3DstSIyn-4" value="70" style="whiteSpace=wrap;html=1;aspect=fixed;fontFamily=Fira Code;" parent="KHNhgi6L7Yyo3DstSIyn-1" vertex="1">
                    <mxGeometry x="-40" y="40" width="40" height="40" as="geometry"/>
                </mxCell>
                <mxCell id="KHNhgi6L7Yyo3DstSIyn-5" value="" style="whiteSpace=wrap;html=1;aspect=fixed;fontFamily=Fira Code;" parent="KHNhgi6L7Yyo3DstSIyn-1" vertex="1">
                    <mxGeometry y="40" width="40" height="40" as="geometry"/>
                </mxCell>
                <mxCell id="KHNhgi6L7Yyo3DstSIyn-6" value="" style="whiteSpace=wrap;html=1;aspect=fixed;fontFamily=Fira Code;" parent="KHNhgi6L7Yyo3DstSIyn-1" vertex="1">
                    <mxGeometry x="40" y="40" width="40" height="40" as="geometry"/>
                </mxCell>
                <mxCell id="KHNhgi6L7Yyo3DstSIyn-7" style="edgeStyle=none;rounded=0;orthogonalLoop=1;jettySize=auto;html=1;exitX=0;exitY=1;exitDx=0;exitDy=0;entryX=0.5;entryY=0;entryDx=0;entryDy=0;endArrow=none;endFill=0;" parent="KHNhgi6L7Yyo3DstSIyn-1" source="KHNhgi6L7Yyo3DstSIyn-8" target="KHNhgi6L7Yyo3DstSIyn-27" edge="1">
                    <mxGeometry relative="1" as="geometry"/>
                </mxCell>
                <mxCell id="KHNhgi6L7Yyo3DstSIyn-8" value="30" style="whiteSpace=wrap;html=1;aspect=fixed;fontFamily=Fira Code;" parent="KHNhgi6L7Yyo3DstSIyn-1" vertex="1">
                    <mxGeometry x="-1000" y="120" width="40" height="40" as="geometry"/>
                </mxCell>
                <mxCell id="KHNhgi6L7Yyo3DstSIyn-9" style="edgeStyle=none;rounded=0;orthogonalLoop=1;jettySize=auto;html=1;exitX=0;exitY=1;exitDx=0;exitDy=0;entryX=0.5;entryY=0;entryDx=0;entryDy=0;endArrow=none;endFill=0;" parent="KHNhgi6L7Yyo3DstSIyn-1" source="KHNhgi6L7Yyo3DstSIyn-10" target="KHNhgi6L7Yyo3DstSIyn-24" edge="1">
                    <mxGeometry relative="1" as="geometry"/>
                </mxCell>
                <mxCell id="KHNhgi6L7Yyo3DstSIyn-10" value="50" style="whiteSpace=wrap;html=1;aspect=fixed;fontFamily=Fira Code;" parent="KHNhgi6L7Yyo3DstSIyn-1" vertex="1">
                    <mxGeometry x="-960" y="120" width="40" height="40" as="geometry"/>
                </mxCell>
                <mxCell id="KHNhgi6L7Yyo3DstSIyn-32" style="edgeStyle=none;rounded=0;orthogonalLoop=1;jettySize=auto;html=1;exitX=0;exitY=1;exitDx=0;exitDy=0;entryX=0.5;entryY=0;entryDx=0;entryDy=0;endArrow=none;endFill=0;" parent="KHNhgi6L7Yyo3DstSIyn-1" source="KHNhgi6L7Yyo3DstSIyn-11" target="KHNhgi6L7Yyo3DstSIyn-30" edge="1">
                    <mxGeometry relative="1" as="geometry"/>
                </mxCell>
                <mxCell id="KHNhgi6L7Yyo3DstSIyn-11" value="" style="whiteSpace=wrap;html=1;aspect=fixed;fontFamily=Fira Code;" parent="KHNhgi6L7Yyo3DstSIyn-1" vertex="1">
                    <mxGeometry x="-920" y="120" width="40" height="40" as="geometry"/>
                </mxCell>
                <mxCell id="KHNhgi6L7Yyo3DstSIyn-12" style="edgeStyle=none;rounded=0;orthogonalLoop=1;jettySize=auto;html=1;exitX=0;exitY=1;exitDx=0;exitDy=0;entryX=0.5;entryY=0;entryDx=0;entryDy=0;endArrow=none;endFill=0;" parent="KHNhgi6L7Yyo3DstSIyn-1" source="KHNhgi6L7Yyo3DstSIyn-13" target="KHNhgi6L7Yyo3DstSIyn-21" edge="1">
                    <mxGeometry relative="1" as="geometry"/>
                </mxCell>
                <mxCell id="KHNhgi6L7Yyo3DstSIyn-13" value="90" style="whiteSpace=wrap;html=1;aspect=fixed;fontFamily=Fira Code;" parent="KHNhgi6L7Yyo3DstSIyn-1" vertex="1">
                    <mxGeometry x="-360" y="120" width="40" height="40" as="geometry"/>
                </mxCell>
                <mxCell id="KHNhgi6L7Yyo3DstSIyn-14" style="edgeStyle=none;rounded=0;orthogonalLoop=1;jettySize=auto;html=1;exitX=0;exitY=1;exitDx=0;exitDy=0;entryX=0.5;entryY=0;entryDx=0;entryDy=0;endArrow=none;endFill=0;" parent="KHNhgi6L7Yyo3DstSIyn-1" source="KHNhgi6L7Yyo3DstSIyn-15" target="KHNhgi6L7Yyo3DstSIyn-18" edge="1">
                    <mxGeometry relative="1" as="geometry"/>
                </mxCell>
                <mxCell id="KHNhgi6L7Yyo3DstSIyn-15" value="" style="whiteSpace=wrap;html=1;aspect=fixed;fontFamily=Fira Code;" parent="KHNhgi6L7Yyo3DstSIyn-1" vertex="1">
                    <mxGeometry x="-320" y="120" width="40" height="40" as="geometry"/>
                </mxCell>
                <mxCell id="KHNhgi6L7Yyo3DstSIyn-16" value="" style="whiteSpace=wrap;html=1;aspect=fixed;fontFamily=Fira Code;" parent="KHNhgi6L7Yyo3DstSIyn-1" vertex="1">
                    <mxGeometry x="-280" y="120" width="40" height="40" as="geometry"/>
                </mxCell>
                <mxCell id="KHNhgi6L7Yyo3DstSIyn-17" value="100" style="whiteSpace=wrap;html=1;aspect=fixed;fontFamily=Fira Code;" parent="KHNhgi6L7Yyo3DstSIyn-1" vertex="1">
                    <mxGeometry x="-440" y="200" width="40" height="40" as="geometry"/>
                </mxCell>
                <mxCell id="KHNhgi6L7Yyo3DstSIyn-18" value="" style="whiteSpace=wrap;html=1;aspect=fixed;fontFamily=Fira Code;" parent="KHNhgi6L7Yyo3DstSIyn-1" vertex="1">
                    <mxGeometry x="-400" y="200" width="40" height="40" as="geometry"/>
                </mxCell>
                <mxCell id="KHNhgi6L7Yyo3DstSIyn-19" value="" style="whiteSpace=wrap;html=1;aspect=fixed;fontFamily=Fira Code;" parent="KHNhgi6L7Yyo3DstSIyn-1" vertex="1">
                    <mxGeometry x="-360" y="200" width="40" height="40" as="geometry"/>
                </mxCell>
                <mxCell id="KHNhgi6L7Yyo3DstSIyn-20" value="80" style="whiteSpace=wrap;html=1;aspect=fixed;fontFamily=Fira Code;" parent="KHNhgi6L7Yyo3DstSIyn-1" vertex="1">
                    <mxGeometry x="-600" y="200" width="40" height="40" as="geometry"/>
                </mxCell>
                <mxCell id="KHNhgi6L7Yyo3DstSIyn-21" value="" style="whiteSpace=wrap;html=1;aspect=fixed;fontFamily=Fira Code;" parent="KHNhgi6L7Yyo3DstSIyn-1" vertex="1">
                    <mxGeometry x="-560" y="200" width="40" height="40" as="geometry"/>
                </mxCell>
                <mxCell id="KHNhgi6L7Yyo3DstSIyn-22" value="" style="whiteSpace=wrap;html=1;aspect=fixed;fontFamily=Fira Code;" parent="KHNhgi6L7Yyo3DstSIyn-1" vertex="1">
                    <mxGeometry x="-520" y="200" width="40" height="40" as="geometry"/>
                </mxCell>
                <mxCell id="KHNhgi6L7Yyo3DstSIyn-23" value="60" style="whiteSpace=wrap;html=1;aspect=fixed;fontFamily=Fira Code;" parent="KHNhgi6L7Yyo3DstSIyn-1" vertex="1">
                    <mxGeometry x="-1080" y="200" width="40" height="40" as="geometry"/>
                </mxCell>
                <mxCell id="KHNhgi6L7Yyo3DstSIyn-24" value="" style="whiteSpace=wrap;html=1;aspect=fixed;fontFamily=Fira Code;" parent="KHNhgi6L7Yyo3DstSIyn-1" vertex="1">
                    <mxGeometry x="-1040" y="200" width="40" height="40" as="geometry"/>
                </mxCell>
                <mxCell id="KHNhgi6L7Yyo3DstSIyn-25" value="" style="whiteSpace=wrap;html=1;aspect=fixed;fontFamily=Fira Code;" parent="KHNhgi6L7Yyo3DstSIyn-1" vertex="1">
                    <mxGeometry x="-1000" y="200" width="40" height="40" as="geometry"/>
                </mxCell>
                <mxCell id="KHNhgi6L7Yyo3DstSIyn-26" value="20" style="whiteSpace=wrap;html=1;aspect=fixed;fontFamily=Fira Code;" parent="KHNhgi6L7Yyo3DstSIyn-1" vertex="1">
                    <mxGeometry x="-1240" y="200" width="40" height="40" as="geometry"/>
                </mxCell>
                <mxCell id="KHNhgi6L7Yyo3DstSIyn-27" value="40" style="whiteSpace=wrap;html=1;aspect=fixed;fontFamily=Fira Code;" parent="KHNhgi6L7Yyo3DstSIyn-1" vertex="1">
                    <mxGeometry x="-1200" y="200" width="40" height="40" as="geometry"/>
                </mxCell>
                <mxCell id="KHNhgi6L7Yyo3DstSIyn-28" value="" style="whiteSpace=wrap;html=1;aspect=fixed;fontFamily=Fira Code;" parent="KHNhgi6L7Yyo3DstSIyn-1" vertex="1">
                    <mxGeometry x="-1160" y="200" width="40" height="40" as="geometry"/>
                </mxCell>
                <mxCell id="KHNhgi6L7Yyo3DstSIyn-29" value="" style="whiteSpace=wrap;html=1;aspect=fixed;fontFamily=Fira Code;" parent="KHNhgi6L7Yyo3DstSIyn-1" vertex="1">
                    <mxGeometry x="-920" y="200" width="40" height="40" as="geometry"/>
                </mxCell>
                <mxCell id="KHNhgi6L7Yyo3DstSIyn-30" value="" style="whiteSpace=wrap;html=1;aspect=fixed;fontFamily=Fira Code;" parent="KHNhgi6L7Yyo3DstSIyn-1" vertex="1">
                    <mxGeometry x="-880" y="200" width="40" height="40" as="geometry"/>
                </mxCell>
                <mxCell id="KHNhgi6L7Yyo3DstSIyn-31" value="" style="whiteSpace=wrap;html=1;aspect=fixed;fontFamily=Fira Code;" parent="KHNhgi6L7Yyo3DstSIyn-1" vertex="1">
                    <mxGeometry x="-840" y="200" width="40" height="40" as="geometry"/>
                </mxCell>
            </root>
        </mxGraphModel>
    </diagram>
    <diagram name="Copy of Copy of Copy of Copy of Copy of Copy of Copy of Copy of Copy of Copy of Copy of Copy of Copy of Copy of Copy of Copy of Copy of Copy of Copy of Copy of Copy of Copy of Copy of Copy of Page-1" id="baTceBKuVFoUlh_bPwpV">
        <mxGraphModel dx="3002" dy="860" grid="1" gridSize="10" guides="1" tooltips="1" connect="1" arrows="1" fold="1" page="1" pageScale="1" pageWidth="800" pageHeight="800" math="0" shadow="0">
            <root>
                <mxCell id="Eb5zVFiJ25XmtXNkW9QV-0"/>
                <mxCell id="Eb5zVFiJ25XmtXNkW9QV-1" parent="Eb5zVFiJ25XmtXNkW9QV-0"/>
                <mxCell id="Eb5zVFiJ25XmtXNkW9QV-2" style="edgeStyle=none;rounded=0;orthogonalLoop=1;jettySize=auto;html=1;exitX=0;exitY=1;exitDx=0;exitDy=0;entryX=0.5;entryY=0;entryDx=0;entryDy=0;endArrow=none;endFill=0;" parent="Eb5zVFiJ25XmtXNkW9QV-1" source="Eb5zVFiJ25XmtXNkW9QV-4" target="Eb5zVFiJ25XmtXNkW9QV-10" edge="1">
                    <mxGeometry relative="1" as="geometry"/>
                </mxCell>
                <mxCell id="Eb5zVFiJ25XmtXNkW9QV-3" style="edgeStyle=none;rounded=0;orthogonalLoop=1;jettySize=auto;html=1;exitX=1;exitY=1;exitDx=0;exitDy=0;entryX=0.5;entryY=0;entryDx=0;entryDy=0;endArrow=none;endFill=0;" parent="Eb5zVFiJ25XmtXNkW9QV-1" source="Eb5zVFiJ25XmtXNkW9QV-4" target="Eb5zVFiJ25XmtXNkW9QV-16" edge="1">
                    <mxGeometry relative="1" as="geometry"/>
                </mxCell>
                <mxCell id="Eb5zVFiJ25XmtXNkW9QV-4" value="70" style="whiteSpace=wrap;html=1;aspect=fixed;fontFamily=Fira Code;" parent="Eb5zVFiJ25XmtXNkW9QV-1" vertex="1">
                    <mxGeometry x="-40" y="40" width="40" height="40" as="geometry"/>
                </mxCell>
                <mxCell id="Eb5zVFiJ25XmtXNkW9QV-5" value="" style="whiteSpace=wrap;html=1;aspect=fixed;fontFamily=Fira Code;" parent="Eb5zVFiJ25XmtXNkW9QV-1" vertex="1">
                    <mxGeometry y="40" width="40" height="40" as="geometry"/>
                </mxCell>
                <mxCell id="Eb5zVFiJ25XmtXNkW9QV-6" value="" style="whiteSpace=wrap;html=1;aspect=fixed;fontFamily=Fira Code;" parent="Eb5zVFiJ25XmtXNkW9QV-1" vertex="1">
                    <mxGeometry x="40" y="40" width="40" height="40" as="geometry"/>
                </mxCell>
                <mxCell id="Eb5zVFiJ25XmtXNkW9QV-7" style="edgeStyle=none;rounded=0;orthogonalLoop=1;jettySize=auto;html=1;exitX=0;exitY=1;exitDx=0;exitDy=0;entryX=0.5;entryY=0;entryDx=0;entryDy=0;endArrow=none;endFill=0;" parent="Eb5zVFiJ25XmtXNkW9QV-1" source="Eb5zVFiJ25XmtXNkW9QV-8" target="Eb5zVFiJ25XmtXNkW9QV-28" edge="1">
                    <mxGeometry relative="1" as="geometry"/>
                </mxCell>
                <mxCell id="Eb5zVFiJ25XmtXNkW9QV-8" value="30" style="whiteSpace=wrap;html=1;aspect=fixed;fontFamily=Fira Code;" parent="Eb5zVFiJ25XmtXNkW9QV-1" vertex="1">
                    <mxGeometry x="-1000" y="120" width="40" height="40" as="geometry"/>
                </mxCell>
                <mxCell id="Eb5zVFiJ25XmtXNkW9QV-9" style="edgeStyle=none;rounded=0;orthogonalLoop=1;jettySize=auto;html=1;exitX=0;exitY=1;exitDx=0;exitDy=0;entryX=0.5;entryY=0;entryDx=0;entryDy=0;endArrow=none;endFill=0;" parent="Eb5zVFiJ25XmtXNkW9QV-1" source="Eb5zVFiJ25XmtXNkW9QV-10" target="Eb5zVFiJ25XmtXNkW9QV-25" edge="1">
                    <mxGeometry relative="1" as="geometry"/>
                </mxCell>
                <mxCell id="Eb5zVFiJ25XmtXNkW9QV-10" value="50" style="whiteSpace=wrap;html=1;aspect=fixed;fontFamily=Fira Code;" parent="Eb5zVFiJ25XmtXNkW9QV-1" vertex="1">
                    <mxGeometry x="-960" y="120" width="40" height="40" as="geometry"/>
                </mxCell>
                <mxCell id="Eb5zVFiJ25XmtXNkW9QV-11" style="edgeStyle=none;rounded=0;orthogonalLoop=1;jettySize=auto;html=1;exitX=0;exitY=1;exitDx=0;exitDy=0;entryX=0.5;entryY=0;entryDx=0;entryDy=0;endArrow=none;endFill=0;" parent="Eb5zVFiJ25XmtXNkW9QV-1" source="Eb5zVFiJ25XmtXNkW9QV-12" target="Eb5zVFiJ25XmtXNkW9QV-31" edge="1">
                    <mxGeometry relative="1" as="geometry"/>
                </mxCell>
                <mxCell id="Eb5zVFiJ25XmtXNkW9QV-12" value="" style="whiteSpace=wrap;html=1;aspect=fixed;fontFamily=Fira Code;" parent="Eb5zVFiJ25XmtXNkW9QV-1" vertex="1">
                    <mxGeometry x="-920" y="120" width="40" height="40" as="geometry"/>
                </mxCell>
                <mxCell id="Eb5zVFiJ25XmtXNkW9QV-13" style="edgeStyle=none;rounded=0;orthogonalLoop=1;jettySize=auto;html=1;exitX=0;exitY=1;exitDx=0;exitDy=0;entryX=0.5;entryY=0;entryDx=0;entryDy=0;endArrow=none;endFill=0;" parent="Eb5zVFiJ25XmtXNkW9QV-1" source="Eb5zVFiJ25XmtXNkW9QV-14" target="Eb5zVFiJ25XmtXNkW9QV-22" edge="1">
                    <mxGeometry relative="1" as="geometry"/>
                </mxCell>
                <mxCell id="Eb5zVFiJ25XmtXNkW9QV-14" value="90" style="whiteSpace=wrap;html=1;aspect=fixed;fontFamily=Fira Code;" parent="Eb5zVFiJ25XmtXNkW9QV-1" vertex="1">
                    <mxGeometry x="-360" y="120" width="40" height="40" as="geometry"/>
                </mxCell>
                <mxCell id="Eb5zVFiJ25XmtXNkW9QV-15" style="edgeStyle=none;rounded=0;orthogonalLoop=1;jettySize=auto;html=1;exitX=0;exitY=1;exitDx=0;exitDy=0;entryX=0.5;entryY=0;entryDx=0;entryDy=0;endArrow=none;endFill=0;" parent="Eb5zVFiJ25XmtXNkW9QV-1" source="Eb5zVFiJ25XmtXNkW9QV-16" target="Eb5zVFiJ25XmtXNkW9QV-19" edge="1">
                    <mxGeometry relative="1" as="geometry"/>
                </mxCell>
                <mxCell id="Eb5zVFiJ25XmtXNkW9QV-16" value="" style="whiteSpace=wrap;html=1;aspect=fixed;fontFamily=Fira Code;" parent="Eb5zVFiJ25XmtXNkW9QV-1" vertex="1">
                    <mxGeometry x="-320" y="120" width="40" height="40" as="geometry"/>
                </mxCell>
                <mxCell id="Eb5zVFiJ25XmtXNkW9QV-17" value="" style="whiteSpace=wrap;html=1;aspect=fixed;fontFamily=Fira Code;" parent="Eb5zVFiJ25XmtXNkW9QV-1" vertex="1">
                    <mxGeometry x="-280" y="120" width="40" height="40" as="geometry"/>
                </mxCell>
                <mxCell id="Eb5zVFiJ25XmtXNkW9QV-18" value="100" style="whiteSpace=wrap;html=1;aspect=fixed;fontFamily=Fira Code;" parent="Eb5zVFiJ25XmtXNkW9QV-1" vertex="1">
                    <mxGeometry x="-440" y="200" width="40" height="40" as="geometry"/>
                </mxCell>
                <mxCell id="Eb5zVFiJ25XmtXNkW9QV-19" value="" style="whiteSpace=wrap;html=1;aspect=fixed;fontFamily=Fira Code;" parent="Eb5zVFiJ25XmtXNkW9QV-1" vertex="1">
                    <mxGeometry x="-400" y="200" width="40" height="40" as="geometry"/>
                </mxCell>
                <mxCell id="Eb5zVFiJ25XmtXNkW9QV-20" value="" style="whiteSpace=wrap;html=1;aspect=fixed;fontFamily=Fira Code;" parent="Eb5zVFiJ25XmtXNkW9QV-1" vertex="1">
                    <mxGeometry x="-360" y="200" width="40" height="40" as="geometry"/>
                </mxCell>
                <mxCell id="Eb5zVFiJ25XmtXNkW9QV-21" value="80" style="whiteSpace=wrap;html=1;aspect=fixed;fontFamily=Fira Code;" parent="Eb5zVFiJ25XmtXNkW9QV-1" vertex="1">
                    <mxGeometry x="-600" y="200" width="40" height="40" as="geometry"/>
                </mxCell>
                <mxCell id="Eb5zVFiJ25XmtXNkW9QV-22" value="" style="whiteSpace=wrap;html=1;aspect=fixed;fontFamily=Fira Code;" parent="Eb5zVFiJ25XmtXNkW9QV-1" vertex="1">
                    <mxGeometry x="-560" y="200" width="40" height="40" as="geometry"/>
                </mxCell>
                <mxCell id="Eb5zVFiJ25XmtXNkW9QV-23" value="" style="whiteSpace=wrap;html=1;aspect=fixed;fontFamily=Fira Code;" parent="Eb5zVFiJ25XmtXNkW9QV-1" vertex="1">
                    <mxGeometry x="-520" y="200" width="40" height="40" as="geometry"/>
                </mxCell>
                <mxCell id="Eb5zVFiJ25XmtXNkW9QV-24" value="" style="whiteSpace=wrap;html=1;aspect=fixed;fontFamily=Fira Code;" parent="Eb5zVFiJ25XmtXNkW9QV-1" vertex="1">
                    <mxGeometry x="-1080" y="200" width="40" height="40" as="geometry"/>
                </mxCell>
                <mxCell id="Eb5zVFiJ25XmtXNkW9QV-25" value="" style="whiteSpace=wrap;html=1;aspect=fixed;fontFamily=Fira Code;" parent="Eb5zVFiJ25XmtXNkW9QV-1" vertex="1">
                    <mxGeometry x="-1040" y="200" width="40" height="40" as="geometry"/>
                </mxCell>
                <mxCell id="Eb5zVFiJ25XmtXNkW9QV-26" value="" style="whiteSpace=wrap;html=1;aspect=fixed;fontFamily=Fira Code;" parent="Eb5zVFiJ25XmtXNkW9QV-1" vertex="1">
                    <mxGeometry x="-1000" y="200" width="40" height="40" as="geometry"/>
                </mxCell>
                <mxCell id="Eb5zVFiJ25XmtXNkW9QV-27" value="20" style="whiteSpace=wrap;html=1;aspect=fixed;fontFamily=Fira Code;" parent="Eb5zVFiJ25XmtXNkW9QV-1" vertex="1">
                    <mxGeometry x="-1240" y="200" width="40" height="40" as="geometry"/>
                </mxCell>
                <mxCell id="Eb5zVFiJ25XmtXNkW9QV-28" value="40" style="whiteSpace=wrap;html=1;aspect=fixed;fontFamily=Fira Code;" parent="Eb5zVFiJ25XmtXNkW9QV-1" vertex="1">
                    <mxGeometry x="-1200" y="200" width="40" height="40" as="geometry"/>
                </mxCell>
                <mxCell id="Eb5zVFiJ25XmtXNkW9QV-29" value="" style="whiteSpace=wrap;html=1;aspect=fixed;fontFamily=Fira Code;" parent="Eb5zVFiJ25XmtXNkW9QV-1" vertex="1">
                    <mxGeometry x="-1160" y="200" width="40" height="40" as="geometry"/>
                </mxCell>
                <mxCell id="Eb5zVFiJ25XmtXNkW9QV-30" value="60" style="whiteSpace=wrap;html=1;aspect=fixed;fontFamily=Fira Code;" parent="Eb5zVFiJ25XmtXNkW9QV-1" vertex="1">
                    <mxGeometry x="-920" y="200" width="40" height="40" as="geometry"/>
                </mxCell>
                <mxCell id="Eb5zVFiJ25XmtXNkW9QV-31" value="" style="whiteSpace=wrap;html=1;aspect=fixed;fontFamily=Fira Code;" parent="Eb5zVFiJ25XmtXNkW9QV-1" vertex="1">
                    <mxGeometry x="-880" y="200" width="40" height="40" as="geometry"/>
                </mxCell>
                <mxCell id="Eb5zVFiJ25XmtXNkW9QV-32" value="" style="whiteSpace=wrap;html=1;aspect=fixed;fontFamily=Fira Code;" parent="Eb5zVFiJ25XmtXNkW9QV-1" vertex="1">
                    <mxGeometry x="-840" y="200" width="40" height="40" as="geometry"/>
                </mxCell>
            </root>
        </mxGraphModel>
    </diagram>
    <diagram name="Copy of Copy of Copy of Copy of Copy of Copy of Copy of Copy of Copy of Copy of Copy of Copy of Copy of Copy of Copy of Copy of Copy of Copy of Copy of Copy of Copy of Copy of Copy of Copy of Copy of Page-1" id="I0GjmeTxwv4goPT1KQQn">
        <mxGraphModel dx="3002" dy="860" grid="1" gridSize="10" guides="1" tooltips="1" connect="1" arrows="1" fold="1" page="1" pageScale="1" pageWidth="800" pageHeight="800" math="0" shadow="0">
            <root>
                <mxCell id="XOmBEGyw-KYlM5PjHsyL-0"/>
                <mxCell id="XOmBEGyw-KYlM5PjHsyL-1" parent="XOmBEGyw-KYlM5PjHsyL-0"/>
                <mxCell id="XOmBEGyw-KYlM5PjHsyL-2" style="edgeStyle=none;rounded=0;orthogonalLoop=1;jettySize=auto;html=1;exitX=0;exitY=1;exitDx=0;exitDy=0;entryX=0.5;entryY=0;entryDx=0;entryDy=0;endArrow=none;endFill=0;" parent="XOmBEGyw-KYlM5PjHsyL-1" source="XOmBEGyw-KYlM5PjHsyL-4" target="XOmBEGyw-KYlM5PjHsyL-10" edge="1">
                    <mxGeometry relative="1" as="geometry"/>
                </mxCell>
                <mxCell id="XOmBEGyw-KYlM5PjHsyL-3" style="edgeStyle=none;rounded=0;orthogonalLoop=1;jettySize=auto;html=1;exitX=1;exitY=1;exitDx=0;exitDy=0;entryX=0.5;entryY=0;entryDx=0;entryDy=0;endArrow=none;endFill=0;" parent="XOmBEGyw-KYlM5PjHsyL-1" source="XOmBEGyw-KYlM5PjHsyL-4" target="XOmBEGyw-KYlM5PjHsyL-16" edge="1">
                    <mxGeometry relative="1" as="geometry"/>
                </mxCell>
                <mxCell id="XOmBEGyw-KYlM5PjHsyL-4" value="70" style="whiteSpace=wrap;html=1;aspect=fixed;fontFamily=Fira Code;" parent="XOmBEGyw-KYlM5PjHsyL-1" vertex="1">
                    <mxGeometry x="-40" y="40" width="40" height="40" as="geometry"/>
                </mxCell>
                <mxCell id="XOmBEGyw-KYlM5PjHsyL-5" value="" style="whiteSpace=wrap;html=1;aspect=fixed;fontFamily=Fira Code;" parent="XOmBEGyw-KYlM5PjHsyL-1" vertex="1">
                    <mxGeometry y="40" width="40" height="40" as="geometry"/>
                </mxCell>
                <mxCell id="XOmBEGyw-KYlM5PjHsyL-6" value="" style="whiteSpace=wrap;html=1;aspect=fixed;fontFamily=Fira Code;" parent="XOmBEGyw-KYlM5PjHsyL-1" vertex="1">
                    <mxGeometry x="40" y="40" width="40" height="40" as="geometry"/>
                </mxCell>
                <mxCell id="XOmBEGyw-KYlM5PjHsyL-7" style="edgeStyle=none;rounded=0;orthogonalLoop=1;jettySize=auto;html=1;exitX=0;exitY=1;exitDx=0;exitDy=0;entryX=0.5;entryY=0;entryDx=0;entryDy=0;endArrow=none;endFill=0;" parent="XOmBEGyw-KYlM5PjHsyL-1" source="XOmBEGyw-KYlM5PjHsyL-8" target="XOmBEGyw-KYlM5PjHsyL-28" edge="1">
                    <mxGeometry relative="1" as="geometry"/>
                </mxCell>
                <mxCell id="XOmBEGyw-KYlM5PjHsyL-8" value="30" style="whiteSpace=wrap;html=1;aspect=fixed;fontFamily=Fira Code;" parent="XOmBEGyw-KYlM5PjHsyL-1" vertex="1">
                    <mxGeometry x="-1000" y="120" width="40" height="40" as="geometry"/>
                </mxCell>
                <mxCell id="XOmBEGyw-KYlM5PjHsyL-9" style="edgeStyle=none;rounded=0;orthogonalLoop=1;jettySize=auto;html=1;exitX=0;exitY=1;exitDx=0;exitDy=0;entryX=0.5;entryY=0;entryDx=0;entryDy=0;endArrow=none;endFill=0;" parent="XOmBEGyw-KYlM5PjHsyL-1" source="XOmBEGyw-KYlM5PjHsyL-10" target="XOmBEGyw-KYlM5PjHsyL-25" edge="1">
                    <mxGeometry relative="1" as="geometry"/>
                </mxCell>
                <mxCell id="XOmBEGyw-KYlM5PjHsyL-10" value="50" style="whiteSpace=wrap;html=1;aspect=fixed;fontFamily=Fira Code;" parent="XOmBEGyw-KYlM5PjHsyL-1" vertex="1">
                    <mxGeometry x="-960" y="120" width="40" height="40" as="geometry"/>
                </mxCell>
                <mxCell id="XOmBEGyw-KYlM5PjHsyL-11" style="edgeStyle=none;rounded=0;orthogonalLoop=1;jettySize=auto;html=1;exitX=0;exitY=1;exitDx=0;exitDy=0;entryX=0.5;entryY=0;entryDx=0;entryDy=0;endArrow=none;endFill=0;" parent="XOmBEGyw-KYlM5PjHsyL-1" source="XOmBEGyw-KYlM5PjHsyL-12" target="XOmBEGyw-KYlM5PjHsyL-31" edge="1">
                    <mxGeometry relative="1" as="geometry"/>
                </mxCell>
                <mxCell id="XOmBEGyw-KYlM5PjHsyL-12" value="" style="whiteSpace=wrap;html=1;aspect=fixed;fontFamily=Fira Code;" parent="XOmBEGyw-KYlM5PjHsyL-1" vertex="1">
                    <mxGeometry x="-920" y="120" width="40" height="40" as="geometry"/>
                </mxCell>
                <mxCell id="XOmBEGyw-KYlM5PjHsyL-13" style="edgeStyle=none;rounded=0;orthogonalLoop=1;jettySize=auto;html=1;exitX=0;exitY=1;exitDx=0;exitDy=0;entryX=0.5;entryY=0;entryDx=0;entryDy=0;endArrow=none;endFill=0;" parent="XOmBEGyw-KYlM5PjHsyL-1" source="XOmBEGyw-KYlM5PjHsyL-14" target="XOmBEGyw-KYlM5PjHsyL-22" edge="1">
                    <mxGeometry relative="1" as="geometry"/>
                </mxCell>
                <mxCell id="XOmBEGyw-KYlM5PjHsyL-14" value="90" style="whiteSpace=wrap;html=1;aspect=fixed;fontFamily=Fira Code;" parent="XOmBEGyw-KYlM5PjHsyL-1" vertex="1">
                    <mxGeometry x="-360" y="120" width="40" height="40" as="geometry"/>
                </mxCell>
                <mxCell id="XOmBEGyw-KYlM5PjHsyL-15" style="edgeStyle=none;rounded=0;orthogonalLoop=1;jettySize=auto;html=1;exitX=0;exitY=1;exitDx=0;exitDy=0;entryX=0.5;entryY=0;entryDx=0;entryDy=0;endArrow=none;endFill=0;" parent="XOmBEGyw-KYlM5PjHsyL-1" source="XOmBEGyw-KYlM5PjHsyL-16" target="XOmBEGyw-KYlM5PjHsyL-19" edge="1">
                    <mxGeometry relative="1" as="geometry"/>
                </mxCell>
                <mxCell id="XOmBEGyw-KYlM5PjHsyL-16" value="" style="whiteSpace=wrap;html=1;aspect=fixed;fontFamily=Fira Code;" parent="XOmBEGyw-KYlM5PjHsyL-1" vertex="1">
                    <mxGeometry x="-320" y="120" width="40" height="40" as="geometry"/>
                </mxCell>
                <mxCell id="XOmBEGyw-KYlM5PjHsyL-17" value="" style="whiteSpace=wrap;html=1;aspect=fixed;fontFamily=Fira Code;" parent="XOmBEGyw-KYlM5PjHsyL-1" vertex="1">
                    <mxGeometry x="-280" y="120" width="40" height="40" as="geometry"/>
                </mxCell>
                <mxCell id="XOmBEGyw-KYlM5PjHsyL-18" value="100" style="whiteSpace=wrap;html=1;aspect=fixed;fontFamily=Fira Code;" parent="XOmBEGyw-KYlM5PjHsyL-1" vertex="1">
                    <mxGeometry x="-440" y="200" width="40" height="40" as="geometry"/>
                </mxCell>
                <mxCell id="XOmBEGyw-KYlM5PjHsyL-19" value="" style="whiteSpace=wrap;html=1;aspect=fixed;fontFamily=Fira Code;" parent="XOmBEGyw-KYlM5PjHsyL-1" vertex="1">
                    <mxGeometry x="-400" y="200" width="40" height="40" as="geometry"/>
                </mxCell>
                <mxCell id="XOmBEGyw-KYlM5PjHsyL-20" value="" style="whiteSpace=wrap;html=1;aspect=fixed;fontFamily=Fira Code;" parent="XOmBEGyw-KYlM5PjHsyL-1" vertex="1">
                    <mxGeometry x="-360" y="200" width="40" height="40" as="geometry"/>
                </mxCell>
                <mxCell id="XOmBEGyw-KYlM5PjHsyL-21" value="80" style="whiteSpace=wrap;html=1;aspect=fixed;fontFamily=Fira Code;" parent="XOmBEGyw-KYlM5PjHsyL-1" vertex="1">
                    <mxGeometry x="-600" y="200" width="40" height="40" as="geometry"/>
                </mxCell>
                <mxCell id="XOmBEGyw-KYlM5PjHsyL-22" value="" style="whiteSpace=wrap;html=1;aspect=fixed;fontFamily=Fira Code;" parent="XOmBEGyw-KYlM5PjHsyL-1" vertex="1">
                    <mxGeometry x="-560" y="200" width="40" height="40" as="geometry"/>
                </mxCell>
                <mxCell id="XOmBEGyw-KYlM5PjHsyL-23" value="" style="whiteSpace=wrap;html=1;aspect=fixed;fontFamily=Fira Code;" parent="XOmBEGyw-KYlM5PjHsyL-1" vertex="1">
                    <mxGeometry x="-520" y="200" width="40" height="40" as="geometry"/>
                </mxCell>
                <mxCell id="XOmBEGyw-KYlM5PjHsyL-24" value="40" style="whiteSpace=wrap;html=1;aspect=fixed;fontFamily=Fira Code;" parent="XOmBEGyw-KYlM5PjHsyL-1" vertex="1">
                    <mxGeometry x="-1080" y="200" width="40" height="40" as="geometry"/>
                </mxCell>
                <mxCell id="XOmBEGyw-KYlM5PjHsyL-25" value="" style="whiteSpace=wrap;html=1;aspect=fixed;fontFamily=Fira Code;" parent="XOmBEGyw-KYlM5PjHsyL-1" vertex="1">
                    <mxGeometry x="-1040" y="200" width="40" height="40" as="geometry"/>
                </mxCell>
                <mxCell id="XOmBEGyw-KYlM5PjHsyL-26" value="" style="whiteSpace=wrap;html=1;aspect=fixed;fontFamily=Fira Code;" parent="XOmBEGyw-KYlM5PjHsyL-1" vertex="1">
                    <mxGeometry x="-1000" y="200" width="40" height="40" as="geometry"/>
                </mxCell>
                <mxCell id="XOmBEGyw-KYlM5PjHsyL-27" value="20" style="whiteSpace=wrap;html=1;aspect=fixed;fontFamily=Fira Code;" parent="XOmBEGyw-KYlM5PjHsyL-1" vertex="1">
                    <mxGeometry x="-1240" y="200" width="40" height="40" as="geometry"/>
                </mxCell>
                <mxCell id="XOmBEGyw-KYlM5PjHsyL-28" value="" style="whiteSpace=wrap;html=1;aspect=fixed;fontFamily=Fira Code;" parent="XOmBEGyw-KYlM5PjHsyL-1" vertex="1">
                    <mxGeometry x="-1200" y="200" width="40" height="40" as="geometry"/>
                </mxCell>
                <mxCell id="XOmBEGyw-KYlM5PjHsyL-29" value="" style="whiteSpace=wrap;html=1;aspect=fixed;fontFamily=Fira Code;" parent="XOmBEGyw-KYlM5PjHsyL-1" vertex="1">
                    <mxGeometry x="-1160" y="200" width="40" height="40" as="geometry"/>
                </mxCell>
                <mxCell id="XOmBEGyw-KYlM5PjHsyL-30" value="60" style="whiteSpace=wrap;html=1;aspect=fixed;fontFamily=Fira Code;" parent="XOmBEGyw-KYlM5PjHsyL-1" vertex="1">
                    <mxGeometry x="-920" y="200" width="40" height="40" as="geometry"/>
                </mxCell>
                <mxCell id="XOmBEGyw-KYlM5PjHsyL-31" value="" style="whiteSpace=wrap;html=1;aspect=fixed;fontFamily=Fira Code;" parent="XOmBEGyw-KYlM5PjHsyL-1" vertex="1">
                    <mxGeometry x="-880" y="200" width="40" height="40" as="geometry"/>
                </mxCell>
                <mxCell id="XOmBEGyw-KYlM5PjHsyL-32" value="" style="whiteSpace=wrap;html=1;aspect=fixed;fontFamily=Fira Code;" parent="XOmBEGyw-KYlM5PjHsyL-1" vertex="1">
                    <mxGeometry x="-840" y="200" width="40" height="40" as="geometry"/>
                </mxCell>
            </root>
        </mxGraphModel>
    </diagram>
    <diagram name="Copy of Copy of Copy of Copy of Copy of Copy of Copy of Copy of Copy of Copy of Copy of Copy of Copy of Copy of Copy of Copy of Copy of Copy of Copy of Copy of Copy of Copy of Copy of Copy of Copy of Copy of Page-1" id="wg2tb5xpATYBwQHhTZA9">
        <mxGraphModel dx="3002" dy="860" grid="1" gridSize="10" guides="1" tooltips="1" connect="1" arrows="1" fold="1" page="1" pageScale="1" pageWidth="800" pageHeight="800" math="0" shadow="0">
            <root>
                <mxCell id="4XlLCXsmJm0rlw988xkV-0"/>
                <mxCell id="4XlLCXsmJm0rlw988xkV-1" parent="4XlLCXsmJm0rlw988xkV-0"/>
                <mxCell id="4XlLCXsmJm0rlw988xkV-2" style="edgeStyle=none;rounded=0;orthogonalLoop=1;jettySize=auto;html=1;exitX=0;exitY=1;exitDx=0;exitDy=0;entryX=0.5;entryY=0;entryDx=0;entryDy=0;endArrow=none;endFill=0;" parent="4XlLCXsmJm0rlw988xkV-1" source="4XlLCXsmJm0rlw988xkV-4" target="4XlLCXsmJm0rlw988xkV-10" edge="1">
                    <mxGeometry relative="1" as="geometry"/>
                </mxCell>
                <mxCell id="4XlLCXsmJm0rlw988xkV-3" style="edgeStyle=none;rounded=0;orthogonalLoop=1;jettySize=auto;html=1;exitX=1;exitY=1;exitDx=0;exitDy=0;entryX=0.5;entryY=0;entryDx=0;entryDy=0;endArrow=none;endFill=0;" parent="4XlLCXsmJm0rlw988xkV-1" source="4XlLCXsmJm0rlw988xkV-4" target="4XlLCXsmJm0rlw988xkV-16" edge="1">
                    <mxGeometry relative="1" as="geometry"/>
                </mxCell>
                <mxCell id="4XlLCXsmJm0rlw988xkV-4" value="70" style="whiteSpace=wrap;html=1;aspect=fixed;fontFamily=Fira Code;" parent="4XlLCXsmJm0rlw988xkV-1" vertex="1">
                    <mxGeometry x="-40" y="40" width="40" height="40" as="geometry"/>
                </mxCell>
                <mxCell id="4XlLCXsmJm0rlw988xkV-5" value="" style="whiteSpace=wrap;html=1;aspect=fixed;fontFamily=Fira Code;" parent="4XlLCXsmJm0rlw988xkV-1" vertex="1">
                    <mxGeometry y="40" width="40" height="40" as="geometry"/>
                </mxCell>
                <mxCell id="4XlLCXsmJm0rlw988xkV-6" value="" style="whiteSpace=wrap;html=1;aspect=fixed;fontFamily=Fira Code;" parent="4XlLCXsmJm0rlw988xkV-1" vertex="1">
                    <mxGeometry x="40" y="40" width="40" height="40" as="geometry"/>
                </mxCell>
                <mxCell id="4XlLCXsmJm0rlw988xkV-7" style="edgeStyle=none;rounded=0;orthogonalLoop=1;jettySize=auto;html=1;exitX=0;exitY=1;exitDx=0;exitDy=0;entryX=0.5;entryY=0;entryDx=0;entryDy=0;endArrow=none;endFill=0;" parent="4XlLCXsmJm0rlw988xkV-1" source="4XlLCXsmJm0rlw988xkV-8" target="4XlLCXsmJm0rlw988xkV-28" edge="1">
                    <mxGeometry relative="1" as="geometry"/>
                </mxCell>
                <mxCell id="4XlLCXsmJm0rlw988xkV-8" value="30" style="whiteSpace=wrap;html=1;aspect=fixed;fontFamily=Fira Code;" parent="4XlLCXsmJm0rlw988xkV-1" vertex="1">
                    <mxGeometry x="-1000" y="120" width="40" height="40" as="geometry"/>
                </mxCell>
                <mxCell id="4XlLCXsmJm0rlw988xkV-9" style="edgeStyle=none;rounded=0;orthogonalLoop=1;jettySize=auto;html=1;exitX=0;exitY=1;exitDx=0;exitDy=0;entryX=0.5;entryY=0;entryDx=0;entryDy=0;endArrow=none;endFill=0;" parent="4XlLCXsmJm0rlw988xkV-1" source="4XlLCXsmJm0rlw988xkV-10" target="4XlLCXsmJm0rlw988xkV-25" edge="1">
                    <mxGeometry relative="1" as="geometry"/>
                </mxCell>
                <mxCell id="4XlLCXsmJm0rlw988xkV-10" value="50" style="whiteSpace=wrap;html=1;aspect=fixed;fontFamily=Fira Code;" parent="4XlLCXsmJm0rlw988xkV-1" vertex="1">
                    <mxGeometry x="-960" y="120" width="40" height="40" as="geometry"/>
                </mxCell>
                <mxCell id="4XlLCXsmJm0rlw988xkV-11" style="edgeStyle=none;rounded=0;orthogonalLoop=1;jettySize=auto;html=1;exitX=0;exitY=1;exitDx=0;exitDy=0;entryX=0.5;entryY=0;entryDx=0;entryDy=0;endArrow=none;endFill=0;" parent="4XlLCXsmJm0rlw988xkV-1" source="4XlLCXsmJm0rlw988xkV-12" target="4XlLCXsmJm0rlw988xkV-31" edge="1">
                    <mxGeometry relative="1" as="geometry"/>
                </mxCell>
                <mxCell id="4XlLCXsmJm0rlw988xkV-12" value="" style="whiteSpace=wrap;html=1;aspect=fixed;fontFamily=Fira Code;" parent="4XlLCXsmJm0rlw988xkV-1" vertex="1">
                    <mxGeometry x="-920" y="120" width="40" height="40" as="geometry"/>
                </mxCell>
                <mxCell id="4XlLCXsmJm0rlw988xkV-13" style="edgeStyle=none;rounded=0;orthogonalLoop=1;jettySize=auto;html=1;exitX=0;exitY=1;exitDx=0;exitDy=0;entryX=0.5;entryY=0;entryDx=0;entryDy=0;endArrow=none;endFill=0;" parent="4XlLCXsmJm0rlw988xkV-1" source="4XlLCXsmJm0rlw988xkV-14" target="4XlLCXsmJm0rlw988xkV-22" edge="1">
                    <mxGeometry relative="1" as="geometry"/>
                </mxCell>
                <mxCell id="4XlLCXsmJm0rlw988xkV-14" value="90" style="whiteSpace=wrap;html=1;aspect=fixed;fontFamily=Fira Code;" parent="4XlLCXsmJm0rlw988xkV-1" vertex="1">
                    <mxGeometry x="-360" y="120" width="40" height="40" as="geometry"/>
                </mxCell>
                <mxCell id="4XlLCXsmJm0rlw988xkV-15" style="edgeStyle=none;rounded=0;orthogonalLoop=1;jettySize=auto;html=1;exitX=0;exitY=1;exitDx=0;exitDy=0;entryX=0.5;entryY=0;entryDx=0;entryDy=0;endArrow=none;endFill=0;" parent="4XlLCXsmJm0rlw988xkV-1" source="4XlLCXsmJm0rlw988xkV-16" target="4XlLCXsmJm0rlw988xkV-19" edge="1">
                    <mxGeometry relative="1" as="geometry"/>
                </mxCell>
                <mxCell id="4XlLCXsmJm0rlw988xkV-16" value="" style="whiteSpace=wrap;html=1;aspect=fixed;fontFamily=Fira Code;" parent="4XlLCXsmJm0rlw988xkV-1" vertex="1">
                    <mxGeometry x="-320" y="120" width="40" height="40" as="geometry"/>
                </mxCell>
                <mxCell id="4XlLCXsmJm0rlw988xkV-17" value="" style="whiteSpace=wrap;html=1;aspect=fixed;fontFamily=Fira Code;" parent="4XlLCXsmJm0rlw988xkV-1" vertex="1">
                    <mxGeometry x="-280" y="120" width="40" height="40" as="geometry"/>
                </mxCell>
                <mxCell id="4XlLCXsmJm0rlw988xkV-18" value="100" style="whiteSpace=wrap;html=1;aspect=fixed;fontFamily=Fira Code;" parent="4XlLCXsmJm0rlw988xkV-1" vertex="1">
                    <mxGeometry x="-440" y="200" width="40" height="40" as="geometry"/>
                </mxCell>
                <mxCell id="4XlLCXsmJm0rlw988xkV-19" value="" style="whiteSpace=wrap;html=1;aspect=fixed;fontFamily=Fira Code;" parent="4XlLCXsmJm0rlw988xkV-1" vertex="1">
                    <mxGeometry x="-400" y="200" width="40" height="40" as="geometry"/>
                </mxCell>
                <mxCell id="4XlLCXsmJm0rlw988xkV-20" value="" style="whiteSpace=wrap;html=1;aspect=fixed;fontFamily=Fira Code;" parent="4XlLCXsmJm0rlw988xkV-1" vertex="1">
                    <mxGeometry x="-360" y="200" width="40" height="40" as="geometry"/>
                </mxCell>
                <mxCell id="4XlLCXsmJm0rlw988xkV-21" value="80" style="whiteSpace=wrap;html=1;aspect=fixed;fontFamily=Fira Code;" parent="4XlLCXsmJm0rlw988xkV-1" vertex="1">
                    <mxGeometry x="-600" y="200" width="40" height="40" as="geometry"/>
                </mxCell>
                <mxCell id="4XlLCXsmJm0rlw988xkV-22" value="" style="whiteSpace=wrap;html=1;aspect=fixed;fontFamily=Fira Code;" parent="4XlLCXsmJm0rlw988xkV-1" vertex="1">
                    <mxGeometry x="-560" y="200" width="40" height="40" as="geometry"/>
                </mxCell>
                <mxCell id="4XlLCXsmJm0rlw988xkV-23" value="" style="whiteSpace=wrap;html=1;aspect=fixed;fontFamily=Fira Code;" parent="4XlLCXsmJm0rlw988xkV-1" vertex="1">
                    <mxGeometry x="-520" y="200" width="40" height="40" as="geometry"/>
                </mxCell>
                <mxCell id="4XlLCXsmJm0rlw988xkV-24" value="40" style="whiteSpace=wrap;html=1;aspect=fixed;fontFamily=Fira Code;" parent="4XlLCXsmJm0rlw988xkV-1" vertex="1">
                    <mxGeometry x="-1080" y="200" width="40" height="40" as="geometry"/>
                </mxCell>
                <mxCell id="4XlLCXsmJm0rlw988xkV-25" value="" style="whiteSpace=wrap;html=1;aspect=fixed;fontFamily=Fira Code;" parent="4XlLCXsmJm0rlw988xkV-1" vertex="1">
                    <mxGeometry x="-1040" y="200" width="40" height="40" as="geometry"/>
                </mxCell>
                <mxCell id="4XlLCXsmJm0rlw988xkV-26" value="" style="whiteSpace=wrap;html=1;aspect=fixed;fontFamily=Fira Code;" parent="4XlLCXsmJm0rlw988xkV-1" vertex="1">
                    <mxGeometry x="-1000" y="200" width="40" height="40" as="geometry"/>
                </mxCell>
                <mxCell id="4XlLCXsmJm0rlw988xkV-27" value="10" style="whiteSpace=wrap;html=1;aspect=fixed;fontFamily=Fira Code;" parent="4XlLCXsmJm0rlw988xkV-1" vertex="1">
                    <mxGeometry x="-1240" y="200" width="40" height="40" as="geometry"/>
                </mxCell>
                <mxCell id="4XlLCXsmJm0rlw988xkV-28" value="20" style="whiteSpace=wrap;html=1;aspect=fixed;fontFamily=Fira Code;" parent="4XlLCXsmJm0rlw988xkV-1" vertex="1">
                    <mxGeometry x="-1200" y="200" width="40" height="40" as="geometry"/>
                </mxCell>
                <mxCell id="4XlLCXsmJm0rlw988xkV-29" value="" style="whiteSpace=wrap;html=1;aspect=fixed;fontFamily=Fira Code;" parent="4XlLCXsmJm0rlw988xkV-1" vertex="1">
                    <mxGeometry x="-1160" y="200" width="40" height="40" as="geometry"/>
                </mxCell>
                <mxCell id="4XlLCXsmJm0rlw988xkV-30" value="60" style="whiteSpace=wrap;html=1;aspect=fixed;fontFamily=Fira Code;" parent="4XlLCXsmJm0rlw988xkV-1" vertex="1">
                    <mxGeometry x="-920" y="200" width="40" height="40" as="geometry"/>
                </mxCell>
                <mxCell id="4XlLCXsmJm0rlw988xkV-31" value="" style="whiteSpace=wrap;html=1;aspect=fixed;fontFamily=Fira Code;" parent="4XlLCXsmJm0rlw988xkV-1" vertex="1">
                    <mxGeometry x="-880" y="200" width="40" height="40" as="geometry"/>
                </mxCell>
                <mxCell id="4XlLCXsmJm0rlw988xkV-32" value="" style="whiteSpace=wrap;html=1;aspect=fixed;fontFamily=Fira Code;" parent="4XlLCXsmJm0rlw988xkV-1" vertex="1">
                    <mxGeometry x="-840" y="200" width="40" height="40" as="geometry"/>
                </mxCell>
            </root>
        </mxGraphModel>
    </diagram>
    <diagram name="Copy of Copy of Copy of Copy of Copy of Copy of Copy of Copy of Copy of Copy of Copy of Copy of Copy of Copy of Copy of Copy of Copy of Copy of Copy of Copy of Copy of Copy of Copy of Copy of Copy of Copy of Copy of Page-1" id="bcraUh8YuhZArqLmO9Et">
        <mxGraphModel dx="3002" dy="860" grid="1" gridSize="10" guides="1" tooltips="1" connect="1" arrows="1" fold="1" page="1" pageScale="1" pageWidth="800" pageHeight="800" math="0" shadow="0">
            <root>
                <mxCell id="s62aokTtF_whKlJ5ZblF-0"/>
                <mxCell id="s62aokTtF_whKlJ5ZblF-1" parent="s62aokTtF_whKlJ5ZblF-0"/>
                <mxCell id="s62aokTtF_whKlJ5ZblF-2" style="edgeStyle=none;rounded=0;orthogonalLoop=1;jettySize=auto;html=1;exitX=0;exitY=1;exitDx=0;exitDy=0;entryX=0.5;entryY=0;entryDx=0;entryDy=0;endArrow=none;endFill=0;" parent="s62aokTtF_whKlJ5ZblF-1" source="s62aokTtF_whKlJ5ZblF-4" target="s62aokTtF_whKlJ5ZblF-10" edge="1">
                    <mxGeometry relative="1" as="geometry"/>
                </mxCell>
                <mxCell id="s62aokTtF_whKlJ5ZblF-3" style="edgeStyle=none;rounded=0;orthogonalLoop=1;jettySize=auto;html=1;exitX=1;exitY=1;exitDx=0;exitDy=0;entryX=0.5;entryY=0;entryDx=0;entryDy=0;endArrow=none;endFill=0;" parent="s62aokTtF_whKlJ5ZblF-1" source="s62aokTtF_whKlJ5ZblF-4" target="s62aokTtF_whKlJ5ZblF-16" edge="1">
                    <mxGeometry relative="1" as="geometry"/>
                </mxCell>
                <mxCell id="s62aokTtF_whKlJ5ZblF-4" value="70" style="whiteSpace=wrap;html=1;aspect=fixed;fontFamily=Fira Code;" parent="s62aokTtF_whKlJ5ZblF-1" vertex="1">
                    <mxGeometry x="-40" y="40" width="40" height="40" as="geometry"/>
                </mxCell>
                <mxCell id="s62aokTtF_whKlJ5ZblF-5" value="" style="whiteSpace=wrap;html=1;aspect=fixed;fontFamily=Fira Code;" parent="s62aokTtF_whKlJ5ZblF-1" vertex="1">
                    <mxGeometry y="40" width="40" height="40" as="geometry"/>
                </mxCell>
                <mxCell id="s62aokTtF_whKlJ5ZblF-6" value="" style="whiteSpace=wrap;html=1;aspect=fixed;fontFamily=Fira Code;" parent="s62aokTtF_whKlJ5ZblF-1" vertex="1">
                    <mxGeometry x="40" y="40" width="40" height="40" as="geometry"/>
                </mxCell>
                <mxCell id="s62aokTtF_whKlJ5ZblF-7" style="edgeStyle=none;rounded=0;orthogonalLoop=1;jettySize=auto;html=1;exitX=0;exitY=1;exitDx=0;exitDy=0;entryX=0.5;entryY=0;entryDx=0;entryDy=0;endArrow=none;endFill=0;" parent="s62aokTtF_whKlJ5ZblF-1" source="s62aokTtF_whKlJ5ZblF-8" target="s62aokTtF_whKlJ5ZblF-28" edge="1">
                    <mxGeometry relative="1" as="geometry"/>
                </mxCell>
                <mxCell id="s62aokTtF_whKlJ5ZblF-8" value="30" style="whiteSpace=wrap;html=1;aspect=fixed;fontFamily=Fira Code;" parent="s62aokTtF_whKlJ5ZblF-1" vertex="1">
                    <mxGeometry x="-1000" y="120" width="40" height="40" as="geometry"/>
                </mxCell>
                <mxCell id="s62aokTtF_whKlJ5ZblF-9" style="edgeStyle=none;rounded=0;orthogonalLoop=1;jettySize=auto;html=1;exitX=0;exitY=1;exitDx=0;exitDy=0;entryX=0.5;entryY=0;entryDx=0;entryDy=0;endArrow=none;endFill=0;" parent="s62aokTtF_whKlJ5ZblF-1" source="s62aokTtF_whKlJ5ZblF-10" target="s62aokTtF_whKlJ5ZblF-25" edge="1">
                    <mxGeometry relative="1" as="geometry"/>
                </mxCell>
                <mxCell id="s62aokTtF_whKlJ5ZblF-10" value="50" style="whiteSpace=wrap;html=1;aspect=fixed;fontFamily=Fira Code;" parent="s62aokTtF_whKlJ5ZblF-1" vertex="1">
                    <mxGeometry x="-960" y="120" width="40" height="40" as="geometry"/>
                </mxCell>
                <mxCell id="s62aokTtF_whKlJ5ZblF-11" style="edgeStyle=none;rounded=0;orthogonalLoop=1;jettySize=auto;html=1;exitX=0;exitY=1;exitDx=0;exitDy=0;entryX=0.5;entryY=0;entryDx=0;entryDy=0;endArrow=none;endFill=0;" parent="s62aokTtF_whKlJ5ZblF-1" source="s62aokTtF_whKlJ5ZblF-12" target="s62aokTtF_whKlJ5ZblF-31" edge="1">
                    <mxGeometry relative="1" as="geometry"/>
                </mxCell>
                <mxCell id="s62aokTtF_whKlJ5ZblF-12" value="" style="whiteSpace=wrap;html=1;aspect=fixed;fontFamily=Fira Code;" parent="s62aokTtF_whKlJ5ZblF-1" vertex="1">
                    <mxGeometry x="-920" y="120" width="40" height="40" as="geometry"/>
                </mxCell>
                <mxCell id="s62aokTtF_whKlJ5ZblF-13" style="edgeStyle=none;rounded=0;orthogonalLoop=1;jettySize=auto;html=1;exitX=0;exitY=1;exitDx=0;exitDy=0;entryX=0.5;entryY=0;entryDx=0;entryDy=0;endArrow=none;endFill=0;" parent="s62aokTtF_whKlJ5ZblF-1" source="s62aokTtF_whKlJ5ZblF-14" target="s62aokTtF_whKlJ5ZblF-22" edge="1">
                    <mxGeometry relative="1" as="geometry"/>
                </mxCell>
                <mxCell id="s62aokTtF_whKlJ5ZblF-14" value="90" style="whiteSpace=wrap;html=1;aspect=fixed;fontFamily=Fira Code;" parent="s62aokTtF_whKlJ5ZblF-1" vertex="1">
                    <mxGeometry x="-360" y="120" width="40" height="40" as="geometry"/>
                </mxCell>
                <mxCell id="s62aokTtF_whKlJ5ZblF-15" style="edgeStyle=none;rounded=0;orthogonalLoop=1;jettySize=auto;html=1;exitX=0;exitY=1;exitDx=0;exitDy=0;entryX=0.5;entryY=0;entryDx=0;entryDy=0;endArrow=none;endFill=0;" parent="s62aokTtF_whKlJ5ZblF-1" source="s62aokTtF_whKlJ5ZblF-16" target="s62aokTtF_whKlJ5ZblF-19" edge="1">
                    <mxGeometry relative="1" as="geometry"/>
                </mxCell>
                <mxCell id="s62aokTtF_whKlJ5ZblF-16" value="" style="whiteSpace=wrap;html=1;aspect=fixed;fontFamily=Fira Code;" parent="s62aokTtF_whKlJ5ZblF-1" vertex="1">
                    <mxGeometry x="-320" y="120" width="40" height="40" as="geometry"/>
                </mxCell>
                <mxCell id="s62aokTtF_whKlJ5ZblF-17" value="" style="whiteSpace=wrap;html=1;aspect=fixed;fontFamily=Fira Code;" parent="s62aokTtF_whKlJ5ZblF-1" vertex="1">
                    <mxGeometry x="-280" y="120" width="40" height="40" as="geometry"/>
                </mxCell>
                <mxCell id="s62aokTtF_whKlJ5ZblF-18" value="100" style="whiteSpace=wrap;html=1;aspect=fixed;fontFamily=Fira Code;" parent="s62aokTtF_whKlJ5ZblF-1" vertex="1">
                    <mxGeometry x="-440" y="200" width="40" height="40" as="geometry"/>
                </mxCell>
                <mxCell id="s62aokTtF_whKlJ5ZblF-19" value="" style="whiteSpace=wrap;html=1;aspect=fixed;fontFamily=Fira Code;" parent="s62aokTtF_whKlJ5ZblF-1" vertex="1">
                    <mxGeometry x="-400" y="200" width="40" height="40" as="geometry"/>
                </mxCell>
                <mxCell id="s62aokTtF_whKlJ5ZblF-20" value="" style="whiteSpace=wrap;html=1;aspect=fixed;fontFamily=Fira Code;" parent="s62aokTtF_whKlJ5ZblF-1" vertex="1">
                    <mxGeometry x="-360" y="200" width="40" height="40" as="geometry"/>
                </mxCell>
                <mxCell id="s62aokTtF_whKlJ5ZblF-21" value="80" style="whiteSpace=wrap;html=1;aspect=fixed;fontFamily=Fira Code;" parent="s62aokTtF_whKlJ5ZblF-1" vertex="1">
                    <mxGeometry x="-600" y="200" width="40" height="40" as="geometry"/>
                </mxCell>
                <mxCell id="s62aokTtF_whKlJ5ZblF-22" value="" style="whiteSpace=wrap;html=1;aspect=fixed;fontFamily=Fira Code;" parent="s62aokTtF_whKlJ5ZblF-1" vertex="1">
                    <mxGeometry x="-560" y="200" width="40" height="40" as="geometry"/>
                </mxCell>
                <mxCell id="s62aokTtF_whKlJ5ZblF-23" value="" style="whiteSpace=wrap;html=1;aspect=fixed;fontFamily=Fira Code;" parent="s62aokTtF_whKlJ5ZblF-1" vertex="1">
                    <mxGeometry x="-520" y="200" width="40" height="40" as="geometry"/>
                </mxCell>
                <mxCell id="s62aokTtF_whKlJ5ZblF-24" value="40" style="whiteSpace=wrap;html=1;aspect=fixed;fontFamily=Fira Code;" parent="s62aokTtF_whKlJ5ZblF-1" vertex="1">
                    <mxGeometry x="-1080" y="200" width="40" height="40" as="geometry"/>
                </mxCell>
                <mxCell id="s62aokTtF_whKlJ5ZblF-25" value="" style="whiteSpace=wrap;html=1;aspect=fixed;fontFamily=Fira Code;" parent="s62aokTtF_whKlJ5ZblF-1" vertex="1">
                    <mxGeometry x="-1040" y="200" width="40" height="40" as="geometry"/>
                </mxCell>
                <mxCell id="s62aokTtF_whKlJ5ZblF-26" value="" style="whiteSpace=wrap;html=1;aspect=fixed;fontFamily=Fira Code;" parent="s62aokTtF_whKlJ5ZblF-1" vertex="1">
                    <mxGeometry x="-1000" y="200" width="40" height="40" as="geometry"/>
                </mxCell>
                <mxCell id="s62aokTtF_whKlJ5ZblF-27" value="5" style="whiteSpace=wrap;html=1;aspect=fixed;fontFamily=Fira Code;" parent="s62aokTtF_whKlJ5ZblF-1" vertex="1">
                    <mxGeometry x="-1240" y="200" width="40" height="40" as="geometry"/>
                </mxCell>
                <mxCell id="s62aokTtF_whKlJ5ZblF-28" value="10" style="whiteSpace=wrap;html=1;aspect=fixed;fontFamily=Fira Code;" parent="s62aokTtF_whKlJ5ZblF-1" vertex="1">
                    <mxGeometry x="-1200" y="200" width="40" height="40" as="geometry"/>
                </mxCell>
                <mxCell id="s62aokTtF_whKlJ5ZblF-29" value="20" style="whiteSpace=wrap;html=1;aspect=fixed;fontFamily=Fira Code;" parent="s62aokTtF_whKlJ5ZblF-1" vertex="1">
                    <mxGeometry x="-1160" y="200" width="40" height="40" as="geometry"/>
                </mxCell>
                <mxCell id="s62aokTtF_whKlJ5ZblF-30" value="60" style="whiteSpace=wrap;html=1;aspect=fixed;fontFamily=Fira Code;" parent="s62aokTtF_whKlJ5ZblF-1" vertex="1">
                    <mxGeometry x="-920" y="200" width="40" height="40" as="geometry"/>
                </mxCell>
                <mxCell id="s62aokTtF_whKlJ5ZblF-31" value="" style="whiteSpace=wrap;html=1;aspect=fixed;fontFamily=Fira Code;" parent="s62aokTtF_whKlJ5ZblF-1" vertex="1">
                    <mxGeometry x="-880" y="200" width="40" height="40" as="geometry"/>
                </mxCell>
                <mxCell id="s62aokTtF_whKlJ5ZblF-32" value="" style="whiteSpace=wrap;html=1;aspect=fixed;fontFamily=Fira Code;" parent="s62aokTtF_whKlJ5ZblF-1" vertex="1">
                    <mxGeometry x="-840" y="200" width="40" height="40" as="geometry"/>
                </mxCell>
            </root>
        </mxGraphModel>
    </diagram>
</mxfile>